<svg width="189" height="122" viewBox="0 0 189 122" fill="none" xmlns="http://www.w3.org/2000/svg">
<g clip-path="url(#clip0_47_4225)">
<path d="M184 0.25H4C1.92893 0.25 0.25 1.92893 0.25 4V118C0.25 120.071 1.92893 121.75 4 121.75H184C186.071 121.75 187.75 120.071 187.75 118V4C187.75 1.92893 186.071 0.25 184 0.25Z" fill="#006FCF"/>
<path d="M184 0.25H4C1.92893 0.25 0.25 1.92893 0.25 4V118C0.25 120.071 1.92893 121.75 4 121.75H184C186.071 121.75 187.75 120.071 187.75 118V4C187.75 1.92893 186.071 0.25 184 0.25Z" stroke="#495057" stroke-width="0.5"/>
<path fill-rule="evenodd" clip-rule="evenodd" d="M188.071 22.0887H172.51L164.377 45.6006L155.889 22.0887H139.975V58.6986L123.706 22.0887H110.622L94.3534 59.4933H105.67L108.853 52.0128H125.828L129.011 59.4933H150.23V33.4879L159.779 59.4933H168.62L178.168 33.4879V59.4933H188.071V65.1929H174.986L164.377 76.9489L153.413 65.1929H108.499V102.598H153.06L164.022 90.4858L174.986 102.598H188.071V107.228H172.51L164.022 97.9663L155.534 107.228H102.841V64.4803H85.8655L107.085 16.3881H127.596L135.023 32.7753V16.3881H160.486L164.73 28.8566L168.974 16.3881H188.071V22.0887ZM188.071 73.386L178.523 83.7168L188.071 94.0476V102.598L170.742 83.7168L188.071 65.1929V73.386ZM139.975 102.598V93.6919H118.755V87.9923H139.62V79.4424H118.755V73.7428H139.975V65.1929L157.657 83.7168L139.975 102.598ZM112.035 43.8187L116.987 31.7069L121.938 43.8187H112.035Z" fill="white"/>
</g>
<path d="M8 0.5H181C185.142 0.5 188.5 3.85786 188.5 8V114C188.5 118.142 185.142 121.5 181 121.5H8C3.85787 121.5 0.5 118.142 0.5 114V8C0.5 3.85786 3.85786 0.5 8 0.5Z" stroke="#495057"/>
<defs>
<clipPath id="clip0_47_4225">
<path d="M0 8C0 3.58172 3.58172 0 8 0H181C185.418 0 189 3.58172 189 8V114C189 118.418 185.418 122 181 122H8C3.58173 122 0 118.418 0 114V8Z" fill="white"/>
</clipPath>
</defs>
</svg>
