<svg width="188" height="122" viewBox="0 0 188 122" fill="none" xmlns="http://www.w3.org/2000/svg">
<g clip-path="url(#clip0_47_4230)">
<path d="M184 0.25H4C1.92893 0.25 0.25 1.92893 0.25 4V118C0.25 120.071 1.92893 121.75 4 121.75H184C186.071 121.75 187.75 120.071 187.75 118V4C187.75 1.92893 186.071 0.25 184 0.25Z" fill="#B5DC19"/>
<path d="M184 0.25H4C1.92893 0.25 0.25 1.92893 0.25 4V118C0.25 120.071 1.92893 121.75 4 121.75H184C186.071 121.75 187.75 120.071 187.75 118V4C187.75 1.92893 186.071 0.25 184 0.25Z" stroke="#495057" stroke-width="0.5"/>
<path fill-rule="evenodd" clip-rule="evenodd" d="M41.1381 80.1142L41.033 79.8158L36.501 66.8609L36.3962 66.5629L36.6926 66.4574L49.9323 61.7644C50.402 61.5968 50.8823 61.5133 51.3769 61.5133C53.2114 61.5133 54.8516 62.6807 55.4544 64.4308L58.6546 73.5662L58.7592 73.8606L58.4594 73.9665L41.434 80.0052L41.1381 80.1142Z" fill="#A3CA3F"/>
<path fill-rule="evenodd" clip-rule="evenodd" d="M47.5787 77.4914L41.3234 79.7034L36.8019 66.7481L47.5787 62.9285L50.0422 62.0591C50.4861 61.9028 50.9341 61.8299 51.3781 61.8299C53.036 61.8299 54.5783 62.8664 55.1598 64.5294L58.363 73.6679L47.5787 77.4914ZM47.5787 62.2592L36.5885 66.1629L36 66.3701L36.2058 66.9665L40.7383 79.9178L40.9441 80.5148L41.5292 80.3035L47.5787 78.1642L58.5652 74.2643L59.1573 74.057L58.948 73.457L55.7554 64.318C55.1015 62.4482 53.3464 61.1932 51.3781 61.1932C50.8512 61.1932 50.3344 61.291 49.8323 61.4657L47.5787 62.2592Z" fill="white"/>
<path fill-rule="evenodd" clip-rule="evenodd" d="M53.3356 92.6872H53.3321C48.6877 92.6872 44.5339 89.7218 42.9882 85.3095L41.8322 81.9912L41.7275 81.6927L42.0239 81.5873L60.0353 75.1956C60.5081 75.0357 61.0066 74.9446 61.5087 74.9446C63.3938 74.9446 65.0771 76.1522 65.7126 77.9349L69.0241 87.4482L69.1327 87.7467L68.8365 87.852L56.9832 92.0613C55.802 92.4758 54.5779 92.6872 53.3356 92.6872Z" fill="#194084"/>
<path fill-rule="evenodd" clip-rule="evenodd" d="M55.4309 92.1631C54.7301 92.3088 54.0298 92.374 53.3324 92.374C48.941 92.374 44.8271 89.6129 43.2849 85.2036L42.126 81.8822L55.4309 77.1678L60.1369 75.4972C60.5919 75.3343 61.0541 75.2644 61.5092 75.2644C63.2173 75.2644 64.8099 76.331 65.4096 78.0438L68.7358 87.5577L56.879 91.7633C56.3951 91.9379 55.9147 92.0653 55.4309 92.1631ZM55.4309 76.5016L41.9196 81.2858L41.324 81.5037L41.5298 82.093L42.6928 85.4114C44.282 89.9587 48.5582 93 53.3324 93C54.0404 93 54.7411 92.9378 55.4309 92.8039C55.9871 92.6984 56.5433 92.5491 57.0884 92.3526L68.938 88.147L69.5307 87.9397L69.3249 87.3463L65.9982 77.8371C65.3338 75.9087 63.5318 74.6318 61.5092 74.6318C60.9712 74.6318 60.4402 74.723 59.9311 74.9008L55.4309 76.5016Z" fill="white"/>
<path fill-rule="evenodd" clip-rule="evenodd" d="M79.7404 92.9158C73.655 92.9158 70.4371 89.7911 70.4371 83.8614C70.4371 80.2742 71.5278 76.9961 73.5069 74.6425C75.6412 72.1029 78.6463 70.768 82.2034 70.768C84.8833 70.768 87.1405 71.401 88.7515 72.5975C90.5824 73.9732 91.5431 76.0029 91.5972 78.6514V78.8185H91.4273H85.7829H85.62V78.6514C85.62 76.3955 84.504 75.3846 82.0123 75.3846C77.5808 75.3846 76.4178 81.0092 76.4178 83.981C76.4178 85.9492 77.0606 88.2921 80.1414 88.2921C82.9654 88.2921 84.1177 85.9639 84.5475 84.574L84.587 84.4502H84.7098H90.3513H90.59L90.5141 84.6758C88.7298 90.0636 85.0027 92.9158 79.7404 92.9158ZM100.897 88.638C103.256 88.1139 104.144 86.1422 104.69 84.2103L105.137 82.5988C103.899 83.2064 102.493 83.3082 101.129 83.3958L100.897 83.4102L100.658 83.4315C98.25 83.6969 96.643 84.3447 96.643 86.6189C96.643 88.2121 98.2172 88.7724 99.5723 88.7724C100.052 88.7724 100.489 88.7286 100.897 88.638ZM100.897 79.8524L101.121 79.8229C104.711 79.4663 106.355 79.2993 106.355 77.2544C106.355 75.0718 103.746 74.9007 102.945 74.9007C102.162 74.9007 101.472 75.0464 100.897 75.2903C99.8356 75.7701 99.1417 76.632 98.9405 77.8075L93.4934 77.9455C93.6632 75.2827 94.8262 73.4383 96.7947 72.2557C97.9324 71.5788 99.3011 71.1281 100.897 70.9101C101.627 70.8082 102.4 70.768 103.223 70.768C106.763 70.768 109.262 71.4917 110.663 72.9214C111.494 73.7689 111.923 74.8824 111.938 76.2031C111.938 77.1377 111.782 78.3168 111.494 79.8886L109.666 88.2228C109.482 88.9068 109.395 90.1329 109.395 90.9803C109.395 91.3302 109.467 91.7882 109.584 92.13L109.659 92.3525H109.421H103.783L103.613 90.5729C102.869 91.3119 101.937 91.8936 100.897 92.3011C99.8503 92.7014 98.6908 92.9158 97.5018 92.9158C92.7819 92.9158 90.6623 90.1002 90.6623 87.306C90.6623 83.3444 93.5839 80.7107 98.6761 80.0918L100.897 79.8524ZM118.02 92.3525H117.886H112.241H112.035L112.083 92.156L116.373 71.4555L116.399 71.3246H116.532H121.902H122.112L122.069 71.5319L121.418 74.4021C122.798 72.1356 125.326 70.768 128.22 70.768C128.815 70.768 129.375 70.8005 129.985 70.8841L130.169 70.9024L130.133 71.0883L128.981 76.607L128.945 76.7775L128.776 76.745C128.646 76.7124 128.501 76.6834 128.363 76.6503C127.728 76.5199 127.07 76.3813 126.424 76.3813C121.967 76.3813 120.624 79.9538 119.959 83.0536L118.049 92.2176L118.02 92.3525ZM138.133 88.1647C141.492 87.357 143.073 82.8386 143.073 79.692C143.073 76.9563 141.651 75.3846 139.184 75.3846C138.819 75.3846 138.465 75.4242 138.133 75.4971C134.734 76.2575 133.196 80.6562 133.196 83.8614C133.196 85.9018 134.203 88.2921 137.042 88.2921C137.425 88.2921 137.787 88.2483 138.133 88.1647ZM138.133 70.7751L138.595 70.768C140.61 70.768 143.254 71.5721 144.348 73.8204L146.53 63.5721L152.341 63.4376L146.501 92.2176L140.9 92.3525L141.156 90.1909C140.419 91.2131 139.378 91.9772 138.133 92.4212C137.251 92.7447 136.269 92.9158 135.207 92.9158C130.281 92.9158 127.212 89.7218 127.212 84.5776C127.212 80.9577 128.212 77.5889 130.007 75.1044C131.969 72.3866 134.778 70.8881 138.133 70.7751ZM141.355 59.1918C139.003 59.1918 136.833 58.6718 135.251 57.7296C133.275 56.5468 132.235 54.7137 132.235 52.4141V51.5559V51.3812H132.405H137.776H137.942V51.5559V52.2507C137.942 54.0226 139.946 54.9465 141.929 54.9465C142.749 54.9465 145.418 54.7789 145.418 52.5781C145.418 51.2717 144.782 50.8429 143.461 50.4135L139.021 48.9731C136.06 48.0089 134.344 46.7864 134.344 43.3923C134.344 38.6372 139.115 36.5015 143.839 36.5015C147.231 36.5015 149.575 37.215 151.012 38.6845C152.124 39.8193 152.666 41.4166 152.637 43.4432V43.6174H152.464H147.096H146.924L146.92 43.4432C146.876 41.6534 145.843 40.7473 143.839 40.7473C142.304 40.7473 140.47 41.0784 140.47 42.6573C140.47 43.3775 140.888 43.9704 142.994 44.6254L145.891 45.5676C148.823 46.5425 151.535 47.9763 151.535 51.8029C151.535 54.2553 150.406 56.2341 148.264 57.5222C146.49 58.5954 144.038 59.1918 141.355 59.1918ZM106.289 58.6209H106.159H100.377H100.165L100.207 58.4024L102.767 45.9823C102.941 45.3532 103.132 43.9851 103.132 43.4432C103.132 42.2641 101.772 41.442 100.54 41.442C96.4403 41.442 95.1655 45.4729 94.8045 47.2046L92.4538 58.4788L92.4244 58.6209H92.2838H86.5049H86.2885L86.335 58.4024L90.727 37.211L90.7558 37.0766H90.8964H96.4297H96.643L96.596 37.2914L96.0685 39.689C97.9324 37.5711 100.334 36.5015 103.223 36.5015C107.301 36.5015 109.543 38.5862 109.543 42.37C109.543 42.9772 109.334 44.2143 108.926 46.0587L106.325 58.4788L106.289 58.6209ZM50.2662 45.5819H45.5854L43.9492 53.2728H50.2662H51.7507C54.7769 53.2728 56.5826 51.5742 56.5826 48.7327C56.5826 45.8259 54.0691 45.5819 51.7108 45.5819H50.2662ZM50.2662 34.3409H47.9079L46.5497 40.8492H50.2662H53.5816C55.6476 40.8492 57.7238 39.7103 57.7238 37.1713C57.7238 35.2429 56.7055 34.3409 54.5206 34.3409H50.2662ZM50.2662 58.6209H36.5349L42.4651 29.1314L50.2662 29H54.8421C58.1647 29 60.3243 29.4259 61.8377 30.3574C63.5963 31.4596 64.4594 33.3039 64.4594 36.0181C64.4594 37.7315 63.9286 39.3614 62.9754 40.6235C62.0723 41.8134 60.8411 42.6064 59.4071 42.912C61.8342 43.7849 63.3218 46.0148 63.3218 48.8487C63.3218 51.8722 62.13 54.4117 59.8804 56.1654C57.8614 57.7438 55.0733 58.6209 52.0358 58.6209H50.2662ZM122.083 45.3965H126.698C126.67 43.4214 126.175 41.2419 122.961 41.2419C122.657 41.2419 122.372 41.253 122.083 41.2928C119.959 41.5842 118.411 42.9629 117.467 45.3965H122.083ZM122.083 36.5162L122.635 36.5015C125.629 36.5015 128.128 37.3241 129.852 38.8735C131.683 40.5181 132.617 42.9008 132.617 45.939C132.617 47.0518 132.499 48.2162 132.29 49.2929L122.083 49.4315H116.774L116.745 50.497C116.745 53.0182 118.37 54.4591 121.212 54.4591C121.52 54.4591 121.819 54.4296 122.083 54.3786C123.719 54.044 124.644 52.8073 125.384 51.6211L131.306 51.5523H131.559L131.466 51.7811C129.671 56.4455 126.817 58.7044 122.083 59.1226C121.545 59.1664 120.984 59.1918 120.4 59.1918C114.427 59.1918 110.865 55.6667 110.865 49.7513C110.865 46.2914 111.982 43.0245 114.014 40.5619C116.067 38.0881 118.916 36.6655 122.083 36.5162ZM74.8792 45.8076L75.1068 45.7862C78.7908 45.4148 80.4701 45.2508 80.4701 43.1519C80.4701 40.922 77.8013 40.7473 76.9776 40.7473C76.1828 40.7473 75.4749 40.8818 74.8757 41.1512C73.792 41.6316 73.0842 42.5188 72.8784 43.7122L67.2951 43.8578C67.4716 41.1293 68.6674 39.2484 70.6824 38.0335C71.8382 37.3347 73.243 36.8764 74.8757 36.6548C75.623 36.5601 76.425 36.5015 77.2628 36.5015C80.8923 36.5015 83.4534 37.2512 84.8833 38.7136C85.7322 39.5829 86.1692 40.707 86.1874 42.0532C86.1909 43.0393 86.0392 44.2143 85.7358 45.8442L83.8685 54.3786C83.6698 55.0845 83.5832 56.336 83.5832 57.2166C83.5832 57.5696 83.6627 58.0387 83.7749 58.3841L83.8579 58.6209H83.6121H77.8372L77.6603 56.7837C76.9018 57.5477 75.9516 58.1441 74.8757 58.5623C73.8067 58.9703 72.6185 59.1918 71.4049 59.1918C66.5649 59.1918 64.3948 56.2999 64.3948 53.4475C64.3948 49.3912 67.3886 46.7029 72.6038 46.0587L74.8792 45.8076ZM75.0709 54.7861C77.4868 54.2512 78.2093 52.2618 78.7691 50.279L79.2348 48.616C77.9524 49.2455 76.519 49.351 75.1174 49.4422L74.637 49.4784C72.1705 49.7513 70.5166 50.4135 70.5166 52.7451C70.5166 54.375 72.1346 54.9465 73.521 54.9465C74.0231 54.9465 74.6663 54.8844 75.0709 54.7861Z" fill="#194084"/>
</g>
<path d="M8 0.5H180C184.142 0.5 187.5 3.85786 187.5 8V114C187.5 118.142 184.142 121.5 180 121.5H8C3.85786 121.5 0.5 118.142 0.5 114V8C0.5 3.85786 3.85786 0.5 8 0.5Z" stroke="#495057"/>
<defs>
<clipPath id="clip0_47_4230">
<path d="M0 8C0 3.58172 3.58172 0 8 0H180C184.418 0 188 3.58172 188 8V114C188 118.418 184.418 122 180 122H8C3.58172 122 0 118.418 0 114V8Z" fill="white"/>
</clipPath>
</defs>
</svg>
