<svg width="188" height="122" viewBox="0 0 188 122" fill="none" xmlns="http://www.w3.org/2000/svg">
<g clip-path="url(#clip0_47_4241)">
<path d="M184 0.25H4C1.92893 0.25 0.25 1.92893 0.25 4V118C0.25 120.071 1.92893 121.75 4 121.75H184C186.071 121.75 187.75 120.071 187.75 118V4C187.75 1.92893 186.071 0.25 184 0.25Z" fill="#00538A"/>
<path fill-rule="evenodd" clip-rule="evenodd" d="M4 0.5C2.067 0.5 0.5 2.067 0.5 4V118C0.5 119.933 2.067 121.5 4 121.5H184C185.933 121.5 187.5 119.933 187.5 118V4C187.5 2.067 185.933 0.5 184 0.5H4ZM0 4C0 1.79086 1.79086 0 4 0H184C186.209 0 188 1.79086 188 4V118C188 120.209 186.209 122 184 122H4C1.79086 122 0 120.209 0 118V4Z" fill="#495057"/>
<path d="M80.8318 98.3065L78.1217 89.7915L75.4777 98.3065H80.8318ZM80.6776 86.9824L86.8029 105H82.947L81.7131 101.269H74.5082L73.2523 105H69.3964L75.059 88.365C75.3455 87.553 76.1166 86.9824 76.9759 86.9824H80.6776ZM98.1502 100.435C98.1502 101.752 97.4451 102.191 95.7926 102.191H92.0248V97.275H96.101C97.5553 97.275 98.1502 97.8676 98.1502 99.0966V100.435ZM92.0248 89.7915H95.5502C96.8943 89.7915 97.4671 90.2523 97.4671 91.2618V92.8639C97.4671 93.9173 96.9383 94.5318 95.5061 94.5318H92.0028V89.7915H92.0248ZM98.9874 95.6071C100.464 95.0146 101.147 94.1807 101.147 92.6883V90.8229C101.147 88.3869 99.6705 86.9824 95.9909 86.9824H88.3452V105H96.4977C100.023 105 101.808 103.398 101.808 100.874V98.9429C101.808 97.1873 100.772 95.9583 98.9874 95.6071ZM62.7423 89.5281C60.4508 89.594 59.6796 90.4059 59.6796 92.2494V99.1624C59.6796 101.006 60.4508 101.818 62.7423 101.884V101.906H66.0253C67.0168 101.906 67.81 102.696 67.81 103.683V105H62.7423V104.978C58.0271 104.934 56 103.025 56 99.7549V91.6349C56 88.365 58.0271 86.4557 62.7423 86.4118H66.2236C67.2151 86.4118 68.0083 87.2018 68.0083 88.1894V89.4842C68.0083 89.4842 64.7988 89.5281 62.7423 89.5281ZM132.941 101.993V105H121.285V89.8134V88.7381C121.285 87.6188 122.189 86.719 123.313 86.719H124.943V89.8134V101.993H132.941ZM114.014 98.3065L111.304 89.7915L108.66 98.3065H114.014ZM113.882 86.9824L120.007 105H116.152L114.918 101.269H107.713L106.457 105H102.601L108.087 88.8697C108.462 87.7505 109.542 86.9824 110.731 86.9824H113.882Z" fill="white"/>
<path d="M97.189 17.0453L97.1429 17H97.189V17.0453L125.179 44.5643C126.744 46.0854 126.744 48.6205 125.179 50.1416L97.189 77.7059V62.3105L110.355 49.3119C111.46 48.2518 111.46 46.5002 110.355 45.3939L97.189 32.3493V17.0453Z" fill="white"/>
<path d="M78.8207 45.3939L91.9869 32.3493H92.033V17L63.9972 44.5643C62.4319 46.0854 62.4319 48.6205 63.9972 50.1416L91.9869 77.7059V62.3105L78.8207 49.3119C77.7158 48.2057 77.7158 46.4541 78.8207 45.3939Z" fill="white"/>
</g>
<path d="M8 0.5H180C184.142 0.5 187.5 3.85786 187.5 8V114C187.5 118.142 184.142 121.5 180 121.5H8C3.85786 121.5 0.5 118.142 0.5 114V8C0.5 3.85786 3.85786 0.5 8 0.5Z" stroke="#495057"/>
<defs>
<clipPath id="clip0_47_4241">
<path d="M0 8C0 3.58172 3.58172 0 8 0H180C184.418 0 188 3.58172 188 8V114C188 118.418 184.418 122 180 122H8C3.58172 122 0 118.418 0 114V8Z" fill="white"/>
</clipPath>
</defs>
</svg>
