<svg width="188" height="122" viewBox="0 0 188 122" fill="none" xmlns="http://www.w3.org/2000/svg">
<g clip-path="url(#clip0_47_4271)">
<path d="M184 0.25H4C1.92893 0.25 0.25 1.92893 0.25 4V118C0.25 120.071 1.92893 121.75 4 121.75H184C186.071 121.75 187.75 120.071 187.75 118V4C187.75 1.92893 186.071 0.25 184 0.25Z" fill="#041C2C"/>
<path fill-rule="evenodd" clip-rule="evenodd" d="M4 0.5C2.067 0.5 0.5 2.067 0.5 4V118C0.5 119.933 2.067 121.5 4 121.5H184C185.933 121.5 187.5 119.933 187.5 118V4C187.5 2.067 185.933 0.5 184 0.5H4ZM0 4C0 1.79086 1.79086 0 4 0H184C186.209 0 188 1.79086 188 4V118C188 120.209 186.209 122 184 122H4C1.79086 122 0 120.209 0 118V4Z" fill="#495057"/>
<path d="M85.9221 73.9184C83.5573 75.3435 80.7719 76.1671 77.8027 76.1671C69.1576 76.1671 62.1418 69.1859 62.1418 60.5835C62.1418 51.9812 69.1576 45 77.8027 45C80.9427 45 83.8595 45.9151 86.3032 47.497L82.8872 50.8569C81.3632 50.0725 79.642 49.6149 77.8027 49.6149C71.7196 49.6149 66.7797 54.5175 66.7797 60.5835C66.7797 66.6496 71.7065 71.5522 77.8027 71.5522C79.4187 71.5522 80.9559 71.1992 82.3354 70.5847L85.9221 73.9184ZM98.3773 54.7528C93.3979 54.7528 89.3513 58.8186 89.2856 63.865V63.9957V75.8664H93.4372V63.9042C93.4372 61.1326 95.6577 58.884 98.3773 58.884C99.3758 58.884 100.374 59.1847 101.149 59.6946L104.185 56.7138C102.608 55.3934 100.584 54.7528 98.3773 54.7528ZM169.942 55.0665H154.57V59.1978H165.343L153.782 72.4804C152.625 73.8008 153.572 75.8664 155.331 75.8664H171.992V71.7352H159.93L171.492 58.4526C172.648 57.1322 171.703 55.0665 169.942 55.0665ZM125.35 65.6299C125.324 66.4012 124.693 67.0157 123.918 67.0157H109.321C110.018 69.9049 112.632 72.2581 115.759 72.2581C117.507 72.2581 119.398 71.6567 120.581 70.5586L123.314 73.1079C121.277 75.0951 118.465 76.2847 115.365 76.1802C109.624 75.971 105.012 71.2384 104.986 65.5253C104.96 59.5769 109.795 54.7528 115.759 54.7528C121.645 54.7528 125.547 59.4854 125.35 65.6299ZM109.321 63.8911H121.001C120.293 61.015 118.847 58.884 115.746 58.884C112.646 58.884 110.031 61.015 109.321 63.8911ZM150.024 45.0131V65.9306H150.011C149.762 71.6306 145.045 76.1802 139.251 76.1802C133.298 76.1802 128.477 71.3822 128.477 65.4599C128.477 59.5377 133.298 54.7397 139.251 54.7397C141.747 54.7397 144.046 55.5895 145.872 57.0014V45.0131H150.024ZM145.872 65.473C145.872 61.8386 142.903 58.884 139.251 58.884C135.598 58.884 132.629 61.8386 132.629 65.473C132.629 69.1074 135.598 72.062 139.251 72.062C142.903 72.049 145.872 69.1074 145.872 65.473Z" fill="white"/>
<path d="M16.3416 45.0131H30.0449C36.4826 45.0131 39.7015 52.7526 35.1556 57.289L16.5781 75.7618C16.3678 75.971 16 75.8272 16 75.5265V45.3399C16 45.1569 16.1576 45.0131 16.3416 45.0131ZM53.8515 75.5265V45.353C53.8515 45.0523 53.4836 44.8954 53.2734 45.1177L34.6958 63.5904C30.1499 68.1138 33.3688 75.8664 39.8066 75.8664H53.5099C53.6938 75.8664 53.8515 75.7095 53.8515 75.5265Z" fill="white"/>
</g>
<path d="M8 0.5H180C184.142 0.5 187.5 3.85786 187.5 8V114C187.5 118.142 184.142 121.5 180 121.5H8C3.85786 121.5 0.5 118.142 0.5 114V8C0.5 3.85786 3.85786 0.5 8 0.5Z" stroke="#495057"/>
<defs>
<clipPath id="clip0_47_4271">
<path d="M0 8C0 3.58172 3.58172 0 8 0H180C184.418 0 188 3.58172 188 8V114C188 118.418 184.418 122 180 122H8C3.58172 122 0 118.418 0 114V8Z" fill="white"/>
</clipPath>
</defs>
</svg>
