<svg width="188" height="122" viewBox="0 0 188 122" fill="none" xmlns="http://www.w3.org/2000/svg">
<g clip-path="url(#clip0_47_4250)">
<path d="M184 0.25H4C1.92893 0.25 0.25 1.92893 0.25 4V118C0.25 120.071 1.92893 121.75 4 121.75H184C186.071 121.75 187.75 120.071 187.75 118V4C187.75 1.92893 186.071 0.25 184 0.25Z" fill="black"/>
<path fill-rule="evenodd" clip-rule="evenodd" d="M4 0.5C2.067 0.5 0.5 2.067 0.5 4V118C0.5 119.933 2.067 121.5 4 121.5H184C185.933 121.5 187.5 119.933 187.5 118V4C187.5 2.067 185.933 0.5 184 0.5H4ZM0 4C0 1.79086 1.79086 0 4 0H184C186.209 0 188 1.79086 188 4V118C188 120.209 186.209 122 184 122H4C1.79086 122 0 120.209 0 118V4Z" fill="#495057"/>
<path fill-rule="evenodd" clip-rule="evenodd" d="M128.059 94.1248L127.998 93.1191L125.74 93.103L125.719 101.52L127.99 101.566C128.215 99.4888 127.213 95.1851 129.639 95.0094C131.091 94.9042 131.316 96.0649 131.315 97.3904C131.314 98.6102 131.204 100.421 131.349 101.57L133.56 101.573C133.82 99.6089 132.804 95.1741 135.17 95.0102C137.809 94.8275 136.561 99.666 136.87 101.575L139.078 101.57C139.257 99.9209 139.313 95.3772 138.562 94.2356C138.03 93.4264 137.17 92.8965 135.879 92.9431C134.476 92.9938 133.865 93.7824 133.093 94.2699C132.726 93.6221 131.875 92.9605 130.709 92.9402C129.362 92.9168 128.748 93.5776 128.059 94.1248Z" fill="white"/>
<path fill-rule="evenodd" clip-rule="evenodd" d="M80.8882 98.1147C80.0049 100.871 75.6581 99.7616 76.7198 96.4918C77.6398 93.6583 81.8367 95.1546 80.8882 98.1147ZM80.8717 93.9935C80.3461 93.7245 78.7544 92.0604 76.4376 93.4227C72.6455 95.6527 73.9246 102.249 78.9549 101.647C80.0519 101.516 80.3372 101.049 80.9722 100.655L80.9895 101.522L83.1571 101.551L83.1545 88.779L80.9205 88.7743L80.8717 93.9935Z" fill="white"/>
<path fill-rule="evenodd" clip-rule="evenodd" d="M67.0149 96.4476C67.171 94.5057 70.4163 94.4161 70.6233 96.446L67.0149 96.4476ZM72.5536 100.161C72.2453 99.7874 71.5245 99.0373 71.1257 98.8136C70.3438 99.2452 70.2462 99.864 68.7159 99.6902C67.8324 99.59 67.1293 98.8962 66.98 98.0716L72.8667 98.0695C74.0385 92.9615 66.7667 90.9056 64.8886 95.4935C64.1396 97.3231 64.5394 99.9139 66.5802 101.098C68.586 102.261 71.5098 101.619 72.5536 100.161Z" fill="white"/>
<path fill-rule="evenodd" clip-rule="evenodd" d="M118.034 96.4476C118.114 94.513 121.418 94.3799 121.631 96.443L118.034 96.4476ZM123.519 100.161C123.306 99.7796 122.482 99.0854 122.129 98.7724C121.642 99.2988 120.946 99.7708 119.87 99.7037C118.895 99.6428 118.163 98.9586 117.991 98.0717C119.58 98.0717 121.179 98.055 122.767 98.0737C123.938 98.0873 123.994 98.2783 123.941 97.031C123.78 93.2926 119.827 91.8668 117.072 93.866C115.363 95.1065 114.935 98.9369 116.746 100.52C119 102.49 122.64 101.679 123.519 100.161Z" fill="white"/>
<path fill-rule="evenodd" clip-rule="evenodd" d="M94.0605 105L96.2826 104.993C96.8794 104.068 98.1301 100.337 98.5787 99.0854C98.9321 98.0998 100.807 93.7917 100.812 93.0987L98.5695 93.0969C98.2762 93.5498 97.8068 95.0868 97.5824 95.6847C97.3905 96.1969 96.9199 98.0205 96.5234 98.1951C95.7548 96.7839 95.232 94.403 94.4494 93.0987L92.2124 93.093C92.23 93.6877 94.1937 97.9158 94.5796 98.8507C94.7924 99.3662 94.9466 99.7796 95.1794 100.303C95.851 101.813 94.6595 102.305 94.0605 105Z" fill="white"/>
<path fill-rule="evenodd" clip-rule="evenodd" d="M57.066 100.314C56.8923 99.9888 55.969 99.2206 55.5982 98.8761C54.8988 99.1795 54.3032 100.084 52.7987 99.5827C52.0162 99.3222 51.2912 98.4102 51.2856 97.3933C51.2709 94.8183 54.3346 94.2853 55.4523 95.8416C55.8759 95.6517 56.802 94.862 57.0376 94.5056C54.3414 91.7514 49.1482 92.7127 49.0032 97.152C48.8585 101.591 53.6386 103.104 57.066 100.314Z" fill="white"/>
<path fill-rule="evenodd" clip-rule="evenodd" d="M85.8012 98.9418C85.5514 99.5219 85.0377 99.9558 84.8584 100.522C86.3782 102.099 90.4805 102.171 91.3229 100.144C91.9668 98.5938 91.2156 97.5274 90.1632 97.009C88.5407 96.2096 87.2669 96.1974 87.3659 95.0792C88.6285 94.3814 89.2549 95.1232 90.1436 95.5745C90.4947 95.3011 91.0511 94.5099 91.2261 94.0222C90.3865 93.1116 88.2923 92.6398 86.8699 93.1602C85.4875 93.666 84.5101 95.2918 85.5012 96.857C86.3911 98.2626 88.6166 98.1931 89.1283 98.8995C89.7167 99.7117 88.5082 99.9908 87.7499 99.8852C86.7337 99.7436 86.4666 99.2911 85.8012 98.9418Z" fill="white"/>
<path fill-rule="evenodd" clip-rule="evenodd" d="M102.542 98.9753L101.428 100.512C103.086 101.908 107.093 102.393 107.99 100.069C108.589 98.5191 107.825 97.5532 106.87 97.0325C105.881 96.4925 103.911 96.0789 103.988 95.3461C104.581 94.0179 106.247 95.3181 106.875 95.5715C107.177 95.2082 107.733 94.4248 107.864 94.0221C105.108 91.4457 100.28 93.8415 102.094 96.7602C103.039 98.2821 105.051 98.1169 105.734 98.7816C106.561 99.588 105.292 99.9965 104.478 99.8959C103.427 99.7659 103.265 99.2817 102.542 98.9753Z" fill="white"/>
<path fill-rule="evenodd" clip-rule="evenodd" d="M110.174 90.307L110.137 93.0843L109.214 93.1006L109.162 94.9559L110.136 94.9798C110.176 96.3891 109.913 99.4643 110.466 100.541C111.25 102.066 113.205 101.813 114.805 101.22L114.251 99.4444C113.652 99.5874 112.525 100.164 112.438 98.7077L112.441 95.0128L114.722 94.9653L114.755 93.1305L112.491 93.1081L112.429 90.1212L110.174 90.307Z" fill="white"/>
<path fill-rule="evenodd" clip-rule="evenodd" d="M61.0211 94.2665L60.9686 93.1079L58.7657 93.0914L58.7053 101.567L60.9539 101.563C61.1933 99.7486 60.405 96.8122 61.8096 95.7825C62.3372 95.3958 62.9836 95.4528 63.7257 95.41L63.7549 92.9715C62.3358 92.8334 61.598 93.7189 61.0211 94.2665Z" fill="white"/>
<path fill-rule="evenodd" clip-rule="evenodd" d="M94.0895 67.0212C93.7674 53.7319 95.421 57.2778 90.5875 56.1393C80.568 53.7796 75.2617 40.9421 83.872 31.7459C86.1258 29.3385 89.4336 27.8202 94.0553 27.5259L94.0771 17.0813C84.9673 16.1219 74.6529 23.8136 71.3353 31.5917C66.7731 42.2877 69.3123 52.1141 76.3576 59.7919C79.4222 63.1312 87.0358 67.4684 94.0895 67.0212Z" fill="white"/>
<mask id="mask0_47_4250" style="mask-type:luminance" maskUnits="userSpaceOnUse" x="94" y="27" width="26" height="51">
<path fill-rule="evenodd" clip-rule="evenodd" d="M94.187 77.5687C94.5092 64.2792 92.8556 67.8251 97.689 66.6866C107.708 64.3269 113.014 51.4894 104.404 42.2934C102.15 39.8861 98.8429 38.3676 94.2212 38.0736L94.1997 27.6286C103.309 26.6696 113.624 34.361 116.941 42.1391C121.504 52.8351 118.964 62.6615 111.919 70.3393C108.854 73.6787 101.24 78.0159 94.187 77.5687Z" fill="white"/>
</mask>
<g mask="url(#mask0_47_4250)">
<path d="M94.187 77.5687C94.5092 64.2792 92.8556 67.8251 97.689 66.6866C107.708 64.3269 113.014 51.4894 104.404 42.2934C102.15 39.8861 98.8429 38.3676 94.2212 38.0736L94.1997 27.6286C103.309 26.6696 113.624 34.361 116.941 42.1391C121.504 52.8351 118.964 62.6615 111.919 70.3393C108.854 73.6787 101.24 78.0159 94.187 77.5687Z" fill="url(#paint0_linear_47_4250)"/>
</g>
</g>
<path d="M8 0.5H180C184.142 0.5 187.5 3.85786 187.5 8V114C187.5 118.142 184.142 121.5 180 121.5H8C3.85786 121.5 0.5 118.142 0.5 114V8C0.5 3.85786 3.85786 0.5 8 0.5Z" stroke="#495057"/>
<defs>
<linearGradient id="paint0_linear_47_4250" x1="103.33" y1="75.697" x2="110.065" y2="26.4459" gradientUnits="userSpaceOnUse">
<stop stop-color="#FF2E95"/>
<stop offset="0.507813" stop-color="#3A33FF"/>
<stop offset="1" stop-color="#00FAFF"/>
</linearGradient>
<clipPath id="clip0_47_4250">
<path d="M0 8C0 3.58172 3.58172 0 8 0H180C184.418 0 188 3.58172 188 8V114C188 118.418 184.418 122 180 122H8C3.58172 122 0 118.418 0 114V8Z" fill="white"/>
</clipPath>
</defs>
</svg>
