<svg width="188" height="122" viewBox="0 0 188 122" fill="none" xmlns="http://www.w3.org/2000/svg">
<g clip-path="url(#clip0_47_4278)">
<path d="M184 0.25H4C1.92893 0.25 0.25 1.92893 0.25 4V118C0.25 120.071 1.92893 121.75 4 121.75H184C186.071 121.75 187.75 120.071 187.75 118V4C187.75 1.92893 186.071 0.25 184 0.25Z" fill="#004C97"/>
<path d="M184 0.25H4C1.92893 0.25 0.25 1.92893 0.25 4V118C0.25 120.071 1.92893 121.75 4 121.75H184C186.071 121.75 187.75 120.071 187.75 118V4C187.75 1.92893 186.071 0.25 184 0.25Z" stroke="#495057" stroke-width="0.5"/>
<path d="M38.0222 85.9984C38.0222 88.0145 39.4523 88.2475 40.7238 88.2475C46.3353 88.2475 48.1756 83.9854 48.1756 80.0862C48.1756 75.1969 45.0607 71.6652 40.0486 71.6652C38.9833 71.6652 38.4925 71.7402 38.0222 71.7687V85.9984ZM35.4788 73.7282C35.4788 71.3759 34.2569 71.5308 33.0908 71.5043V70.8285C34.1014 70.8756 35.1404 70.8756 36.1542 70.8756C37.2442 70.8756 38.7255 70.8285 40.6479 70.8285C47.3711 70.8285 51.0338 75.3503 51.0338 79.9832C51.0338 82.5729 49.5293 89.086 40.3358 89.086C39.0143 89.086 37.7893 89.0356 36.5705 89.0356C35.4012 89.0356 34.2569 89.0626 33.0908 89.086V88.4037C34.6449 88.2476 35.4012 88.1957 35.4788 86.4177V73.7282Z" fill="#FEFEFE"/>
<path d="M54.7249 73.1035C54.0465 73.1035 53.4502 72.4743 53.4502 71.7957C53.4502 71.1405 54.0732 70.5367 54.7249 70.5367C55.3975 70.5367 55.9984 71.0873 55.9984 71.7957C55.9984 72.5013 55.4254 73.1035 54.7249 73.1035ZM51.9441 88.4046H52.4381C53.1645 88.4046 53.6832 88.4046 53.6832 87.538V80.4529C53.6832 79.3018 53.2964 79.144 52.3321 78.6243V78.2053C53.5545 77.8362 55.0078 77.3435 55.1133 77.2606C55.2952 77.1588 55.4486 77.1322 55.5809 77.1322C55.7094 77.1322 55.7607 77.2872 55.7607 77.4969V87.538C55.7607 88.4046 56.3352 88.4046 57.0585 88.4046H57.5012V89.0864C56.6178 89.0864 55.7094 89.0348 54.7749 89.0348C53.8399 89.0348 52.9052 89.0615 51.9441 89.0864V88.4046Z" fill="#FEFEFE"/>
<path d="M59.9689 80.6083C59.9689 79.6435 59.6832 79.3806 58.4643 78.8863V78.3861C59.5792 78.0202 60.6426 77.6773 61.8913 77.1313C61.9688 77.1313 62.0447 77.1833 62.0447 77.3895V79.0945C63.5276 78.0202 64.8012 77.1313 66.5417 77.1313C68.7479 77.1313 69.5275 78.7519 69.5275 80.7931V87.5388C69.5275 88.4054 70.1005 88.4054 70.8254 88.4054H71.2929V89.0856C70.3815 89.0856 69.4732 89.0356 68.5413 89.0356C67.6051 89.0356 66.6704 89.0622 65.7357 89.0856V88.4054H66.203C66.9314 88.4054 67.4469 88.4054 67.4469 87.5388V80.7681C67.4469 79.2744 66.5417 78.5438 65.0589 78.5438C64.2281 78.5438 62.9051 79.2228 62.0447 79.7997V87.5388C62.0447 88.4054 62.6209 88.4054 63.3474 88.4054H63.8149V89.0856C62.9051 89.0856 61.9936 89.0356 61.0574 89.0356C60.1255 89.0356 59.1897 89.0622 58.2546 89.0856V88.4054H58.7253C59.4502 88.4054 59.9689 88.4054 59.9689 87.5388V80.6083Z" fill="#FEFEFE"/>
<path d="M77.8662 81.0277C78.5119 81.0277 78.588 80.6887 78.588 80.3756C78.588 79.0385 77.7839 77.967 76.3306 77.967C74.7481 77.967 73.6569 79.1431 73.3448 81.0277H77.8662ZM73.2684 81.8677C73.2142 82.1024 73.2142 82.4936 73.2684 83.3831C73.4208 85.8702 75.0075 87.9098 77.0834 87.9098C78.5119 87.9098 79.6332 87.1229 80.591 86.1565L80.9547 86.5224C79.7591 88.118 78.2809 89.4768 76.1519 89.4768C72.0202 89.4768 71.1909 85.4496 71.1909 83.776C71.1909 78.6489 74.6179 77.1318 76.4329 77.1318C78.5383 77.1318 80.8008 78.4645 80.824 81.2358C80.824 81.3972 80.824 81.5518 80.8008 81.71L80.563 81.8677H73.2684Z" fill="#FEFEFE"/>
<path d="M81.4209 88.4046H82.1242C82.8506 88.4046 83.3665 88.4046 83.3665 87.538V80.1901C83.3665 79.3818 82.4083 79.2237 82.0187 79.0123V78.6246C83.9123 77.8112 84.9549 77.1325 85.1891 77.1325C85.3429 77.1325 85.4205 77.2075 85.4205 77.4719V79.8242H85.4763C86.1221 78.8058 87.2138 77.1325 88.7978 77.1325C89.4468 77.1325 90.276 77.5738 90.276 78.5169C90.276 79.2237 89.7867 79.8539 89.0571 79.8539C88.2496 79.8539 88.2496 79.2236 87.3429 79.2236C86.9017 79.2236 85.4469 79.8242 85.4469 81.3975V87.538C85.4469 88.4046 85.9655 88.4046 86.6924 88.4046H88.1468V89.0868C86.7188 89.0618 85.6301 89.0348 84.5137 89.0348C83.4468 89.0348 82.3571 89.0618 81.4209 89.0868V88.4046Z" fill="#FEFEFE"/>
<path d="M91.418 85.4502C91.758 87.1753 92.7969 88.6421 94.693 88.6421C96.2235 88.6421 96.7921 87.6993 96.7921 86.7841C96.7921 83.6984 91.1354 84.6882 91.1354 80.4794C91.1354 79.0124 92.3046 77.1322 95.1616 77.1322C95.9908 77.1322 97.1074 77.3668 98.12 77.8894L98.3029 80.5576H97.7067C97.4473 78.9109 96.5355 77.9659 94.8744 77.9659C93.8343 77.9659 92.8497 78.5696 92.8497 79.6942C92.8497 82.7569 98.8728 81.8134 98.8728 85.9207C98.8728 87.6458 97.4969 89.4773 94.4085 89.4773C93.3652 89.4773 92.1464 89.113 91.2377 88.5909L90.9524 85.5813L91.418 85.4502Z" fill="#FEFEFE"/>
<path d="M122.322 75.5604H121.674C121.181 72.5013 119.025 71.272 116.119 71.272C113.13 71.272 108.79 73.2846 108.79 79.5598C108.79 84.848 112.538 88.642 116.532 88.642C119.104 88.642 121.234 86.8641 121.754 84.1157L122.35 84.2707L121.754 88.0917C120.662 88.7736 117.725 89.4773 116.01 89.4773C109.935 89.4773 106.095 85.5282 106.095 79.6427C106.095 74.2796 110.844 70.4333 115.936 70.4333C118.04 70.4333 120.063 71.1138 122.063 71.819L122.322 75.5604Z" fill="#FEFEFE"/>
<path d="M123.257 88.4045H123.753C124.481 88.4045 125.001 88.4045 125.001 87.5379V72.9754C125.001 71.272 124.611 71.2188 123.624 70.9327V70.5133C124.661 70.1727 125.753 69.7054 126.299 69.387C126.583 69.2308 126.792 69.0976 126.869 69.0976C127.027 69.0976 127.077 69.2558 127.077 69.4667V87.5379C127.077 88.4045 127.65 88.4045 128.377 88.4045H128.817V89.0868C127.939 89.0868 127.027 89.0348 126.089 89.0348C125.157 89.0348 124.223 89.0618 123.257 89.0868V88.4045Z" fill="#FEFEFE"/>
<path d="M139.935 87.6455C139.935 88.1196 140.217 88.1429 140.661 88.1429C140.97 88.1429 141.363 88.1196 141.702 88.1196V88.6698C140.58 88.7733 138.454 89.3223 137.957 89.4785L137.829 89.4003V87.2843C136.274 88.5651 135.075 89.4785 133.229 89.4785C131.828 89.4785 130.376 88.5651 130.376 86.3694V79.6704C130.376 78.9882 130.271 78.3329 128.821 78.2049V77.7074C129.756 77.6792 131.828 77.5259 132.168 77.5259C132.457 77.5259 132.457 77.7074 132.457 78.2829V85.0303C132.457 85.814 132.457 88.0645 134.715 88.0645C135.594 88.0645 136.764 87.3826 137.855 86.474V79.431C137.855 78.9101 136.609 78.6239 135.675 78.3599V77.8889C138.012 77.7308 139.469 77.5259 139.727 77.5259C139.935 77.5259 139.935 77.7074 139.935 77.9968V87.6455Z" fill="#FEFEFE"/>
<path d="M145.1 86.1296C145.1 87.1241 146.035 88.7978 147.777 88.7978C150.558 88.7978 151.726 86.0495 151.726 83.7205C151.726 80.8978 149.596 78.5438 147.571 78.5438C146.605 78.5438 145.802 79.1725 145.1 79.7763V86.1296ZM145.1 79.0128C146.138 78.1259 147.545 77.133 148.972 77.133C151.984 77.133 153.801 79.7762 153.801 82.6244C153.801 86.0495 151.309 89.478 147.592 89.478C145.671 89.478 144.661 88.8509 143.983 88.5648L143.205 89.1637L142.662 88.8775C142.89 87.3355 143.022 85.8152 143.022 84.2212V72.9754C143.022 71.2724 142.635 71.2177 141.647 70.9315V70.5125C142.689 70.1728 143.776 69.7054 144.322 69.3863C144.606 69.2313 144.815 69.0985 144.895 69.0985C145.05 69.0985 145.1 69.2563 145.1 69.4676V79.0128Z" fill="#FEFEFE"/>
<path d="M33.0615 104.294H33.259C33.7667 104.294 34.3055 104.227 34.3055 103.484V96.0283C34.3055 95.2854 33.7667 95.218 33.259 95.218H33.0615V94.7848C33.6144 94.7848 34.4609 94.8442 35.1547 94.8442C35.8611 94.8442 36.7076 94.7848 37.3707 94.7848V95.218H37.1732C36.6655 95.218 36.1268 95.2854 36.1268 96.0283V103.484C36.1268 104.227 36.6655 104.294 37.1732 104.294H37.3707V104.724C36.6934 104.724 35.8442 104.668 35.1394 104.668C34.4452 104.668 33.6144 104.724 33.0615 104.724V104.294Z" fill="#FEFEFE"/>
<path d="M37.31 104.663L37.3117 104.359H37.175C36.6705 104.359 36.0681 104.271 36.0649 103.484V96.0276C36.0681 95.2411 36.6705 95.1534 37.175 95.1534H37.31V94.8518C36.658 94.8518 35.8398 94.9066 35.1551 94.9066C34.4844 94.9066 33.6706 94.8531 33.124 94.8518V95.1534H33.2589C33.7623 95.1534 34.3644 95.2411 34.3644 96.0276V103.484C34.3644 104.271 33.7623 104.359 33.2589 104.359H33.124V104.663C33.6706 104.655 34.4702 104.605 35.1397 104.605C35.8272 104.605 36.6458 104.658 37.31 104.663ZM37.3706 104.785C36.689 104.785 35.8413 104.729 35.1397 104.729C34.447 104.729 33.6163 104.785 33.0618 104.785H33V104.236H33.2589C33.7718 104.223 34.2389 104.181 34.2421 103.484V96.0276C34.2389 95.3319 33.7718 95.2848 33.2589 95.2755H33V94.7281H33.0618C33.6163 94.7281 34.4624 94.7828 35.1551 94.7828C35.8583 94.7828 36.7032 94.7281 37.3706 94.7281H37.4328V95.2755H37.175C36.661 95.2848 36.1909 95.3319 36.1892 96.0276V103.484C36.1909 104.181 36.661 104.223 37.175 104.236H37.4328V104.785H37.3706Z" fill="#FEFEFE"/>
<path d="M47.0801 101.919L47.108 101.891V96.5532C47.108 95.3866 46.3021 95.2173 45.8766 95.2173H45.5677V94.786C46.2304 94.786 46.883 94.8438 47.5461 94.8438C48.1234 94.8438 48.7059 94.786 49.2819 94.786V95.2173H49.0738C48.4776 95.2173 47.8114 95.3287 47.8114 97.0226V103.501C47.8114 103.998 47.8283 104.495 47.8983 104.937H47.3611L40.0834 96.7676V102.629C40.0834 103.871 40.3227 104.294 41.4112 104.294H41.6501V104.724C41.0448 104.724 40.436 104.667 39.8273 104.667C39.1952 104.667 38.5431 104.724 37.908 104.724V104.294H38.1051C39.0803 104.294 39.3787 103.629 39.3787 102.489V96.4953C39.3787 95.6977 38.7249 95.2173 38.0914 95.2173H37.908V94.786C38.4423 94.786 38.9949 94.8438 39.5304 94.8438C39.9559 94.8438 40.3676 94.786 40.7898 94.786L47.0801 101.919Z" fill="#FEFEFE"/>
<path d="M47.0462 101.89V101.886L47.0335 101.877L47.0462 101.89ZM47.3598 104.875H47.8288C47.7651 104.448 47.7541 103.972 47.7541 103.501V97.0217C47.7541 95.3136 48.4641 95.1543 49.0724 95.1543H49.2216V94.8506C48.6639 94.8538 48.1067 94.9069 47.5463 94.9069C46.899 94.9069 46.2682 94.8538 45.6287 94.8506V95.1543H45.8754C46.3118 95.1543 47.1673 95.3481 47.1673 96.554L47.15 101.935L47.1209 101.961L47.0725 102.006L40.7904 94.8506C40.3694 94.8506 39.9597 94.9069 39.5311 94.9069C39.014 94.9069 38.4812 94.8538 37.9691 94.8506L37.9676 95.1543H38.0916C38.7547 95.1543 39.4378 95.664 39.4378 96.4961V102.489C39.4378 103.63 39.1226 104.355 38.1058 104.36L37.9691 104.355V104.663C38.5807 104.656 39.2096 104.604 39.8275 104.604C40.4194 104.604 41.0061 104.656 41.5881 104.663V104.36H41.4099C40.2981 104.355 40.0215 103.871 40.0215 102.63V96.6071L47.3598 104.875ZM47.8969 105L47.315 104.978L40.1427 96.9278V102.63C40.1611 103.871 40.3477 104.221 41.4099 104.236H41.7141V104.784H41.6503C41.0404 104.784 40.4316 104.729 39.8275 104.729C39.197 104.729 38.5481 104.784 37.9054 104.784H37.8433V104.236H38.1058C39.0404 104.229 39.306 103.625 39.3182 102.489V96.4961C39.315 95.7389 38.6972 95.2775 38.0916 95.276H37.8433V94.7273H37.9054C38.4469 94.7273 38.9983 94.7837 39.5311 94.7837C39.9503 94.7837 40.3603 94.7273 40.8369 94.7491L47.0462 101.789V96.554C47.0386 95.4214 46.2902 95.2855 45.8754 95.276H45.5027V94.7273H45.5664C46.2326 94.7273 46.8848 94.7837 47.5463 94.7837C48.1193 94.7837 48.6998 94.7273 49.2822 94.7273H49.3456V95.276H49.0724C48.4873 95.2934 47.8911 95.3466 47.8737 97.0217V103.501C47.8737 103.996 47.8879 104.493 47.956 104.928L47.9686 105H47.8969Z" fill="#FEFEFE"/>
<path d="M51.398 95.4987C50.3375 95.4987 50.2985 95.7552 50.0845 96.7935H49.6621C49.7197 96.3967 49.7877 95.9974 49.833 95.5831C49.8873 95.186 49.9164 94.7856 49.9164 94.3758H50.2569C50.3702 94.8026 50.7223 94.7856 51.1045 94.7856H58.3959C58.7765 94.7856 59.1307 94.7729 59.1602 94.3459L59.4955 94.4055C59.4439 94.7856 59.3865 95.1717 59.3432 95.5566C59.3137 95.9395 59.3137 96.3261 59.3137 96.7094L58.8914 96.8688C58.8635 96.34 58.7903 95.4987 57.8446 95.4987H55.5283V103.072C55.5283 104.171 56.0237 104.295 56.7006 104.295H56.9674V104.723C56.418 104.723 55.4271 104.667 54.6648 104.667C53.8187 104.667 52.8266 104.723 52.2753 104.723V104.295H52.5441C53.3233 104.295 53.716 104.226 53.716 103.103V95.4987H51.398Z" fill="#FEFEFE"/>
<path d="M56.9708 104.784C56.4131 104.784 55.4242 104.728 54.665 104.728C53.8189 104.728 52.8327 104.784 52.2755 104.784H52.2164V104.235H52.5455C53.325 104.217 53.6387 104.207 53.6541 103.103V95.5594H51.3979V95.4389H53.7784V103.103C53.7784 104.243 53.322 104.361 52.5455 104.361H52.3373V104.661C52.8965 104.656 53.8449 104.605 54.665 104.605C55.4025 104.605 56.3467 104.656 56.9054 104.661V104.361H56.7005C56.0173 104.361 55.4647 104.193 55.4647 103.072V95.4389H57.8449C58.7936 95.4404 58.9181 96.2508 58.9476 96.7796L59.2565 96.6653C59.2565 96.2964 59.258 95.9241 59.2812 95.5467C59.3214 95.184 59.3745 94.8197 59.4272 94.4553L59.2128 94.4193C59.1432 94.8323 58.7469 94.8558 58.3946 94.851H51.0316C50.6978 94.851 50.3374 94.834 50.2117 94.4379H49.9756C49.9756 94.8323 49.9477 95.2122 49.8918 95.5939C49.8513 95.9836 49.7895 96.3602 49.7363 96.7323H50.0378C50.2259 95.7442 50.3452 95.4219 51.3979 95.4389V95.5594C50.3546 95.5812 50.3778 95.7565 50.1448 96.8093L50.1374 96.8576H49.5908L49.5998 96.7843C49.6545 96.3871 49.7289 95.9879 49.7722 95.5736C49.8281 95.1796 49.856 94.7837 49.856 94.3753V94.3131H50.305L50.3141 94.3582C50.4121 94.7182 50.6714 94.7198 51.0316 94.7273H58.3946C58.7858 94.7198 59.0746 94.7134 59.0979 94.3408L59.1025 94.2755L59.1664 94.2881L59.5638 94.3503L59.5576 94.4114C59.5017 94.7947 59.4458 95.1796 59.4052 95.5594C59.3761 95.9412 59.3761 96.3261 59.3761 96.709V96.7526L59.3356 96.77L58.8342 96.9547L58.8326 96.8684C58.7936 96.3352 58.7377 95.5594 57.8449 95.5594H55.589V103.072C55.6029 104.146 56.0267 104.221 56.7005 104.235H57.0282V104.784H56.9708Z" fill="#FEFEFE"/>
<path d="M59.9495 104.294H60.1466C60.6543 104.294 61.1915 104.227 61.1915 103.484V96.0283C61.1915 95.2854 60.6543 95.218 60.1466 95.218H59.9495V94.7848C60.8081 94.7848 62.2832 94.8442 63.4665 94.8442C64.6558 94.8442 66.1233 94.7848 67.0812 94.7848C67.0579 95.3992 67.0717 96.3411 67.1138 96.9666L66.6869 97.0808C66.62 96.1564 66.4491 95.4166 64.9647 95.4166H63.0053V99.1422H64.6822C65.5314 99.1422 65.7164 98.6621 65.7986 97.8927H66.2209C66.1945 98.4476 66.1792 99.0014 66.1792 99.5568C66.1792 100.099 66.1945 100.639 66.2209 101.178L65.7986 101.265C65.7164 100.411 65.6727 99.8557 64.6964 99.8557H63.0053V103.171C63.0053 104.097 63.8219 104.097 64.7239 104.097C66.4228 104.097 67.1697 103.983 67.5936 102.361L67.9879 102.461C67.8048 103.218 67.6353 103.967 67.5081 104.724C66.6061 104.724 64.9789 104.668 63.707 104.668C62.4339 104.668 60.7539 104.724 59.9495 104.724V104.294Z" fill="#FEFEFE"/>
<path d="M67.4571 104.661C67.578 103.943 67.7397 103.223 67.9152 102.507L67.6354 102.436C67.2116 104.03 66.3934 104.171 64.724 104.159C63.833 104.159 62.9432 104.159 62.9386 103.172V99.7946H64.6964C65.6839 99.7824 65.7815 100.385 65.8516 101.195L66.1576 101.131C66.1325 100.607 66.1187 100.078 66.1187 99.5572C66.1187 99.0237 66.1325 98.4905 66.1576 97.9506H65.8516C65.774 98.6954 65.5457 99.2143 64.6808 99.2052H62.9386V95.3513H64.9648C66.4355 95.3434 66.6807 96.1084 66.7412 96.9996L67.0455 96.9167C67.0223 96.5147 67.0085 96.0033 67.0085 95.5281C67.0085 95.2795 67.0129 95.0524 67.0191 94.851C66.0597 94.8538 64.628 94.9073 63.4667 94.9073C62.3066 94.9073 60.8752 94.8538 60.0102 94.851V95.1543H60.1468C60.6513 95.1543 61.2522 95.2419 61.2557 96.0268V103.484C61.2522 104.269 60.6513 104.354 60.1468 104.36H60.0102V104.661C60.8315 104.657 62.4666 104.604 63.7072 104.604C64.9538 104.604 66.5441 104.657 67.4571 104.661ZM67.5083 104.784C66.6017 104.784 64.9775 104.726 63.7072 104.726C62.4341 104.726 60.7571 104.784 59.9496 104.784H59.8875V104.237H60.1468C60.6576 104.227 61.1251 104.181 61.1299 103.484V96.0268C61.1251 95.3342 60.6576 95.287 60.1468 95.2748H59.8875V94.7273H59.9496C60.8099 94.7273 62.2834 94.7837 63.4667 94.7837C64.6528 94.7837 66.1203 94.7273 67.0813 94.7273H67.1451V94.7899C67.1325 95.004 67.1277 95.2561 67.1277 95.5281C67.1277 96.0177 67.1451 96.5556 67.1714 96.9608V97.0123L67.1262 97.0265L66.6295 97.1578L66.6279 97.0828C66.5441 96.1615 66.423 95.4889 64.9648 95.4766H63.0614V99.0799H64.6808C65.4973 99.0735 65.6406 98.653 65.7366 97.8851L65.7429 97.8304H66.2863V97.8927C66.2569 98.448 66.2399 99.0018 66.2399 99.5572C66.2399 100.095 66.2569 100.636 66.2863 101.179V101.228L66.2352 101.24L65.7429 101.337L65.7366 101.271C65.6406 100.403 65.6358 99.9278 64.6964 99.9167L63.0614 99.9136V103.172C63.0629 104.037 63.802 104.032 64.724 104.037C66.4276 104.027 67.1077 103.943 67.5331 102.344L67.5472 102.286L67.6078 102.299L68.0597 102.416L68.047 102.476C67.8641 103.226 67.6961 103.982 67.5689 104.732L67.5594 104.784H67.5083Z" fill="#FEFEFE"/>
<path d="M71.7061 99.5981H72.396C73.8104 99.5981 74.5726 99.0602 74.5726 97.3789C74.5726 96.1148 73.7667 95.3001 72.5093 95.3001C72.0819 95.3001 71.9017 95.3454 71.7061 95.358V99.5981ZM69.897 96.2964C69.897 95.2561 69.3319 95.2169 68.8942 95.2169H68.6365V94.7856C69.0883 94.7856 69.9654 94.8434 70.829 94.8434C71.6734 94.8434 72.3535 94.7856 73.1052 94.7856C74.8816 94.7856 76.464 95.2704 76.464 97.2941C76.464 98.5738 75.6191 99.3555 74.503 99.8014L76.9205 103.441C77.3149 104.045 77.5942 104.212 78.2884 104.295V104.723C77.8225 104.723 77.3708 104.667 76.9047 104.667C76.464 104.667 76.0134 104.723 75.5758 104.723C74.4888 103.288 73.5541 101.749 72.6364 100.109H71.7061V103.156C71.7061 104.256 72.2122 104.295 72.8616 104.295H73.1194V104.723C72.3102 104.723 71.492 104.667 70.686 104.667C70.0091 104.667 69.3445 104.723 68.6365 104.723V104.295H68.8942C69.413 104.295 69.897 104.056 69.897 103.527V96.2964Z" fill="#FEFEFE"/>
<path d="M72.3964 99.5375C73.7938 99.5235 74.5002 99.0355 74.5125 97.3805C74.5066 96.1389 73.7379 95.3675 72.5082 95.3601C72.1261 95.3601 71.9474 95.3945 71.7671 95.4148V99.5375H72.3964ZM72.3964 99.6579H71.6431V95.299L71.6959 95.2942C71.8899 95.2787 72.0792 95.2411 72.5082 95.2411C73.7938 95.2411 74.6321 96.0839 74.6353 97.3805C74.6306 99.0791 73.8202 99.6579 72.3964 99.6579ZM71.6431 100.049H72.6696L72.6865 100.08C73.6058 101.718 74.5361 103.254 75.5762 104.663C76.0079 104.663 76.4629 104.605 76.9008 104.605C77.3527 104.605 77.7891 104.653 78.2283 104.66V104.347C77.5635 104.267 77.2546 104.067 76.8697 103.477L74.4086 99.7705L74.4798 99.7408C75.5856 99.3031 76.4038 98.5428 76.4053 97.2913C76.4038 95.3192 74.8792 94.8578 73.106 94.8518C72.359 94.8518 71.677 94.9066 70.8293 94.9066C69.9954 94.9066 69.16 94.8531 68.6976 94.8518V95.1551H68.8931C69.3312 95.1551 69.9537 95.2269 69.9537 96.2968V103.527C69.9537 104.1 69.4255 104.359 68.8931 104.359H68.6976V104.66C69.3791 104.658 70.0202 104.605 70.6833 104.605C71.4751 104.605 72.2721 104.658 73.0544 104.66V104.359H72.862C72.2174 104.359 71.6431 104.28 71.6431 103.157V100.049ZM78.2889 104.784C77.8154 104.784 77.3664 104.729 76.9008 104.729C76.4719 104.729 76.019 104.784 75.525 104.763C74.4444 103.329 73.5157 101.801 72.6015 100.172H71.7671V103.157C71.7813 104.228 72.2083 104.219 72.862 104.236H73.1788V104.784H73.115C72.3059 104.784 71.4846 104.729 70.6833 104.729C70.008 104.729 69.3464 104.784 68.6353 104.784H68.5779V104.236H68.8931C69.4023 104.231 69.8278 104.008 69.8325 103.527V96.2968C69.8235 95.2878 69.3312 95.2895 68.8931 95.2755H68.5779V94.7281H68.6353C69.0966 94.7281 69.9675 94.7828 70.8293 94.7828C71.6711 94.7828 72.3512 94.7281 73.106 94.7281C74.8836 94.7281 76.525 95.2269 76.5294 97.2913C76.5294 98.5773 75.6848 99.3796 74.5962 99.8268L76.9689 103.407C77.3637 103.998 77.6088 104.147 78.2967 104.236L78.3478 104.241V104.784H78.2889Z" fill="#FEFEFE"/>
<path d="M87.8817 101.919L87.9081 101.891V96.5532C87.9081 95.3866 87.1037 95.2173 86.6815 95.2173H86.3693V94.786C87.0356 94.786 87.6815 94.8438 88.3493 94.8438C88.9297 94.8438 89.5074 94.786 90.0883 94.786V95.2173H89.8786C89.284 95.2173 88.6177 95.3287 88.6177 97.0226V103.501C88.6177 103.998 88.6303 104.495 88.6999 104.937H88.1659L80.8882 96.7676V102.629C80.8882 103.871 81.129 104.294 82.2175 104.294H82.4595V104.724C81.8496 104.724 81.2408 104.667 80.6335 104.667C79.9972 104.667 79.3479 104.724 78.7126 104.724V104.294H78.9067C79.8851 104.294 80.1801 103.629 80.1801 102.489V96.4953C80.1801 95.6977 79.5296 95.2173 78.8961 95.2173H78.7126V94.786C79.2471 94.786 79.8028 94.8438 80.3373 94.8438C80.7595 94.8438 81.1695 94.786 81.5934 94.786L87.8817 101.919Z" fill="#FEFEFE"/>
<path d="M87.8479 101.89V101.886L87.8401 101.877L87.8479 101.89ZM88.1663 104.875H88.6276C88.5685 104.449 88.5559 103.972 88.5559 103.501V97.0217C88.5559 95.3136 89.2718 95.1575 89.8774 95.1543H90.0246V94.8506C89.4689 94.8538 88.9097 94.9069 88.3493 94.9069C87.7019 94.9069 87.0683 94.8538 86.432 94.8506V95.1543H86.6818C87.1164 95.1575 87.9738 95.3481 87.9738 96.554L87.9534 101.935L87.927 101.961L87.8822 102.009L81.5934 94.8506C81.1743 94.8506 80.761 94.9069 80.3373 94.9069C79.8126 94.9069 79.2846 94.8538 78.7721 94.8506V95.1543H78.8949C79.5596 95.1575 80.2413 95.6609 80.2413 96.4961V102.488C80.2413 103.63 79.9197 104.355 78.9059 104.36H78.7721V104.661C79.3841 104.656 80.013 104.604 80.634 104.604C81.2239 104.604 81.8111 104.656 82.3962 104.661V104.36H82.218C81.1042 104.36 80.8264 103.872 80.8232 102.63V96.6071L88.1663 104.875ZM88.7004 105L88.1195 104.978L80.9492 96.9278V102.63C80.9661 103.872 81.1526 104.221 82.218 104.236H82.5175V104.784H82.4568C81.8449 104.784 81.2381 104.726 80.634 104.726C80.002 104.726 79.3467 104.784 78.7131 104.784H78.6462V104.236H78.9059C79.839 104.232 80.109 103.625 80.1185 102.488V96.4961C80.1153 95.7358 79.5022 95.2775 78.8949 95.276H78.6462V94.7273H78.7131C79.2507 94.7273 79.8048 94.7837 80.3373 94.7837C80.7536 94.7837 81.1617 94.7273 81.6356 94.7444L87.8479 101.789V96.554C87.8463 95.4214 87.0915 95.2823 86.6818 95.276H86.3075V94.7273H86.3698C87.0388 94.7273 87.6893 94.7837 88.3493 94.7837C88.9238 94.7837 89.5047 94.7273 90.0868 94.7273H90.1474V95.276H89.8774C89.295 95.2902 88.694 95.3466 88.6787 97.0217V103.501C88.6787 103.996 88.6909 104.489 88.7625 104.928L88.7688 105H88.7004Z" fill="#FEFEFE"/>
<path d="M94.4245 96.3816H94.3965L93.0813 100.411H95.7224L94.4245 96.3816ZM92.3639 102.688C92.2194 103.171 92.0472 103.545 92.0472 103.797C92.0472 104.226 92.6449 104.294 93.1092 104.294H93.2659V104.723C92.6977 104.695 92.1203 104.668 91.5532 104.668C91.0439 104.668 90.5379 104.695 90.0303 104.723V104.294H90.1124C90.6635 104.294 91.1325 103.967 91.3391 103.37L93.6027 96.8402C93.7862 96.3115 94.0439 95.6014 94.1262 95.0711C94.5784 94.9164 95.1446 94.633 95.4135 94.4609C95.4567 94.4455 95.4787 94.4344 95.5253 94.4344C95.5658 94.4344 95.5952 94.4344 95.6247 94.4753C95.6665 94.5894 95.7086 94.7175 95.7534 94.8317L98.3512 102.277C98.5204 102.774 98.6913 103.303 98.873 103.73C99.0434 104.127 99.3418 104.294 99.8077 104.294H99.89V104.723C99.2564 104.695 98.6196 104.668 97.9431 104.668C97.2521 104.668 96.5441 104.695 95.8251 104.723V104.294H95.9802C96.3032 104.294 96.8546 104.241 96.8546 103.884C96.8546 103.699 96.7286 103.314 96.5685 102.859L96.0191 101.207H92.8113L92.3639 102.688Z" fill="#FEFEFE"/>
<path d="M93.1633 100.35H95.6366L94.4069 96.5338L93.1633 100.35ZM92.994 100.474L94.3478 96.3214H94.4659L95.8075 100.474H92.994ZM95.8834 104.656C96.5808 104.634 97.2687 104.605 97.9428 104.605C98.6007 104.605 99.2143 104.634 99.8289 104.656V104.361H99.8074C99.3256 104.365 98.9935 104.17 98.8165 103.754C98.6331 103.322 98.461 102.793 98.295 102.296L95.6941 94.851C95.6504 94.7369 95.6071 94.6084 95.5729 94.507C95.5591 94.4926 95.5638 94.4926 95.5513 94.4926H95.5249C95.4969 94.4926 95.48 94.5006 95.4442 94.5117C95.1711 94.6881 94.6024 94.9699 94.1833 95.081C94.0979 95.6221 93.8433 96.3304 93.6587 96.8576L91.3994 103.392C91.1833 104.01 90.6883 104.361 90.1121 104.361H90.0901V104.656C90.5733 104.634 91.0641 104.605 91.5544 104.605C92.1011 104.605 92.6583 104.634 93.1987 104.656V104.361H93.1089C92.6478 104.354 92.0047 104.304 91.9893 103.799C91.9893 103.516 92.1602 103.15 92.3014 102.671L92.364 102.688L92.3014 102.67L92.7674 101.148H96.0589L96.6257 102.839C96.7857 103.297 96.9144 103.676 96.9144 103.885C96.8928 104.321 96.2981 104.353 95.9798 104.361H95.8834V104.656ZM99.8865 104.784C99.2548 104.758 98.6192 104.726 97.9428 104.726C97.2518 104.726 96.5481 104.758 95.8248 104.784L95.7609 104.789V104.231H95.9798C96.3041 104.231 96.7889 104.159 96.7889 103.885C96.7921 103.722 96.6693 103.331 96.5127 102.88L95.9755 101.27H92.8575L92.4163 102.706C92.2718 103.194 92.1058 103.569 92.1058 103.799C92.1106 104.146 92.6398 104.231 93.1089 104.231H93.3246V104.789L93.2609 104.784C92.6957 104.758 92.1165 104.726 91.5544 104.726C91.0468 104.726 90.5376 104.758 90.0315 104.784L89.9692 104.789V104.231H90.1121C90.6387 104.231 91.0763 103.927 91.2797 103.35L93.5438 96.8184C93.73 96.29 93.983 95.5812 94.1058 95.0151C94.5485 94.8605 95.1148 94.574 95.3895 94.4023C95.43 94.3881 95.4674 94.3678 95.5249 94.3678C95.5591 94.3662 95.6366 94.3769 95.6788 94.4538C95.722 94.5696 95.7653 94.696 95.8075 94.8105L98.4114 102.257C98.5775 102.754 98.7467 103.28 98.9298 103.699C99.0927 104.081 99.354 104.231 99.8074 104.231H99.9534V104.789L99.8865 104.784Z" fill="#FEFEFE"/>
<path d="M100.515 95.4987C99.4525 95.4987 99.4124 95.7552 99.1998 96.7935H98.7744C98.8315 96.3967 98.9031 95.9974 98.9448 95.5831C99.0022 95.186 99.0302 94.7856 99.0302 94.3758H99.369C99.4823 94.8026 99.8361 94.7856 100.217 94.7856H107.508C107.889 94.7856 108.24 94.7729 108.269 94.3459L108.609 94.4055C108.555 94.7856 108.501 95.1717 108.454 95.5566C108.42 95.9395 108.42 96.3261 108.42 96.7094L108 96.8688C107.977 96.34 107.902 95.4987 106.957 95.4987H104.639V103.072C104.639 104.171 105.134 104.295 105.812 104.295H106.08V104.723C105.531 104.723 104.541 104.667 103.777 104.667C102.93 104.667 101.939 104.723 101.386 104.723V104.295H101.656C102.437 104.295 102.833 104.226 102.833 103.103V95.4987H100.515Z" fill="#FEFEFE"/>
<path d="M106.079 104.784C105.527 104.784 104.538 104.728 103.778 104.728C102.933 104.728 101.945 104.784 101.387 104.784H101.327V104.235H101.657C102.436 104.217 102.747 104.207 102.767 103.103V95.5594H100.514V95.4389H102.889V103.103C102.889 104.243 102.435 104.354 101.657 104.361H101.448V104.662C102.007 104.656 102.956 104.605 103.778 104.605C104.515 104.605 105.461 104.656 106.02 104.662L106.016 104.361H105.81C105.13 104.354 104.581 104.193 104.579 103.072V95.4389H106.956C107.908 95.4404 108.029 96.2508 108.057 96.7796L108.364 96.6653C108.364 96.2964 108.364 95.9241 108.394 95.5503C108.433 95.184 108.488 94.8197 108.538 94.4582L108.327 94.4193C108.259 94.8323 107.863 94.8558 107.507 94.851H100.144C99.8104 94.8526 99.4519 94.834 99.3225 94.4332H99.0914C99.0867 94.8323 99.062 95.2122 99.0044 95.5939C98.9655 95.9863 98.897 96.3602 98.8447 96.7323H99.1489C99.3355 95.7442 99.4547 95.4187 100.514 95.4389V95.5594C99.4641 95.5784 99.4889 95.7565 99.2591 96.8093L99.2481 96.8576H98.7014L98.7109 96.7843C98.7683 96.3871 98.84 95.988 98.8816 95.5784C98.9392 95.1796 98.9655 94.7837 98.9655 94.3753V94.3131H99.4129L99.4251 94.3582C99.5247 94.7182 99.7853 94.7198 100.144 94.7273H107.507C107.899 94.7198 108.185 94.7134 108.209 94.3408L108.21 94.2755L108.279 94.2881L108.681 94.3503L108.668 94.4114C108.608 94.7947 108.557 95.1796 108.516 95.5594C108.488 95.9412 108.488 96.3261 108.488 96.709V96.7526L108.445 96.77L107.944 96.9547V96.8684C107.908 96.3352 107.85 95.5594 106.956 95.5594H104.699V103.072C104.714 104.146 105.137 104.221 105.81 104.235H106.14V104.784H106.079Z" fill="#FEFEFE"/>
<path d="M109.13 104.294H109.326C109.839 104.294 110.373 104.227 110.373 103.484V96.0283C110.373 95.2854 109.839 95.218 109.326 95.218H109.13V94.7848C109.682 94.7848 110.527 94.8442 111.22 94.8442C111.927 94.8442 112.774 94.7848 113.441 94.7848V95.218H113.244C112.732 95.218 112.193 95.2854 112.193 96.0283V103.484C112.193 104.227 112.732 104.294 113.244 104.294H113.441V104.724C112.761 104.724 111.914 104.668 111.208 104.668C110.513 104.668 109.682 104.724 109.13 104.724V104.294Z" fill="#FEFEFE"/>
<path d="M113.376 104.661V104.36H113.245C112.737 104.36 112.136 104.269 112.136 103.484V96.0268C112.136 95.2419 112.737 95.1543 113.245 95.1543H113.376V94.851C112.725 94.8538 111.909 94.9073 111.22 94.9073C110.548 94.9073 109.739 94.8538 109.192 94.851V95.1543H109.327C109.829 95.1543 110.434 95.2419 110.434 96.0268V103.484C110.434 104.269 109.829 104.36 109.327 104.36H109.192V104.661C109.739 104.653 110.535 104.604 111.208 104.604C111.894 104.604 112.712 104.656 113.376 104.661ZM113.441 104.784C112.758 104.784 111.912 104.726 111.208 104.726C110.517 104.726 109.681 104.784 109.13 104.784H109.071V104.237H109.327C109.839 104.227 110.307 104.181 110.308 103.484V96.0268C110.307 95.3342 109.839 95.2855 109.327 95.2748H109.071V94.7273H109.13C109.681 94.7273 110.531 94.7837 111.22 94.7837C111.927 94.7837 112.772 94.7273 113.441 94.7273H113.499V95.2748H113.245C112.727 95.2855 112.262 95.3342 112.257 96.0268V103.484C112.262 104.181 112.727 104.227 113.245 104.237H113.499V104.784H113.441Z" fill="#FEFEFE"/>
<path d="M119.288 104.311C122.034 104.311 122.507 101.876 122.507 99.8018C122.507 97.7202 121.396 95.2022 119.049 95.2022C116.578 95.2022 115.844 97.4213 115.844 99.3264C115.844 101.876 117.002 104.311 119.288 104.311ZM119.077 94.5746C122.088 94.5746 124.491 96.4549 124.491 99.4875C124.491 102.761 122.159 104.937 119.148 104.937C116.149 104.937 113.866 102.889 113.866 99.8256C113.866 96.8695 116.14 94.5746 119.077 94.5746Z" fill="#FEFEFE"/>
<path d="M115.778 99.3266C115.783 97.4122 116.529 95.138 119.049 95.138C121.451 95.1424 122.569 97.7092 122.57 99.8018C122.569 101.876 122.082 104.37 119.288 104.37V104.25C121.979 104.248 122.443 101.876 122.449 99.8018C122.449 97.7372 121.345 95.266 119.049 95.2628C116.625 95.266 115.907 97.4325 115.903 99.3266C115.906 101.865 117.054 104.244 119.288 104.25V104.37C116.945 104.367 115.783 101.89 115.778 99.3266ZM113.801 99.8268C113.808 96.8335 116.108 94.5168 119.077 94.5105V94.6373C116.168 94.6373 113.921 96.8989 113.921 99.8268C113.925 102.853 116.181 104.873 119.148 104.874C122.127 104.873 124.424 102.727 124.432 99.4843C124.43 96.4906 122.064 94.6405 119.077 94.6373V94.5105C122.111 94.5168 124.544 96.4156 124.549 99.4843C124.547 102.792 122.189 104.993 119.148 104.999C116.126 104.993 113.808 102.919 113.801 99.8268Z" fill="#FEFEFE"/>
<path d="M134.015 101.919L134.042 101.891V96.5532C134.042 95.3866 133.236 95.2173 132.807 95.2173H132.503V94.786C133.164 94.786 133.817 94.8438 134.479 94.8438C135.063 94.8438 135.641 94.786 136.217 94.786V95.2173H136.006C135.411 95.2173 134.745 95.3287 134.745 97.0226V103.501C134.745 103.998 134.763 104.495 134.833 104.937H134.294L127.017 96.7676V102.629C127.017 103.871 127.256 104.294 128.347 104.294H128.586V104.724C127.979 104.724 127.374 104.667 126.763 104.667C126.128 104.667 125.476 104.724 124.84 104.724V104.294H125.04C126.018 104.294 126.308 103.629 126.308 102.489V96.4953C126.308 95.6977 125.663 95.2173 125.022 95.2173H124.84V94.786C125.379 94.786 125.928 94.8438 126.467 94.8438C126.889 94.8438 127.299 94.786 127.723 94.786L134.015 101.919Z" fill="#FEFEFE"/>
<path d="M133.978 101.89V101.886L133.965 101.877L133.978 101.89ZM134.293 104.875H134.761C134.698 104.448 134.686 103.972 134.686 103.501V97.0217C134.686 95.312 135.4 95.1575 136.006 95.1543H136.158V94.8506C135.597 94.8538 135.04 94.9069 134.475 94.9069C133.835 94.9069 133.203 94.8538 132.562 94.8506V95.1543H132.807C133.249 95.1575 134.101 95.3513 134.101 96.554L134.084 101.935L134.059 101.961L134.014 102.009L127.722 94.8506C127.306 94.8506 126.893 94.9069 126.467 94.9069C125.944 94.9069 125.412 94.8538 124.901 94.8506V95.1543H125.022C125.689 95.1575 126.371 95.6609 126.371 96.4961V102.489C126.371 103.63 126.056 104.355 125.039 104.36H124.901V104.661C125.515 104.656 126.141 104.604 126.764 104.604C127.355 104.604 127.941 104.656 128.524 104.661V104.36H128.342C127.233 104.36 126.957 103.872 126.957 102.63V96.6071L134.293 104.875ZM134.832 105L134.247 104.978L127.076 96.9278V102.63C127.093 103.872 127.281 104.219 128.342 104.232H128.649V104.784H128.587C127.975 104.784 127.368 104.729 126.764 104.729C126.13 104.729 125.482 104.784 124.839 104.784H124.782V104.232H125.039C125.971 104.229 126.239 103.625 126.246 102.489V96.4961C126.246 95.7358 125.632 95.2775 125.022 95.276H124.782V94.7273H124.839C125.381 94.7273 125.933 94.7837 126.467 94.7837C126.885 94.7837 127.291 94.7273 127.771 94.7491L133.978 101.789V96.554C133.975 95.4214 133.225 95.2855 132.807 95.276H132.44V94.7273H132.502C133.166 94.7273 133.821 94.7837 134.475 94.7837C135.057 94.7837 135.63 94.7273 136.217 94.7273H136.278V95.276H136.006C135.425 95.2934 134.822 95.3466 134.809 97.0217V103.501C134.809 103.996 134.822 104.493 134.887 104.928L134.901 105H134.832Z" fill="#FEFEFE"/>
<path d="M140.552 96.3816H140.525L139.209 100.411H141.857L140.552 96.3816ZM138.488 102.688C138.35 103.171 138.18 103.545 138.18 103.797C138.18 104.226 138.777 104.294 139.237 104.294H139.395V104.723C138.829 104.695 138.251 104.668 137.684 104.668C137.17 104.668 136.666 104.695 136.162 104.723V104.294H136.239C136.793 104.294 137.262 103.967 137.472 103.37L139.735 96.8402C139.919 96.3115 140.172 95.6014 140.256 95.0711C140.707 94.9164 141.273 94.633 141.542 94.4609C141.585 94.4455 141.614 94.4344 141.657 94.4344C141.697 94.4344 141.723 94.4344 141.754 94.4753C141.798 94.5894 141.838 94.7175 141.884 94.8317L144.482 102.277C144.649 102.774 144.823 103.303 145.005 103.73C145.173 104.127 145.473 104.294 145.939 104.294H146.022V104.723C145.388 104.695 144.749 104.668 144.072 104.668C143.38 104.668 142.671 104.695 141.952 104.723V104.294H142.108C142.431 104.294 142.985 104.241 142.985 103.884C142.985 103.699 142.856 103.314 142.7 102.859L142.152 101.207H138.946L138.488 102.688Z" fill="#FEFEFE"/>
<path d="M139.296 100.347H141.769L140.537 96.537L139.296 100.347ZM139.124 100.469L140.486 96.3213H140.599L141.934 100.469H139.124ZM142.013 104.658C142.711 104.634 143.4 104.605 144.073 104.605C144.729 104.605 145.344 104.634 145.958 104.656V104.361H145.937C145.459 104.361 145.124 104.17 144.948 103.754C144.759 103.322 144.591 102.793 144.424 102.296L141.825 94.8511C141.783 94.7369 141.737 94.6085 141.703 94.5117C141.692 94.4927 141.692 94.4927 141.682 94.4927H141.657C141.627 94.4927 141.611 94.5006 141.574 94.5117C141.3 94.6853 140.737 94.9716 140.313 95.081C140.23 95.6221 139.971 96.3304 139.792 96.8577L137.527 103.392C137.311 104.01 136.822 104.361 136.241 104.361H136.217V104.656C136.706 104.634 137.194 104.605 137.685 104.605C138.233 104.605 138.789 104.634 139.336 104.656V104.361H139.237C138.78 104.354 138.134 104.304 138.118 103.797C138.12 103.516 138.296 103.152 138.435 102.672L138.488 102.688L138.435 102.67L138.897 101.148H142.195L142.759 102.839C142.918 103.297 143.043 103.676 143.043 103.885C143.023 104.321 142.43 104.353 142.105 104.361H142.013V104.658ZM146.02 104.784C145.383 104.759 144.745 104.728 144.073 104.728C143.383 104.728 142.675 104.759 141.955 104.784L141.892 104.789V104.237H142.105C142.433 104.237 142.922 104.159 142.925 103.885C142.926 103.722 142.801 103.333 142.64 102.88L142.103 101.27H138.984L138.55 102.706C138.408 103.195 138.237 103.569 138.242 103.797C138.242 104.146 138.771 104.237 139.237 104.237H139.454V104.789L139.39 104.784C138.827 104.759 138.247 104.728 137.685 104.728C137.176 104.728 136.671 104.759 136.162 104.784L136.099 104.789V104.237H136.241C136.767 104.231 137.21 103.926 137.414 103.35L139.677 96.8185C139.856 96.29 140.112 95.5813 140.234 95.0152C140.68 94.8606 141.248 94.574 141.519 94.4023C141.557 94.388 141.6 94.371 141.657 94.371C141.692 94.3662 141.767 94.377 141.812 94.4554C141.852 94.568 141.894 94.6961 141.939 94.8106L144.54 102.257C144.708 102.754 144.879 103.28 145.063 103.702C145.229 104.081 145.482 104.231 145.937 104.237H146.081V104.789L146.02 104.784Z" fill="#FEFEFE"/>
<path d="M149.585 103.329C149.585 103.898 149.978 104.069 150.429 104.127C151.008 104.17 151.644 104.17 152.298 104.098C152.887 104.03 153.4 103.685 153.651 103.329C153.877 103.014 154.002 102.619 154.09 102.303H154.501C154.343 103.115 154.146 103.914 153.974 104.724C152.732 104.724 151.487 104.668 150.248 104.668C149.003 104.668 147.758 104.724 146.515 104.724V104.294H146.709C147.223 104.294 147.774 104.227 147.774 103.341V96.0275C147.774 95.2846 147.223 95.2177 146.709 95.2177H146.515V94.786C147.263 94.786 148 94.8438 148.747 94.8438C149.469 94.8438 150.175 94.786 150.897 94.786V95.2177H150.542C150.005 95.2177 149.585 95.2316 149.585 95.9871V103.329Z" fill="#FEFEFE"/>
<path d="M153.927 104.661C154.09 103.89 154.276 103.132 154.424 102.363H154.134C154.048 102.677 153.922 103.057 153.698 103.366C153.437 103.736 152.911 104.083 152.299 104.159C151.927 104.199 151.561 104.217 151.217 104.217C150.943 104.217 150.674 104.204 150.42 104.187C149.963 104.135 149.515 103.938 149.52 103.329V95.9863C149.52 95.1931 150.016 95.1543 150.543 95.1543H150.834V94.851C150.138 94.8538 149.449 94.9073 148.747 94.9073C148.013 94.9073 147.297 94.8538 146.575 94.851V95.1543H146.71C147.216 95.1543 147.833 95.2419 147.833 96.0251V103.341C147.833 104.262 147.218 104.36 146.71 104.36H146.575V104.661C147.794 104.657 149.019 104.604 150.249 104.604C151.476 104.604 152.7 104.657 153.927 104.661ZM153.975 104.784C152.73 104.784 151.488 104.728 150.249 104.728C149.004 104.728 147.758 104.784 146.512 104.784H146.456V104.237H146.71C147.223 104.224 147.711 104.186 147.714 103.341V96.0251C147.711 95.3342 147.228 95.2855 146.71 95.2748H146.456V94.7273H146.512C147.267 94.7273 148.001 94.7837 148.747 94.7837C149.467 94.7837 150.172 94.7273 150.898 94.7273H150.954V95.2748H150.543C149.993 95.2902 149.652 95.2652 149.639 95.9863V103.329C149.645 103.86 149.99 104.001 150.435 104.066C150.68 104.083 150.945 104.093 151.217 104.093C151.561 104.093 151.92 104.076 152.289 104.037C152.864 103.968 153.357 103.635 153.602 103.295C153.82 102.989 153.945 102.599 154.026 102.288L154.042 102.239H154.575L154.56 102.318C154.402 103.129 154.209 103.926 154.037 104.739L154.022 104.784H153.975Z" fill="#FEFEFE"/>
<path d="M154.092 95.8869H154.264C154.457 95.8869 154.546 95.7413 154.546 95.5051C154.546 95.2657 154.404 95.1828 154.254 95.1828H154.092V95.8869ZM153.588 96.6781V96.6032C153.768 96.5782 153.804 96.5862 153.804 96.4685V95.3613C153.804 95.2031 153.787 95.1499 153.593 95.1595V95.0814H154.357C154.614 95.0814 154.856 95.2094 154.856 95.4801C154.856 95.7053 154.712 95.8666 154.506 95.9321L154.747 96.2777C154.865 96.4295 154.993 96.5782 155.078 96.6297V96.6781H154.789C154.65 96.6781 154.53 96.3808 154.254 95.9883H154.092V96.4842C154.092 96.5861 154.125 96.5782 154.305 96.6032V96.6781H153.588ZM154.327 97.1019C154.993 97.1019 155.504 96.5326 155.504 95.8869C155.504 95.2407 155.002 94.6635 154.327 94.6635C153.656 94.6635 153.147 95.2407 153.147 95.8869C153.147 96.5326 153.656 97.1019 154.327 97.1019ZM154.327 94.3853C155.178 94.3853 155.814 95.0452 155.814 95.8869C155.814 96.728 155.178 97.3802 154.327 97.3802C153.478 97.3802 152.838 96.728 152.838 95.8869C152.838 95.0452 153.478 94.3853 154.327 94.3853Z" fill="#FEFEFE"/>
<mask id="mask0_47_4278" style="mask-type:luminance" maskUnits="userSpaceOnUse" x="64" y="17" width="59" height="50">
<path d="M64.6919 17H122.579V66.7296H64.6919V17Z" fill="white"/>
</mask>
<g mask="url(#mask0_47_4278)">
<path fill-rule="evenodd" clip-rule="evenodd" d="M89.9276 66.7299C76.0852 66.793 64.6919 55.6492 64.6919 42.0811C64.6919 27.2529 76.0852 16.9963 89.9276 16.999H96.4161C110.094 16.9963 122.579 27.2474 122.579 42.0811C122.579 55.6423 110.094 66.7299 96.4161 66.7299H89.9276Z" fill="#FEFEFE" fill-opacity="0.937255"/>
</g>
<mask id="mask1_47_4278" style="mask-type:luminance" maskUnits="userSpaceOnUse" x="64" y="17" width="52" height="50">
<path d="M64.6919 17H115.942V66.7296H64.6919V17Z" fill="white"/>
</mask>
<g mask="url(#mask1_47_4278)">
<path fill-rule="evenodd" clip-rule="evenodd" d="M89.9276 66.7299C76.0852 66.793 64.6919 55.6492 64.6919 42.0811C64.6919 27.2529 76.0852 16.9963 89.9276 16.999H90.291C103.967 16.9963 115.942 27.2474 115.942 42.0811C115.942 55.6423 103.967 66.7299 90.291 66.7299H89.9276Z" fill="#FEFEFE" fill-opacity="0.937255"/>
</g>
<path fill-rule="evenodd" clip-rule="evenodd" d="M89.9839 19.0562C77.3345 19.0603 67.0847 29.2483 67.0847 41.8209C67.0847 54.3908 77.3345 64.5775 89.9839 64.5789C102.635 64.5789 112.886 54.3908 112.89 41.8209C112.886 29.247 102.633 19.0589 89.9839 19.0562Z" fill="#004C97"/>
<path fill-rule="evenodd" clip-rule="evenodd" d="M84.7841 55.2806V28.3556C79.3405 30.4399 75.4805 35.6751 75.4668 41.8209C75.4805 47.9639 79.3418 53.2019 84.7841 55.2806ZM104.503 41.8209C104.493 35.6724 100.627 30.4303 95.1779 28.3529V55.2875C100.627 53.2074 104.494 47.9707 104.503 41.8209Z" fill="#FEFEFE" fill-opacity="0.937255"/>
</g>
<path d="M8 0.5H180C184.142 0.5 187.5 3.85786 187.5 8V114C187.5 118.142 184.142 121.5 180 121.5H8C3.85786 121.5 0.5 118.142 0.5 114V8C0.5 3.85786 3.85786 0.5 8 0.5Z" stroke="#495057"/>
<defs>
<clipPath id="clip0_47_4278">
<path d="M0 8C0 3.58172 3.58172 0 8 0H180C184.418 0 188 3.58172 188 8V114C188 118.418 184.418 122 180 122H8C3.58172 122 0 118.418 0 114V8Z" fill="white"/>
</clipPath>
</defs>
</svg>
