<svg width="188" height="122" viewBox="0 0 188 122" fill="none" xmlns="http://www.w3.org/2000/svg">
<g clip-path="url(#clip0_47_4333)">
<path d="M184 0.25H4C1.92893 0.25 0.25 1.92893 0.25 4V118C0.25 120.071 1.92893 121.75 4 121.75H184C186.071 121.75 187.75 120.071 187.75 118V4C187.75 1.92893 186.071 0.25 184 0.25Z" fill="url(#paint0_linear_47_4333)"/>
<path d="M184 0.25H4C1.92893 0.25 0.25 1.92893 0.25 4V118C0.25 120.071 1.92893 121.75 4 121.75H184C186.071 121.75 187.75 120.071 187.75 118V4C187.75 1.92893 186.071 0.25 184 0.25Z" stroke="#495057" stroke-width="0.5"/>
<path d="M2.71143 22.7311C2.71143 11.6854 11.6658 2.73111 22.7114 2.73111H118.885C151.066 2.73111 177.154 28.8189 177.154 60.9998C177.154 93.1807 151.066 119.268 118.885 119.268H22.7114C11.6657 119.268 2.71143 110.314 2.71143 99.2684V22.7311Z" fill="white"/>
<path d="M59.5144 61.074C59.5144 68.2385 65.1004 73.7925 72.2853 73.7925C74.318 73.7925 76.0556 73.3889 78.2017 72.373V66.7777C76.3155 68.6776 74.6444 69.4454 72.5042 69.4454C67.7508 69.4454 64.3772 65.9744 64.3772 61.0386C64.3772 56.3607 67.8602 52.6692 72.2853 52.6692C74.5369 52.6692 76.2413 53.4764 78.2017 55.4098V49.8164C76.1318 48.7591 74.4275 48.3201 72.3967 48.3201C65.247 48.3201 59.5144 53.9883 59.5144 61.074Z" fill="#251F1F"/>
<path d="M47.4018 55.1558C47.4018 56.471 48.2345 57.1679 51.0666 58.2232C56.4357 60.2019 58.0267 61.9541 58.0267 65.8267C58.0267 70.544 54.5847 73.828 49.6808 73.828C46.0903 73.828 43.4791 72.4045 41.3037 69.1895L44.3527 66.2323C45.4395 68.3488 47.2533 69.4828 49.5029 69.4828C51.6099 69.4828 53.1677 68.02 53.1677 66.0453C53.1677 65.0215 52.6947 64.1414 51.7526 63.5232C51.2777 63.2299 50.3375 62.7908 48.4905 62.1352C44.0576 60.5287 42.537 58.8099 42.537 55.4511C42.537 51.4623 45.803 48.4678 50.0834 48.4678C52.7358 48.4678 55.1633 49.3813 57.194 51.1709L54.7235 54.4273C53.4941 53.0393 52.3331 52.4526 50.918 52.4526C48.8834 52.4526 47.4018 53.6201 47.4018 55.1558Z" fill="#251F1F"/>
<path fill-rule="evenodd" clip-rule="evenodd" d="M19.6475 48.8714H12.7188V73.2433H19.6104C23.2732 73.2433 25.9216 72.3731 28.2437 70.4299C31.0035 68.1283 32.6354 64.6593 32.6354 61.0741C32.6354 53.882 27.2996 48.8714 19.6475 48.8714ZM25.1593 67.1813C23.6758 68.528 21.7506 69.1167 18.7016 69.1167H17.435V53.002H18.7016C21.7506 53.002 23.5996 53.5493 25.1593 54.9727C26.7933 56.4356 27.7725 58.7036 27.7725 61.0386C27.7725 63.3776 26.7933 65.7185 25.1593 67.1813Z" fill="#251F1F"/>
<path d="M39.5273 48.8714H34.8071V73.2433H39.5273V48.8714Z" fill="#251F1F"/>
<path d="M109.169 48.8714L115.623 65.2401L122.159 48.8714H127.274L116.821 73.8694H114.282L104.015 48.8714H109.169Z" fill="#251F1F"/>
<path d="M129.408 73.2433H142.793V69.1167H134.125V62.5389H142.472V58.4103H134.125V53.002H142.793V48.8714H129.408V73.2433Z" fill="#251F1F"/>
<path fill-rule="evenodd" clip-rule="evenodd" d="M152.916 48.8714C158.359 48.8714 161.482 51.5037 161.482 56.0654C161.482 59.7983 159.522 62.2475 155.967 62.976L163.583 73.2433H157.78L151.248 63.4524H150.631V73.2433H145.918V48.8714H152.916ZM150.631 60.0916H152.013C155.026 60.0916 156.623 58.7725 156.623 56.3233C156.623 53.9509 155.026 52.7086 152.085 52.7086H150.631V60.0916Z" fill="#251F1F"/>
<path fill-rule="evenodd" clip-rule="evenodd" d="M165.243 50.1492C165.243 49.72 164.948 49.4857 164.434 49.4857H163.75V51.6356H164.258V50.8028L164.854 51.6356H165.477L164.776 50.7497C165.075 50.667 165.243 50.4465 165.243 50.1492ZM164.344 50.4425H164.258V49.8795H164.35C164.602 49.8795 164.733 49.972 164.733 50.1571C164.733 50.3461 164.6 50.4425 164.344 50.4425Z" fill="#251F1F"/>
<path fill-rule="evenodd" clip-rule="evenodd" d="M162.677 50.5566C162.677 49.5151 163.501 48.6823 164.535 48.6823C165.544 48.6823 166.373 49.5309 166.373 50.5566C166.373 51.5883 165.544 52.4309 164.535 52.4309C163.509 52.4309 162.677 51.5962 162.677 50.5566ZM163.046 50.5586C163.046 51.4131 163.712 52.0962 164.527 52.0962C165.341 52.0962 166.001 51.4052 166.001 50.5586C166.001 49.7199 165.341 49.019 164.527 49.019C163.707 49.019 163.046 49.7041 163.046 50.5586Z" fill="#251F1F"/>
<path d="M92.5065 73.9837C85.4349 73.9837 79.7004 68.2073 79.7004 61.0841V61.0666C79.7004 57.5225 81.1251 54.2978 83.4294 51.9767C83.4294 51.9587 83.4473 51.9587 83.4473 51.9413C83.4646 51.9413 83.4646 51.9233 83.4824 51.9233C85.7868 49.6021 88.9885 48.167 92.5065 48.167H92.5243C99.5958 48.167 105.33 53.9434 105.33 61.0666V61.0841C105.33 64.6282 103.905 67.8354 101.601 70.1745C101.601 70.192 101.583 70.192 101.583 70.2099C101.566 70.2099 101.566 70.2274 101.548 70.2274C99.2261 72.5485 96.0422 73.9837 92.5243 73.9837H92.5065Z" fill="url(#paint1_linear_47_4333)"/>
</g>
<path d="M8 0.5H180C184.142 0.5 187.5 3.85786 187.5 8V114C187.5 118.142 184.142 121.5 180 121.5H8C3.85786 121.5 0.5 118.142 0.5 114V8C0.5 3.85786 3.85786 0.5 8 0.5Z" stroke="#495057"/>
<defs>
<linearGradient id="paint0_linear_47_4333" x1="59.1462" y1="-1.9974e-05" x2="132.415" y2="123.091" gradientUnits="userSpaceOnUse">
<stop stop-color="#E05026"/>
<stop offset="1" stop-color="#F9A020"/>
</linearGradient>
<linearGradient id="paint1_linear_47_4333" x1="85.7985" y1="48.167" x2="106.986" y2="65.9653" gradientUnits="userSpaceOnUse">
<stop stop-color="#EF3823"/>
<stop offset="0.489583" stop-color="#F04D22"/>
<stop offset="1" stop-color="#F7911D"/>
</linearGradient>
<clipPath id="clip0_47_4333">
<path d="M0 8C0 3.58172 3.58172 0 8 0H180C184.418 0 188 3.58172 188 8V114C188 118.418 184.418 122 180 122H8C3.58172 122 0 118.418 0 114V8Z" fill="white"/>
</clipPath>
</defs>
</svg>
