<svg width="188" height="122" viewBox="0 0 188 122" fill="none" xmlns="http://www.w3.org/2000/svg">
<g clip-path="url(#clip0_47_4349)">
<path d="M184 0.25H4C1.92893 0.25 0.25 1.92893 0.25 4V118C0.25 120.071 1.92893 121.75 4 121.75H184C186.071 121.75 187.75 120.071 187.75 118V4C187.75 1.92893 186.071 0.25 184 0.25Z" fill="black"/>
<path d="M184 0.25H4C1.92893 0.25 0.25 1.92893 0.25 4V118C0.25 120.071 1.92893 121.75 4 121.75H184C186.071 121.75 187.75 120.071 187.75 118V4C187.75 1.92893 186.071 0.25 184 0.25Z" stroke="#495057" stroke-width="0.5"/>
<path d="M40.319 44.3023C42.0718 43.7127 43.9457 43.3956 45.8966 43.3956C54.403 43.3956 61.5038 49.4811 63.1323 57.5721L75.1904 55.0936C72.4214 41.3468 60.361 31 45.8966 31C42.5817 31 39.3983 31.544 36.4192 32.5464L40.319 44.3023Z" fill="#FFCB03"/>
<path d="M26.0887 83.6674L34.2426 74.381C30.6035 71.1322 28.3066 66.3921 28.3066 61.1103C28.3066 55.8331 30.6003 51.0942 34.2373 47.85L26.0816 38.5627C19.9007 44.0785 16 52.1374 16 61.1103C16 70.0896 19.9024 78.1502 26.0887 83.6674Z" fill="#00A4E0"/>
<path d="M63.1268 64.6631C61.4919 72.7486 54.3966 78.8233 45.8942 78.8233C43.9427 78.8233 42.0635 78.5066 40.3125 77.9134L36.4065 89.6729C39.3854 90.6754 42.5762 91.2176 45.8942 91.2176C60.3447 91.2176 72.4045 80.888 75.183 67.1537L63.1268 64.6631Z" fill="#EF4023"/>
<path d="M109.827 71.1087C109.824 71.1114 109.821 71.1146 109.819 71.1187L109.476 70.8855C108.489 72.4993 106.946 73.8072 105.003 74.6566C101.302 76.2771 97.8741 75.8601 95.4112 73.6853L95.1858 74.0322C95.183 74.0282 95.1821 74.0254 95.1785 74.0254L90.98 80.3522C92.0214 81.0818 93.1419 81.6999 94.3165 82.1942C98.955 84.1345 103.702 84.0456 108.377 81.9967C111.758 80.5216 114.412 78.2699 116.225 75.4169L109.827 71.1087ZM96.7201 55.4968C92.8131 57.1884 90.7984 60.8794 91.2128 65.2089L107.764 58.0341C104.918 54.6651 101.214 53.5478 96.7201 55.4968ZM85.7316 74.7718C85.3369 74.1271 84.7988 73.0965 84.4767 72.3376C82.5669 67.8726 82.475 63.2509 84.0874 58.8147C85.8603 53.95 89.2479 50.2255 93.6236 48.3284C99.1249 45.9439 105.21 46.4142 110.483 49.5654C113.834 51.5008 116.208 54.4898 118.01 58.7158C118.241 59.2575 118.443 59.8349 118.64 60.326L85.7316 74.7718Z" fill="white"/>
<path d="M130.145 39.0085V74.1871L135.576 76.4045L132.49 83.6561L126.497 81.1414C125.152 80.5546 124.235 79.6573 123.543 78.6435C122.878 77.6104 122.384 76.1921 122.384 74.2838V39.0085H130.145Z" fill="white"/>
<path d="M144.209 65.2269C144.211 62.2312 145.525 59.5462 147.603 57.7192L142.033 51.4633C138.256 54.8264 135.876 59.7423 135.871 65.2174C135.864 70.6967 138.241 75.6179 142.015 78.9896L147.579 72.7278C145.511 70.8937 144.208 68.2149 144.209 65.2269Z" fill="white"/>
<path d="M154.105 75.2091C153.008 75.2064 151.953 75.0235 150.967 74.6928L148.306 82.6608C150.125 83.2757 152.073 83.6105 154.096 83.6137C162.917 83.6223 170.282 77.3181 171.989 68.9379L163.812 67.256C162.881 71.7996 158.888 75.2128 154.105 75.2091Z" fill="white"/>
<path d="M154.131 46.8554C152.109 46.8532 150.163 47.1848 148.347 47.7938L150.983 55.7682C151.972 55.4388 153.028 55.2576 154.122 55.2576C158.918 55.2622 162.913 58.6967 163.821 63.2516L172 61.5804C170.316 53.189 162.958 46.8608 154.131 46.8554Z" fill="white"/>
</g>
<path d="M8 0.5H180C184.142 0.5 187.5 3.85786 187.5 8V114C187.5 118.142 184.142 121.5 180 121.5H8C3.85786 121.5 0.5 118.142 0.5 114V8C0.5 3.85786 3.85786 0.5 8 0.5Z" stroke="#495057"/>
<defs>
<clipPath id="clip0_47_4349">
<path d="M0 8C0 3.58172 3.58172 0 8 0H180C184.418 0 188 3.58172 188 8V114C188 118.418 184.418 122 180 122H8C3.58172 122 0 118.418 0 114V8Z" fill="white"/>
</clipPath>
</defs>
</svg>
