<svg width="188" height="122" viewBox="0 0 188 122" fill="none" xmlns="http://www.w3.org/2000/svg">
<g clip-path="url(#clip0_47_4362)">
<path d="M184 0.25H4C1.92893 0.25 0.25 1.92893 0.25 4V118C0.25 120.071 1.92893 121.75 4 121.75H184C186.071 121.75 187.75 120.071 187.75 118V4C187.75 1.92893 186.071 0.25 184 0.25Z" fill="#B3131B"/>
<path fill-rule="evenodd" clip-rule="evenodd" d="M4 0.5C2.067 0.5 0.5 2.067 0.5 4V118C0.5 119.933 2.067 121.5 4 121.5H184C185.933 121.5 187.5 119.933 187.5 118V4C187.5 2.067 185.933 0.5 184 0.5H4ZM0 4C0 1.79086 1.79086 0 4 0H184C186.209 0 188 1.79086 188 4V118C188 120.209 186.209 122 184 122H4C1.79086 122 0 120.209 0 118V4Z" fill="#495057"/>
<path d="M52.0531 85.3018H54.0749L54.132 85.1519C54.1635 85.0695 54.1891 84.8757 54.1891 84.7213C54.1891 84.5668 54.2558 84.0055 54.3372 83.4737C54.4187 82.9419 54.6099 81.7181 54.762 80.754C54.9142 79.79 55.1421 78.3404 55.2684 77.5327C55.3948 76.7249 55.5489 75.691 55.611 75.2351C55.6731 74.7791 55.7489 74.406 55.7795 74.406C55.8101 74.406 55.9408 74.6076 56.07 74.8538L56.3049 75.3015L56.8262 75.8307L57.3474 76.3599L57.9892 76.6188L58.6308 76.8775L59.3955 76.9775L60.1603 77.0773L61.1311 77.0173L62.1018 76.9574L63.1528 76.6833L64.2038 76.4093L64.768 76.1497C65.0783 76.007 65.6284 75.6958 65.9905 75.4583L66.6486 75.0263L67.2624 74.4083C67.6 74.0684 68.0761 73.5232 68.3204 73.197C68.5646 72.8707 68.7645 72.5799 68.7645 72.5508C68.7645 72.5217 68.8844 72.3197 69.0312 72.1019C69.1778 71.884 69.478 71.2795 69.6983 70.7583C69.9185 70.2372 70.2627 69.2993 70.4632 68.6739L70.8276 67.537L71.016 66.5521C71.1196 66.0106 71.2528 65.1151 71.3121 64.5625L71.4199 63.5576L71.3577 62.705L71.2955 61.8523L71.0993 60.9995L70.903 60.1469L70.5854 59.5084L70.2677 58.87L69.6542 58.2147L69.0406 57.5593L68.3148 57.1813L67.589 56.8033L66.7897 56.6106L65.9905 56.4177L65.1911 56.3586L64.3918 56.2995L63.5014 56.4026L62.6111 56.5056L61.8843 56.6926L61.1576 56.8796L60.5263 57.174C60.1791 57.3359 59.6739 57.611 59.4036 57.7852C59.1333 57.9594 58.8544 58.1598 58.7839 58.2306C58.7134 58.3013 58.5447 58.4325 58.409 58.5219L58.162 58.6845L58.3347 57.8524C58.4296 57.3947 58.5089 56.9669 58.511 56.9018L58.5147 56.7833H56.7907H55.0667L54.7644 58.702C54.5982 59.7571 54.3357 61.388 54.1811 62.326C54.0265 63.264 53.7934 64.6709 53.663 65.4526C53.5327 66.2343 53.3003 67.6199 53.1465 68.5318C52.9926 69.4437 52.7385 70.8933 52.5816 71.7532C52.4246 72.613 52.1948 73.8707 52.0708 74.5482C51.9467 75.2256 51.7133 76.5047 51.552 77.3906C51.3908 78.2764 51.1316 79.6834 50.976 80.5171C50.8205 81.3509 50.5675 82.6726 50.4137 83.4543C50.2599 84.2359 50.1108 84.9714 50.0827 85.0886L50.0312 85.3018H52.0531ZM60.7573 74.3475L59.9722 74.395L59.459 74.3038L58.9458 74.2125L58.4247 73.9727L57.9035 73.7329L57.5393 73.3826L57.1753 73.0322L56.965 72.5585C56.8495 72.298 56.701 71.8553 56.6351 71.5749L56.5153 71.0651L56.5633 70.2485L56.6113 69.4319L56.8536 68.1528C56.9869 67.4494 57.2262 66.1277 57.3853 65.2158C57.5445 64.3038 57.7855 62.9677 57.9209 62.2464L58.167 60.9351L58.7061 60.4832C59.0026 60.2347 59.4722 59.9014 59.7498 59.7428L60.2544 59.4544L60.9126 59.2491L61.5708 59.0438L62.4171 58.9938L63.2634 58.9436L63.9525 59.0917L64.6417 59.2396L65.128 59.4653L65.6143 59.691L66.0221 60.1041L66.4299 60.5171L66.65 60.9546C66.7709 61.1952 66.9409 61.6661 67.0276 62.0011L67.1852 62.6102L67.1369 64.4104L67.0886 66.2106L66.8472 67.2746C66.7143 67.8598 66.4614 68.7552 66.2852 69.2642L65.9649 70.1899L65.5726 70.9391C65.3568 71.3513 65.0239 71.9082 64.833 72.1767C64.6421 72.4453 64.3378 72.7931 64.1568 72.9498C63.9758 73.1064 63.6726 73.3512 63.483 73.4937L63.1386 73.7529L62.3405 74.0264L61.5424 74.3L60.7573 74.3475ZM80.2836 76.9521L81.3181 76.964L82.3525 76.8689C82.9214 76.8167 83.8522 76.7078 84.4212 76.6271C84.9901 76.5463 85.9728 76.3656 86.6051 76.2254L87.7547 75.9706L87.812 75.5437C87.8435 75.3088 87.9726 74.6097 88.0989 73.9901L88.3285 72.8635L88.2778 72.8125L88.2273 72.7614L87.8758 72.9325C87.6824 73.0264 87.0805 73.2509 86.5379 73.431L85.5515 73.7586L84.5162 73.9606L83.4809 74.1627L81.8353 74.1659L80.1897 74.1691L79.6255 73.9876C79.3151 73.8877 78.8587 73.7051 78.6112 73.5816L78.1612 73.3571L77.7897 73.0191L77.4183 72.681L77.1285 72.1706L76.8386 71.6603L76.657 71.02L76.4753 70.3799L76.474 69.1953L76.4727 68.0107L76.634 66.9538L76.7953 65.8971L78.2103 65.8304L79.6255 65.7639L84.8562 65.7977L90.087 65.8315L90.2449 65.1565C90.3318 64.7852 90.4646 64.0177 90.5401 63.451L90.6772 62.4206L90.6802 61.5539L90.683 60.6871L90.5341 60.0401L90.3852 59.3931L90.1389 58.9646C90.0034 58.7289 89.7647 58.3874 89.6085 58.2056C89.4523 58.0239 89.1734 57.7677 88.9885 57.6362C88.8039 57.5048 88.4411 57.2839 88.1825 57.1454L87.7123 56.8935L86.8909 56.694L86.0694 56.4945L85.0572 56.3971L84.0451 56.2995L83.1046 56.3612L82.1643 56.4229L81.0359 56.6413L79.9075 56.8596L79.2022 57.1437C78.8143 57.2999 78.222 57.5849 77.8858 57.7768C77.5497 57.9689 77.0841 58.2815 76.8515 58.4715C76.6187 58.6615 76.2157 59.0309 75.9559 59.2924C75.6962 59.5539 75.3119 60.0236 75.1021 60.3362C74.8921 60.649 74.5705 61.2032 74.3871 61.568C74.2037 61.9327 73.9649 62.4444 73.8562 62.7049C73.7475 62.9655 73.55 63.4985 73.4174 63.8893C73.2847 64.2801 73.0761 65.0262 72.9539 65.5473C72.8317 66.0684 72.6642 66.9262 72.5817 67.4535L72.4318 68.4124L72.4332 69.8222L72.4346 71.232L72.5775 71.8479C72.6561 72.1866 72.8064 72.6983 72.9115 72.9849C73.0166 73.2715 73.211 73.6978 73.3433 73.9323C73.4757 74.1668 73.7586 74.5444 73.9718 74.7714C74.185 74.9983 74.571 75.3427 74.8297 75.5367C75.0883 75.7306 75.5486 76.0034 75.8527 76.1429L76.4056 76.3964L77.1764 76.5842C77.6003 76.6875 78.2401 76.8098 78.5982 76.8561C78.9563 76.9023 79.7148 76.9456 80.2836 76.9521ZM82.0549 63.6051C79.4515 63.6051 77.3216 63.5862 77.3216 63.5633C77.3216 63.5403 77.4326 63.21 77.5685 62.8291C77.7042 62.4482 77.9427 61.8812 78.0983 61.5692L78.3812 61.0018L79.0034 60.3785L79.6255 59.7551L80.2366 59.4606C80.5729 59.2987 81.0171 59.1224 81.224 59.0687C81.4309 59.0151 82.0233 58.9441 82.5404 58.9108L83.4809 58.8502L84.2029 58.9438L84.925 59.0372L85.4499 59.2793L85.9746 59.5213L86.2625 59.834C86.4209 60.0061 86.6095 60.2595 86.6818 60.3969L86.8132 60.6471L86.9 61.2023L86.9868 61.7575L86.8875 62.6813L86.7882 63.6051H82.0549ZM110.187 76.9527L111.222 76.9642L112.397 76.8239C113.043 76.7468 113.904 76.6189 114.308 76.5398C114.714 76.4606 115.37 76.3035 115.766 76.1907C116.163 76.0778 116.522 75.9559 116.563 75.9196C116.605 75.8833 116.717 75.4533 116.812 74.964C116.907 74.4747 117.026 73.8186 117.079 73.506C117.13 73.1933 117.156 72.9207 117.137 72.9003C117.118 72.8798 117.049 72.9063 116.983 72.959C116.917 73.0118 116.455 73.2073 115.957 73.3938L115.052 73.7326L113.762 73.9843L112.473 74.236L111.377 74.1984L110.28 74.1606L109.658 73.9431L109.035 73.7254L108.554 73.3013L108.073 72.8772L107.754 72.2915L107.435 71.7059L107.283 70.9223L107.13 70.1387L107.131 69.1221L107.132 68.1055L107.317 66.8738L107.502 65.642L107.697 64.9788C107.805 64.6141 107.926 64.1878 107.968 64.0315C108.009 63.875 108.181 63.4274 108.351 63.0366C108.52 62.6458 108.823 62.0417 109.023 61.6943L109.387 61.0625L109.834 60.5959L110.281 60.1291L110.755 59.8333L111.228 59.5374L111.836 59.3487C112.171 59.2449 112.761 59.1103 113.15 59.0494L113.855 58.9386L114.889 58.991L115.923 59.0432L117.146 59.2898L118.369 59.5363L118.866 59.7231C119.139 59.8259 119.375 59.91 119.389 59.91C119.404 59.91 119.469 59.5582 119.535 59.1283C119.601 58.6984 119.717 57.9911 119.795 57.5566C119.872 57.1219 119.915 56.7478 119.894 56.7249C119.871 56.7021 119.503 56.6432 119.077 56.5943C118.65 56.5452 117.491 56.4582 116.501 56.4009L114.701 56.2967L113.431 56.3948L112.162 56.4929L111.221 56.6921L110.281 56.8911L109.676 57.1352C109.343 57.2694 108.854 57.5117 108.591 57.6735C108.328 57.8353 107.993 58.0529 107.847 58.1572C107.7 58.2614 107.256 58.668 106.861 59.0608L106.14 59.7749L105.738 60.3683C105.517 60.6948 105.135 61.3753 104.889 61.8808L104.44 62.7997L104.097 63.7945C103.908 64.3417 103.644 65.2371 103.511 65.7842L103.269 66.779L103.181 67.6791L103.093 68.5792L103.094 69.7635L103.095 70.9478L103.183 71.6368L103.272 72.3257L103.554 73.0345L103.836 73.7433L104.161 74.2556L104.486 74.768L105.003 75.281L105.52 75.7939L106.068 76.0852L106.615 76.3766L107.334 76.5779C107.73 76.6885 108.301 76.8155 108.603 76.86C108.907 76.9046 109.619 76.9463 110.189 76.9527H110.187ZM125.655 76.9177L126.925 76.881L127.724 76.6749L128.524 76.4688L129.04 76.2224C129.325 76.0869 129.791 75.8194 130.075 75.628C130.36 75.4366 130.8 75.0727 131.054 74.8193C131.307 74.566 131.683 74.1337 131.889 73.8588C132.096 73.5838 132.276 73.3714 132.291 73.3866C132.307 73.4019 132.26 73.8401 132.186 74.3603C132.113 74.8805 132.052 75.5726 132.051 75.8984L132.05 76.4905H133.775H135.501L135.555 75.1403L135.607 73.7903L135.853 72.0374C135.989 71.0733 136.207 69.6451 136.339 68.8634C136.472 68.0818 136.7 66.7601 136.849 65.9264C136.997 65.0925 137.232 63.7921 137.371 63.0366L137.623 61.6627L137.632 60.4761L137.641 59.2894L137.374 58.741L137.108 58.1926L136.747 57.8433L136.386 57.4939L135.793 57.1912L135.2 56.8885L134.317 56.6905L133.432 56.4925L132.216 56.3992L130.999 56.3059L129.432 56.4036C128.57 56.4573 127.358 56.5634 126.736 56.6394L125.608 56.7774L124.839 56.7804L124.07 56.7833L123.958 57.3282C123.896 57.6277 123.726 58.3396 123.579 58.91C123.431 59.4805 123.324 59.961 123.341 59.9778C123.357 59.9947 123.768 59.9006 124.254 59.7689C124.74 59.6371 125.773 59.4203 126.548 59.2871L127.959 59.0451L129.228 58.9925L130.498 58.9397L131.316 59.0842L132.134 59.2286L132.68 59.5L133.225 59.7714L133.53 60.2304L133.836 60.6893L133.832 61.4129L133.827 62.1364L133.665 62.9305L133.504 63.7245L130.12 63.7368L126.736 63.7491L125.629 64.0551C125.02 64.2233 124.346 64.4467 124.13 64.5515C123.915 64.6562 123.701 64.7419 123.653 64.7419C123.604 64.7419 123.242 64.9444 122.847 65.1918L122.129 65.6416L121.563 66.2104C121.252 66.5231 120.855 66.9922 120.68 67.2527C120.506 67.5132 120.222 68.0575 120.05 68.4623L119.737 69.1981L119.593 70.0255L119.45 70.8531V71.7211V72.5892L119.587 73.312L119.724 74.0347L119.978 74.5061C120.119 74.7653 120.375 75.1451 120.549 75.35L120.866 75.7226L121.428 76.0668L121.992 76.411L122.635 76.5946C122.989 76.6956 123.528 76.8178 123.832 76.8662L124.387 76.9542L125.655 76.9177ZM126.831 74.2683L126.078 74.3078L125.58 74.18C125.306 74.1097 124.891 73.9529 124.656 73.8315L124.23 73.6109L123.998 73.3325C123.87 73.1795 123.675 72.8789 123.564 72.6642L123.362 72.2743L123.323 71.3635L123.284 70.4527L123.443 69.9002C123.531 69.5963 123.737 69.0691 123.9 68.7285L124.198 68.1093L124.768 67.5389L125.338 66.9685L125.943 66.6748L126.548 66.3811L127.301 66.2011L128.054 66.0211H130.404H132.755L132.904 66.083L133.053 66.145L132.927 66.8883C132.858 67.2972 132.694 68.0368 132.562 68.5318C132.431 69.0269 132.198 69.7546 132.045 70.149C131.892 70.5434 131.767 70.892 131.767 70.9239C131.767 70.9557 131.613 71.243 131.424 71.5625L131.081 72.1433L130.516 72.7062C130.206 73.0158 129.919 73.2691 129.877 73.2691C129.835 73.2691 129.645 73.3757 129.455 73.506L129.108 73.743L128.345 73.9859L127.583 74.2288L126.831 74.2683ZM157.438 76.9515L158.333 76.9628L159.179 76.8244C159.644 76.7483 160.236 76.6257 160.495 76.552C160.754 76.4782 161.219 76.2868 161.529 76.1267L162.094 75.8354L162.579 75.405L163.064 74.9744L163.575 74.2876C163.857 73.9098 164.112 73.5368 164.141 73.4586L164.195 73.3164L164.149 73.7903C164.122 74.0508 164.064 74.4771 164.018 74.7376C163.972 74.9983 163.908 75.4992 163.873 75.8509L163.811 76.4905H165.656H167.501V75.8509V75.2113L167.782 72.7954C167.936 71.4666 168.164 69.6972 168.289 68.8634C168.415 68.0297 168.607 66.8359 168.718 66.2106C168.828 65.5853 169.024 64.4554 169.153 63.6998C169.281 62.9442 169.514 61.6225 169.67 60.7626C169.825 59.9029 170.074 58.5386 170.223 57.7308C170.372 56.9231 170.603 55.6654 170.737 54.9358C170.872 54.2063 171.111 52.9273 171.27 52.0934C171.43 51.2597 171.663 50.0872 171.788 49.488C171.912 48.8887 172.014 48.3664 172.014 48.3273V48.2563H170.002H167.989L167.929 48.8484C167.897 49.1741 167.742 50.2507 167.587 51.2407C167.431 52.2309 167.178 53.8083 167.023 54.7464C166.869 55.6843 166.72 56.5938 166.693 56.7675L166.643 57.0834L166.484 57.0153C166.397 56.9779 165.923 56.8456 165.432 56.7213L164.538 56.4953L163.315 56.3994L162.094 56.3034L161.059 56.4006L160.025 56.4977L159.084 56.7372L158.144 56.9767L157.25 57.4157L156.357 57.8547L155.699 58.3457L155.041 58.8367L154.472 59.4508C154.16 59.7886 153.708 60.3472 153.468 60.6923L153.033 61.3197L152.522 62.3913C152.241 62.9807 151.899 63.7614 151.762 64.1262C151.625 64.4909 151.383 65.2995 151.225 65.923L150.937 67.0567L150.796 68.5285L150.653 70.0004L150.76 71.1847L150.866 72.369L150.993 72.7954C151.062 73.0299 151.208 73.4476 151.317 73.7238L151.516 74.2259L151.878 74.7196L152.239 75.2133L152.652 75.5544L153.066 75.8955L153.63 76.1778C153.94 76.3331 154.461 76.5337 154.788 76.6236C155.113 76.7136 155.641 76.8216 155.962 76.8637C156.283 76.9058 156.948 76.9453 157.438 76.9515ZM159.042 74.2634L158.333 74.3014L157.853 74.2145C157.59 74.1667 157.168 74.0386 156.915 73.9297L156.457 73.7319L156.072 73.4137L155.687 73.0955L155.4 72.5427L155.114 71.9901L154.983 71.3742L154.853 70.7583L154.864 69.5266L154.875 68.295L155.027 67.2054L155.178 66.1158L155.414 65.3578C155.544 64.941 155.65 64.5477 155.651 64.4838C155.651 64.42 155.78 64.0789 155.935 63.7259C156.091 63.3728 156.351 62.8281 156.513 62.5155C156.675 62.2028 156.978 61.7154 157.186 61.4323C157.395 61.1492 157.766 60.7229 158.011 60.4848C158.256 60.2468 158.646 59.9347 158.877 59.7911L159.298 59.53L160.038 59.2722L160.777 59.0145L162.329 59.0136H163.88L164.774 59.2632C165.265 59.4006 165.787 59.5598 165.932 59.6172L166.199 59.7215L166.147 59.9815C166.118 60.1246 166.006 60.7532 165.899 61.3785C165.791 62.0038 165.578 63.1976 165.426 64.0315C165.273 64.8652 165.039 66.1229 164.906 66.8265C164.773 67.5299 164.579 68.4253 164.476 68.8161C164.374 69.2069 164.228 69.7482 164.154 70.019C164.079 70.2899 163.902 70.7588 163.759 71.0613C163.617 71.3637 163.368 71.8029 163.205 72.0374C163.043 72.2719 162.769 72.5968 162.596 72.7593C162.423 72.9218 162.049 73.2106 161.764 73.4011L161.248 73.7474L160.499 73.9864L159.752 74.2254L159.042 74.2634ZM20.6468 76.4905H22.9316L23.0955 75.472C23.1857 74.9118 23.3618 73.8352 23.4869 73.0796C23.6119 72.324 23.8446 70.917 24.0041 69.953C24.1635 68.9889 24.4025 67.5607 24.5352 66.779C24.6678 65.9974 24.8786 64.7848 25.0036 64.0845C25.1285 63.3841 25.2545 62.7873 25.2835 62.7581L25.3362 62.705H31.4797H37.6234L37.6916 62.7737L37.7598 62.8424L37.6533 63.3895C37.5947 63.6904 37.4214 64.6188 37.2681 65.4526C37.1149 66.2864 36.8573 67.6934 36.6957 68.5792C36.534 69.465 36.3004 70.7228 36.1764 71.3742C36.0523 72.0255 35.8014 73.3899 35.6187 74.406C35.436 75.4222 35.2869 76.3069 35.2873 76.3721L35.2883 76.4905H37.5825H39.8767L39.9782 75.8984C40.034 75.5726 40.1238 74.9864 40.1778 74.5956C40.2317 74.2048 40.3618 73.3733 40.4669 72.748C40.5719 72.1227 40.7818 70.8863 40.9332 70.0004C41.0847 69.1145 41.3382 67.6009 41.4965 66.6369C41.6549 65.6729 41.89 64.2659 42.0188 63.5103C42.1475 62.7547 42.3771 61.4756 42.5287 60.6679C42.6804 59.8603 42.9331 58.4959 43.0903 57.6361C43.2473 56.7763 43.4828 55.4759 43.6134 54.7464C43.744 54.0168 43.9821 52.6951 44.1425 51.8092C44.303 50.9233 44.5055 49.8895 44.5926 49.5116L44.7512 48.8247H42.4283H40.1054L40.0423 49.2748C40.0075 49.5223 39.8952 50.2151 39.7929 50.8144C39.6904 51.4137 39.5042 52.4795 39.3789 53.1831C39.2537 53.8865 39.0247 55.2295 38.8701 56.1676C38.7156 57.1055 38.5187 58.3471 38.4326 58.9268L38.2759 59.9806L34.8659 60.0502L31.456 60.1197L28.5999 60.0514C27.029 60.0138 25.7351 59.9757 25.7244 59.9665C25.7138 59.9574 25.7673 59.5892 25.8434 59.1484C25.9193 58.7074 26.0632 57.9416 26.163 57.4466C26.2628 56.9516 26.452 55.9709 26.5834 55.2675C26.7148 54.5639 26.8636 53.69 26.914 53.3251C26.9646 52.9604 27.0705 52.3528 27.1493 51.9751C27.2283 51.5972 27.3779 50.8014 27.482 50.2066C27.5861 49.6118 27.697 49.0575 27.7284 48.9749L27.7856 48.8247H25.4815H23.1774L23.0298 49.6538C22.9486 50.1097 22.8404 50.7599 22.7893 51.0986C22.7382 51.4373 22.5665 52.5246 22.4079 53.5146C22.2492 54.5048 22.0151 55.9757 21.8875 56.7833C21.7599 57.5911 21.5274 59.062 21.371 60.0521C21.2147 61.0422 20.9566 62.5771 20.7976 63.4629C20.6386 64.3488 20.4084 65.6066 20.286 66.2579C20.1637 66.9093 19.9304 68.1457 19.7678 69.0056C19.6052 69.8653 19.3679 71.0805 19.2405 71.7059C19.1132 72.3312 18.9724 73.0559 18.9277 73.3164C18.883 73.5771 18.7374 74.3286 18.6042 74.9864C18.4711 75.6444 18.3621 76.2519 18.3621 76.3366V76.4905H20.6468ZM45.9401 76.4905H47.9627L48.0198 76.3406C48.0513 76.2582 48.0769 76.0419 48.0769 75.8601C48.0769 75.6783 48.2041 74.7331 48.3595 73.7598C48.5149 72.7864 48.7719 71.2013 48.9303 70.2372C49.0888 69.2732 49.3228 67.8662 49.4504 67.1107C49.578 66.355 49.8049 65.0973 49.9545 64.3157C50.1043 63.534 50.3342 62.3188 50.4653 61.6154C50.5965 60.9119 50.8545 59.5735 51.0387 58.6411C51.2228 57.7089 51.3964 56.9086 51.4245 56.8628L51.4755 56.7796L49.43 56.8052L47.3847 56.8307L47.2144 58.0625C47.1206 58.7399 46.9158 60.0829 46.7592 61.047C46.6024 62.011 46.3655 63.4819 46.2325 64.3157C46.0996 65.1494 45.8677 66.4924 45.7172 67.3002C45.5667 68.1079 45.3362 69.3443 45.2048 70.0477C45.0735 70.7513 44.8378 71.9877 44.6812 72.7954C44.5244 73.6031 44.3142 74.669 44.2139 75.164C44.1135 75.6591 44.0058 76.1601 43.9745 76.2773L43.9175 76.4905H45.9401ZM93.2463 76.4905H95.254L95.3143 75.6346C95.3475 75.1638 95.4611 74.2151 95.5668 73.5265C95.6725 72.8377 95.8889 71.4642 96.0477 70.4741C96.2066 69.484 96.5016 67.8361 96.7035 66.8119C96.9055 65.7878 97.1337 64.7699 97.2108 64.5499C97.2878 64.3297 97.3509 64.0913 97.3509 64.0199C97.3509 63.9485 97.5019 63.5595 97.6864 63.1554C97.8709 62.7513 98.2147 62.1326 98.4504 61.7804L98.879 61.1401L99.4527 60.6049L100.026 60.0698L100.734 59.7293L101.441 59.3888L102.523 59.3945L103.604 59.4003L104.136 59.5604C104.428 59.6484 104.693 59.7204 104.723 59.7204C104.755 59.7204 104.78 59.6197 104.78 59.4965C104.78 59.3735 104.885 58.7494 105.015 58.1097C105.144 57.4701 105.25 56.9197 105.25 56.8868C105.25 56.8538 104.943 56.7329 104.568 56.6179C104.193 56.503 103.675 56.3827 103.416 56.3505L102.946 56.292L102.335 56.401C101.999 56.4609 101.499 56.5932 101.224 56.6949C100.949 56.7966 100.495 57.0274 100.216 57.2076C99.936 57.388 99.5008 57.7393 99.2488 57.9884C98.9967 58.2375 98.5727 58.7398 98.3065 59.1045C98.0403 59.4693 97.762 59.8531 97.6879 59.9573L97.5534 60.1468L97.635 59.7678C97.68 59.5594 97.8053 58.8772 97.9133 58.2519C98.0214 57.6265 98.1324 57.0402 98.1599 56.9491L98.2099 56.7833H96.4169H94.6239V57.0116C94.6239 57.1373 94.5181 57.8941 94.3888 58.6935C94.2594 59.4927 94.0461 60.829 93.9148 61.6627C93.7834 62.4965 93.5503 63.9461 93.3968 64.884C93.2433 65.8221 93.0101 67.1651 92.8787 67.8685C92.7473 68.572 92.5138 69.8084 92.36 70.6162C92.2062 71.4239 91.951 72.7456 91.7927 73.5532C91.6343 74.361 91.4449 75.3149 91.3717 75.673C91.2985 76.0312 91.2387 76.3616 91.2387 76.4073V76.4904L93.2463 76.4905ZM140.905 76.4905H142.958V75.8575V75.2245L143.194 73.6546C143.324 72.7912 143.538 71.4239 143.671 70.6163C143.804 69.8085 143.968 68.7852 144.038 68.3423C144.106 67.8994 144.29 66.9401 144.446 66.2106C144.6 65.4811 144.794 64.6922 144.875 64.4577C144.957 64.2233 145.024 63.9773 145.025 63.911C145.026 63.8448 145.2 63.4192 145.414 62.965L145.801 62.1394L146.312 61.455L146.823 60.7706L147.384 60.3469C147.691 60.1138 148.185 59.8046 148.483 59.6596L149.023 59.396L150.199 59.4042L151.373 59.4123L151.837 59.562L152.299 59.7118L152.377 59.6632L152.456 59.6147L152.459 59.3123C152.461 59.146 152.562 58.5273 152.683 57.9374L152.903 56.8648L152.656 56.7672C152.52 56.7136 152.197 56.6027 151.938 56.5205L151.468 56.3714L150.622 56.3736L149.775 56.3758L149.086 56.6203L148.396 56.8647L147.877 57.1794L147.36 57.494L146.686 58.2045L146.013 58.9151L145.652 59.4664C145.453 59.7695 145.278 60.0041 145.262 59.9875C145.247 59.9709 145.355 59.3391 145.503 58.5836C145.65 57.828 145.773 57.1138 145.775 56.9966L145.779 56.7834H144.039H142.3V56.8438C142.3 56.877 142.213 57.4846 142.107 58.1939C142 58.9033 141.788 60.2724 141.634 61.2364C141.479 62.2005 141.227 63.7567 141.071 64.6946C140.917 65.6327 140.683 66.9757 140.553 67.6791C140.422 68.3827 140.19 69.6191 140.037 70.4268C139.885 71.2344 139.634 72.5349 139.479 73.3165C139.325 74.0982 139.121 75.1321 139.025 75.6141L138.853 76.4905H140.905ZM49.9173 53.3704L50.4883 53.3726L50.9421 53.2167L51.396 53.0609L51.7976 52.6504L52.1993 52.2399L52.4108 51.6929L52.6224 51.146L52.63 50.3407L52.6375 49.5353L52.4494 49.2208L52.2614 48.9064L51.934 48.7021L51.6066 48.4978H50.8997H50.1926L49.7113 48.715L49.2301 48.9321L48.9507 49.2337L48.6714 49.5353L48.4519 50.0564L48.2325 50.5776L48.191 51.3892L48.1496 52.201L48.3539 52.6044L48.5581 53.0077L48.9522 53.1881L49.3464 53.3683L49.9173 53.3704Z" fill="white"/>
</g>
<path d="M8 0.5H180C184.142 0.5 187.5 3.85786 187.5 8V114C187.5 118.142 184.142 121.5 180 121.5H8C3.85786 121.5 0.5 118.142 0.5 114V8C0.5 3.85786 3.85786 0.5 8 0.5Z" stroke="#495057"/>
<defs>
<clipPath id="clip0_47_4362">
<path d="M0 8C0 3.58172 3.58172 0 8 0H180C184.418 0 188 3.58172 188 8V114C188 118.418 184.418 122 180 122H8C3.58172 122 0 118.418 0 114V8Z" fill="white"/>
</clipPath>
</defs>
</svg>
