<svg width="188" height="122" viewBox="0 0 188 122" fill="none" xmlns="http://www.w3.org/2000/svg">
<g clip-path="url(#clip0_47_4202)">
<path d="M184 0.25H4C1.92893 0.25 0.25 1.92893 0.25 4V118C0.25 120.071 1.92893 121.75 4 121.75H184C186.071 121.75 187.75 120.071 187.75 118V4C187.75 1.92893 186.071 0.25 184 0.25Z" fill="#0165B0"/>
<path fill-rule="evenodd" clip-rule="evenodd" d="M4 0.5C2.067 0.5 0.5 2.067 0.5 4V118C0.5 119.933 2.067 121.5 4 121.5H184C185.933 121.5 187.5 119.933 187.5 118V4C187.5 2.067 185.933 0.5 184 0.5H4ZM0 4C0 1.79086 1.79086 0 4 0H184C186.209 0 188 1.79086 188 4V118C188 120.209 186.209 122 184 122H4C1.79086 122 0 120.209 0 118V4Z" fill="#495057"/>
<path d="M150.433 87.2603C150.433 97.0381 142.528 105 132.821 105H37V34.7397C37 24.9619 44.9042 17 54.6117 17H150.433V87.2603Z" fill="white"/>
<path d="M125.68 22.9367C118.747 22.9367 113.06 28.5939 113.06 35.6478V48.8478H130.881C131.296 48.8478 131.781 48.8478 132.129 48.9177C136.149 49.1272 139.131 51.2224 139.131 54.8542C139.131 57.7176 137.12 60.1621 133.377 60.6509V60.7906C137.467 61.07 140.587 63.3748 140.587 66.9366C140.587 70.7779 137.12 73.2923 132.544 73.2923H112.992V99.1331H131.505C138.438 99.1331 144.123 93.4758 144.123 86.4218V22.9367H125.68Z" fill="url(#paint0_linear_47_4202)"/>
<path d="M119.232 69.2414H126.513C126.616 69.2414 126.789 69.224 126.964 69.2065C127.137 69.189 127.31 69.1716 127.413 69.1716C128.8 68.8922 129.979 67.635 129.979 65.889C129.979 64.2129 128.8 62.9558 127.413 62.6065C127.206 62.5366 126.789 62.5366 126.513 62.5366H119.232V69.2414Z" fill="url(#paint1_linear_47_4202)"/>
<path d="M126.513 52.6891C127.899 52.8986 129.078 54.0161 129.078 55.6923C129.078 57.3685 127.899 58.486 126.513 58.6955C126.443 58.7653 126.028 58.7653 125.819 58.7653H119.232V52.6193H125.819C125.934 52.6193 126.09 52.6405 126.231 52.6595C126.346 52.675 126.45 52.6891 126.513 52.6891Z" fill="url(#paint2_linear_47_4202)"/>
<path d="M55.9291 22.9367C48.9951 22.9367 43.3096 28.5939 43.3096 35.6478V67.0064C46.8457 68.7525 50.5204 69.87 54.1949 69.87C58.5628 69.87 60.921 67.2161 60.921 63.5843V48.778H71.7372V63.5144C71.7372 69.2415 68.2004 73.9207 56.2058 73.9207C48.9257 73.9207 43.2402 72.3145 43.2402 72.3145V99.0636H61.7522C68.6867 99.0636 74.372 93.4063 74.372 86.3523V22.9367H55.9291Z" fill="url(#paint3_linear_47_4202)"/>
<path d="M90.8042 22.9367C83.8709 22.9367 78.1855 28.5939 78.1855 35.6478V52.27C81.3749 49.5462 86.9214 47.8002 95.8656 48.2192C100.65 48.4287 105.781 49.7558 105.781 49.7558V55.1335C103.216 53.8066 100.164 52.6192 96.2129 52.3398C89.4173 51.851 85.3273 55.2034 85.3273 61.07C85.3273 67.0065 89.4173 70.3589 96.2129 69.8001C100.164 69.5208 103.216 68.2637 105.781 67.0064V72.3843C105.781 72.3843 100.719 73.7113 95.8656 73.9207C86.9214 74.3399 81.3749 72.5938 78.1855 69.87V99.2038H96.698C103.631 99.2038 109.317 93.5465 109.317 86.4925V22.9367H90.8042Z" fill="url(#paint4_linear_47_4202)"/>
</g>
<path d="M8 0.5H180C184.142 0.5 187.5 3.85786 187.5 8V114C187.5 118.142 184.142 121.5 180 121.5H8C3.85786 121.5 0.5 118.142 0.5 114V8C0.5 3.85786 3.85786 0.5 8 0.5Z" stroke="#495057"/>
<defs>
<linearGradient id="paint0_linear_47_4202" x1="113.049" y1="55.6835" x2="144.207" y2="55.6835" gradientUnits="userSpaceOnUse">
<stop stop-color="#007940"/>
<stop offset="0.2285" stop-color="#00873F"/>
<stop offset="0.7433" stop-color="#40A737"/>
<stop offset="1" stop-color="#5CB531"/>
</linearGradient>
<linearGradient id="paint1_linear_47_4202" x1="113.049" y1="55.6835" x2="144.207" y2="55.6835" gradientUnits="userSpaceOnUse">
<stop stop-color="#007940"/>
<stop offset="0.2285" stop-color="#00873F"/>
<stop offset="0.7433" stop-color="#40A737"/>
<stop offset="1" stop-color="#5CB531"/>
</linearGradient>
<linearGradient id="paint2_linear_47_4202" x1="113.049" y1="55.6835" x2="144.207" y2="55.6835" gradientUnits="userSpaceOnUse">
<stop stop-color="#007940"/>
<stop offset="0.2285" stop-color="#00873F"/>
<stop offset="0.7433" stop-color="#40A737"/>
<stop offset="1" stop-color="#5CB531"/>
</linearGradient>
<linearGradient id="paint3_linear_47_4202" x1="43.295" y1="61.0046" x2="74.9351" y2="61.0046" gradientUnits="userSpaceOnUse">
<stop stop-color="#1F286F"/>
<stop offset="0.4751" stop-color="#004E94"/>
<stop offset="0.8261" stop-color="#0066B1"/>
<stop offset="1" stop-color="#006FBC"/>
</linearGradient>
<linearGradient id="paint4_linear_47_4202" x1="78.0064" y1="61.0046" x2="108.735" y2="61.0046" gradientUnits="userSpaceOnUse">
<stop stop-color="#6C2C2F"/>
<stop offset="0.1735" stop-color="#882730"/>
<stop offset="0.5731" stop-color="#BE1833"/>
<stop offset="0.8585" stop-color="#DC0436"/>
<stop offset="1" stop-color="#E60039"/>
</linearGradient>
<clipPath id="clip0_47_4202">
<path d="M0 8C0 3.58172 3.58172 0 8 0H180C184.418 0 188 3.58172 188 8V114C188 118.418 184.418 122 180 122H8C3.58172 122 0 118.418 0 114V8Z" fill="white"/>
</clipPath>
</defs>
</svg>
