<svg width="188" height="122" viewBox="0 0 188 122" fill="none" xmlns="http://www.w3.org/2000/svg">
<g clip-path="url(#clip0_47_4367)">
<path d="M0 8C0 3.58172 3.58172 0 8 0H180C184.418 0 188 3.58172 188 8V114C188 118.418 184.418 122 180 122H8C3.58172 122 0 118.418 0 114V8Z" fill="white"/>
<path d="M184 0.25H4C1.92893 0.25 0.25 1.92893 0.25 4V118C0.25 120.071 1.92893 121.75 4 121.75H184C186.071 121.75 187.75 120.071 187.75 118V4C187.75 1.92893 186.071 0.25 184 0.25Z" fill="black"/>
<path fill-rule="evenodd" clip-rule="evenodd" d="M4 0.5C2.067 0.5 0.5 2.067 0.5 4V118C0.5 119.933 2.067 121.5 4 121.5H184C185.933 121.5 187.5 119.933 187.5 118V4C187.5 2.067 185.933 0.5 184 0.5H4ZM0 4C0 1.79086 1.79086 0 4 0H184C186.209 0 188 1.79086 188 4V118C188 120.209 186.209 122 184 122H4C1.79086 122 0 120.209 0 118V4Z" fill="#495057"/>
<path d="M57.1947 106.109V100.109C57.2296 99.6046 57.1567 99.0983 56.9806 98.6241C56.8046 98.1499 56.5295 97.7187 56.1738 97.3591C55.818 96.9996 55.3897 96.7199 54.9174 96.5389C54.4451 96.3579 53.9396 96.2795 53.4347 96.3092C52.7737 96.2658 52.1133 96.4007 51.5222 96.6998C50.9312 96.9988 50.4313 97.451 50.0747 98.0092C49.7496 97.4677 49.2845 97.024 48.7283 96.7248C48.1722 96.4257 47.5456 96.282 46.9147 96.3092C46.3647 96.2814 45.817 96.3978 45.3258 96.6468C44.8347 96.8959 44.4172 97.269 44.1147 97.7292V96.5492H42.0347V106.109H44.1347V100.849C44.09 100.522 44.1181 100.19 44.217 99.8747C44.3158 99.5599 44.483 99.2709 44.7066 99.0282C44.9302 98.7855 45.2046 98.5952 45.5102 98.4709C45.8159 98.3466 46.1452 98.2914 46.4747 98.3092C47.8547 98.3092 48.5547 99.2092 48.5547 100.829V106.149H50.6547V100.849C50.6118 100.523 50.6412 100.191 50.7408 99.8766C50.8403 99.5626 51.0076 99.2743 51.2307 99.032C51.4539 98.7898 51.7276 98.5995 52.0324 98.4746C52.3372 98.3497 52.6657 98.2932 52.9947 98.3092C54.4147 98.3092 55.0947 99.2092 55.0947 100.829V106.149L57.1947 106.109ZM88.2647 96.5492H84.8447V93.6492H82.7447V96.5492H80.8447V98.4492H82.7847V102.849C82.7847 105.069 83.6447 106.389 86.1047 106.389C87.0237 106.392 87.925 106.136 88.7047 105.649L88.1047 103.869C87.5469 104.202 86.9138 104.388 86.2647 104.409C85.2647 104.409 84.8847 103.769 84.8847 102.809V98.4492H88.2847L88.2647 96.5492ZM106.005 96.3092C105.498 96.2943 104.996 96.4164 104.552 96.6628C104.109 96.9092 103.74 97.2707 103.485 97.7092V96.5492H101.425V106.109H103.505V100.749C103.505 99.1692 104.185 98.2892 105.505 98.2892C105.95 98.2831 106.391 98.3646 106.805 98.5292L107.445 96.5292C106.97 96.3592 106.469 96.2713 105.965 96.2692L106.005 96.3092ZM79.1847 97.3092C78.0073 96.6091 76.6536 96.262 75.2847 96.3092C72.8647 96.3092 71.2847 97.4692 71.2847 99.3692C71.2847 100.929 72.4447 101.889 74.5847 102.189L75.5847 102.329C76.7247 102.489 77.2647 102.789 77.2647 103.329C77.2647 104.069 76.5047 104.489 75.0847 104.489C73.9425 104.522 72.8224 104.17 71.9047 103.489L70.9047 105.109C72.1163 105.955 73.5675 106.39 75.0447 106.349C77.8047 106.349 79.4047 105.049 79.4047 103.229C79.4047 101.409 78.1447 100.669 76.0647 100.369L75.0647 100.229C74.1647 100.109 73.4447 99.9292 73.4447 99.2892C73.4447 98.6492 74.1247 98.1692 75.2647 98.1692C76.3183 98.1814 77.3513 98.4637 78.2647 98.9892L79.1847 97.3092ZM134.895 96.3092C134.388 96.2943 133.886 96.4164 133.442 96.6628C132.999 96.9092 132.63 97.2707 132.375 97.7092V96.5492H130.315V106.109H132.395V100.749C132.395 99.1692 133.075 98.2892 134.395 98.2892C134.84 98.2831 135.281 98.3646 135.695 98.5292L136.335 96.5292C135.86 96.3592 135.359 96.2713 134.855 96.2692L134.895 96.3092ZM108.095 101.309C108.07 101.981 108.186 102.651 108.435 103.275C108.683 103.9 109.06 104.465 109.54 104.936C110.02 105.407 110.593 105.772 111.222 106.008C111.852 106.245 112.523 106.347 113.195 106.309C114.444 106.373 115.671 105.966 116.635 105.169L115.635 103.489C114.916 104.037 114.039 104.339 113.135 104.349C112.366 104.287 111.649 103.938 111.126 103.371C110.603 102.804 110.312 102.061 110.312 101.289C110.312 100.518 110.603 99.7747 111.126 99.2077C111.649 98.6407 112.366 98.2914 113.135 98.2292C114.039 98.2392 114.916 98.5409 115.635 99.0892L116.635 97.4092C115.671 96.6124 114.444 96.2056 113.195 96.2692C112.523 96.2311 111.852 96.3336 111.222 96.5701C110.593 96.8066 110.02 97.1718 109.54 97.6425C109.06 98.1131 108.683 98.6788 108.435 99.3033C108.186 99.9278 108.07 100.597 108.095 101.269V101.309ZM127.575 101.309V96.5492H125.495V97.7092C125.141 97.2547 124.685 96.8907 124.164 96.6473C123.642 96.4038 123.07 96.2879 122.495 96.3092C121.169 96.3092 119.897 96.836 118.959 97.7736C118.021 98.7113 117.495 99.9831 117.495 101.309C117.495 102.635 118.021 103.907 118.959 104.845C119.897 105.782 121.169 106.309 122.495 106.309C123.07 106.33 123.642 106.215 124.164 105.971C124.685 105.728 125.141 105.364 125.495 104.909V106.069H127.575V101.309ZM119.835 101.309C119.868 100.746 120.065 100.206 120.401 99.7535C120.738 99.3013 121.2 98.9575 121.729 98.7643C122.259 98.5711 122.833 98.5369 123.382 98.6661C123.931 98.7953 124.43 99.0821 124.817 99.4912C125.205 99.9004 125.465 100.414 125.564 100.969C125.664 101.524 125.599 102.096 125.378 102.614C125.156 103.132 124.788 103.575 124.318 103.887C123.849 104.199 123.298 104.366 122.735 104.369C122.339 104.374 121.946 104.297 121.581 104.143C121.217 103.989 120.888 103.761 120.615 103.474C120.343 103.186 120.133 102.846 119.999 102.473C119.864 102.101 119.808 101.704 119.835 101.309ZM94.7347 96.3092C93.4086 96.3277 92.1442 96.8723 91.2196 97.8231C90.2951 98.7739 89.7861 100.053 89.8047 101.379C89.8232 102.705 90.3678 103.97 91.3186 104.894C92.2694 105.819 93.5486 106.328 94.8747 106.309C96.3134 106.383 97.7283 105.92 98.8447 105.009L97.8447 103.469C97.055 104.102 96.0768 104.454 95.0647 104.469C94.3771 104.528 93.6936 104.317 93.1595 103.88C92.6254 103.443 92.2829 102.815 92.2047 102.129H99.3047C99.3047 101.869 99.3047 101.609 99.3047 101.329C99.3047 98.3292 97.4447 96.3292 94.7647 96.3292L94.7347 96.3092ZM94.7347 98.1692C95.0459 98.1625 95.3554 98.2173 95.6455 98.3303C95.9356 98.4433 96.2006 98.6124 96.4253 98.8278C96.65 99.0433 96.8301 99.3009 96.9553 99.5859C97.0804 99.871 97.1482 100.178 97.1547 100.489H92.1547C92.1909 99.8472 92.477 99.245 92.9517 98.8114C93.4265 98.3778 94.0521 98.1472 94.6947 98.1692H94.7347ZM146.845 101.329V92.7092H144.845V97.7092C144.491 97.2547 144.035 96.8907 143.514 96.6473C142.992 96.4038 142.42 96.2879 141.845 96.3092C140.519 96.3092 139.247 96.836 138.309 97.7736C137.371 98.7113 136.845 99.9831 136.845 101.309C136.845 102.635 137.371 103.907 138.309 104.845C139.247 105.782 140.519 106.309 141.845 106.309C142.42 106.33 142.992 106.215 143.514 105.971C144.035 105.728 144.491 105.364 144.845 104.909V106.069H146.845V101.329ZM150.315 104.719C150.445 104.718 150.574 104.741 150.695 104.789C150.81 104.836 150.915 104.904 151.005 104.989C151.093 105.075 151.164 105.177 151.215 105.289C151.265 105.406 151.291 105.532 151.291 105.659C151.291 105.786 151.265 105.912 151.215 106.029C151.164 106.141 151.093 106.243 151.005 106.329C150.915 106.414 150.81 106.482 150.695 106.529C150.575 106.582 150.446 106.609 150.315 106.609C150.125 106.608 149.94 106.552 149.781 106.45C149.621 106.347 149.494 106.201 149.415 106.029C149.365 105.912 149.339 105.786 149.339 105.659C149.339 105.532 149.365 105.406 149.415 105.289C149.466 105.177 149.537 105.075 149.625 104.989C149.715 104.904 149.82 104.836 149.935 104.789C150.065 104.737 150.205 104.714 150.345 104.719H150.315ZM150.315 106.409C150.414 106.41 150.513 106.389 150.605 106.349C150.691 106.311 150.769 106.256 150.835 106.189C150.96 106.053 151.029 105.874 151.029 105.689C151.029 105.504 150.96 105.326 150.835 105.189C150.769 105.122 150.691 105.067 150.605 105.029C150.513 104.989 150.414 104.969 150.315 104.969C150.215 104.97 150.116 104.99 150.025 105.029C149.935 105.066 149.853 105.12 149.785 105.189C149.66 105.326 149.59 105.504 149.59 105.689C149.59 105.874 149.66 106.053 149.785 106.189C149.853 106.258 149.935 106.312 150.025 106.349C150.126 106.393 150.235 106.413 150.345 106.409H150.315ZM150.375 105.219C150.468 105.215 150.56 105.243 150.635 105.299C150.665 105.324 150.689 105.357 150.705 105.393C150.721 105.43 150.727 105.47 150.725 105.509C150.726 105.542 150.721 105.576 150.709 105.607C150.697 105.638 150.678 105.666 150.655 105.689C150.597 105.742 150.523 105.774 150.445 105.779L150.735 106.109H150.505L150.235 105.779H150.145V106.109H149.955V105.229L150.375 105.219ZM150.155 105.389V105.629H150.375C150.414 105.641 150.456 105.641 150.495 105.629C150.502 105.615 150.505 105.6 150.505 105.584C150.505 105.569 150.502 105.553 150.495 105.539C150.502 105.525 150.505 105.51 150.505 105.494C150.505 105.479 150.502 105.463 150.495 105.449C150.456 105.437 150.414 105.437 150.375 105.449L150.155 105.389ZM139.155 101.329C139.188 100.766 139.385 100.226 139.721 99.7735C140.058 99.3213 140.52 98.9775 141.049 98.7843C141.579 98.5911 142.153 98.5569 142.702 98.6861C143.251 98.8153 143.75 99.1021 144.137 99.5112C144.525 99.9204 144.785 100.434 144.884 100.989C144.984 101.544 144.919 102.116 144.698 102.634C144.476 103.152 144.108 103.595 143.638 103.907C143.169 104.219 142.618 104.386 142.055 104.389C141.659 104.394 141.266 104.317 140.901 104.163C140.537 104.009 140.208 103.781 139.935 103.494C139.663 103.206 139.453 102.866 139.319 102.493C139.184 102.121 139.128 101.724 139.155 101.329ZM68.9247 101.329V96.5492H66.8447V97.7092C66.4914 97.2547 66.0352 96.8907 65.5136 96.6473C64.9919 96.4038 64.4199 96.2879 63.8447 96.3092C62.5186 96.3092 61.2468 96.836 60.3091 97.7736C59.3715 98.7113 58.8447 99.9831 58.8447 101.309C58.8447 102.635 59.3715 103.907 60.3091 104.845C61.2468 105.782 62.5186 106.309 63.8447 106.309C64.4199 106.33 64.9919 106.215 65.5136 105.971C66.0352 105.728 66.4914 105.364 66.8447 104.909V106.069H68.9247V101.329ZM61.1847 101.329C61.2178 100.766 61.4148 100.226 61.7515 99.7735C62.0881 99.3213 62.5496 98.9775 63.0791 98.7843C63.6087 98.5911 64.1832 98.5569 64.7319 98.6861C65.2806 98.8153 65.7795 99.1021 66.1673 99.5112C66.5551 99.9204 66.8147 100.434 66.9142 100.989C67.0138 101.544 66.9489 102.116 66.7275 102.634C66.5062 103.152 66.1381 103.595 65.6685 103.907C65.1989 104.219 64.6484 104.386 64.0847 104.389C63.6871 104.397 63.2922 104.322 62.925 104.169C62.5579 104.016 62.2265 103.789 61.952 103.501C61.6774 103.213 61.4657 102.872 61.3302 102.498C61.1946 102.124 61.1383 101.726 61.1647 101.329H61.1847Z" fill="white"/>
<path d="M109.995 23.6992H78.4946V80.3092H109.995V23.6992Z" fill="#FF5F00"/>
<path d="M80.4947 52.0092C80.4889 46.5565 81.7239 41.1739 84.1061 36.2691C86.4883 31.3643 89.9554 27.0658 94.2447 23.6992C88.9338 19.5254 82.5558 16.93 75.8397 16.2095C69.1235 15.4891 62.3401 16.6727 56.2648 19.6251C50.1895 22.5775 45.0674 27.1796 41.4839 32.9053C37.9004 38.6311 36 45.2495 36 52.0042C36 58.7589 37.9004 65.3773 41.4839 71.1031C45.0674 76.8288 50.1895 81.4309 56.2648 84.3833C62.3401 87.3357 69.1235 88.5193 75.8397 87.7988C82.5558 87.0784 88.9338 84.483 94.2447 80.3092C89.9567 76.9436 86.4905 72.6468 84.1083 67.7438C81.7261 62.8408 80.4904 57.4602 80.4947 52.0092Z" fill="#EB001B"/>
<path d="M152.495 52.0092C152.494 58.7644 150.594 65.3832 147.01 71.1092C143.425 76.8351 138.302 81.4371 132.226 84.3891C126.15 87.341 119.366 88.5239 112.65 87.8024C105.933 87.081 99.5551 84.4843 94.2446 80.3092C98.5309 76.9406 101.996 72.6426 104.379 67.7393C106.762 62.8361 108 57.4557 108 52.0042C108 46.5526 106.762 41.1723 104.379 36.269C101.996 31.3658 98.5309 27.0677 94.2446 23.6992C99.5551 19.5241 105.933 16.9274 112.65 16.2059C119.366 15.4845 126.15 16.6673 132.226 19.6193C138.302 22.5713 143.425 27.1732 147.01 32.8992C150.594 38.6251 152.494 45.244 152.495 51.9992V52.0092Z" fill="#F79E1B"/>
<path d="M149.055 74.3092V73.1492H149.525V72.9092H148.335V73.1492H148.845V74.3092H149.055ZM151.365 74.3092V72.9092H151.005L150.585 73.9092L150.165 72.9092H149.845V74.3092H150.105V73.2592L150.495 74.1692H150.765L151.155 73.2592V74.3192L151.365 74.3092Z" fill="#F79E1B"/>
</g>
<path d="M8 0.5H180C184.142 0.5 187.5 3.85786 187.5 8V114C187.5 118.142 184.142 121.5 180 121.5H8C3.85786 121.5 0.5 118.142 0.5 114V8C0.5 3.85786 3.85786 0.5 8 0.5Z" stroke="#495057"/>
<defs>
<clipPath id="clip0_47_4367">
<path d="M0 8C0 3.58172 3.58172 0 8 0H180C184.418 0 188 3.58172 188 8V114C188 118.418 184.418 122 180 122H8C3.58172 122 0 118.418 0 114V8Z" fill="white"/>
</clipPath>
</defs>
</svg>
