<svg width="188" height="122" viewBox="0 0 188 122" fill="none" xmlns="http://www.w3.org/2000/svg">
<g clip-path="url(#clip0_47_4210)">
<path d="M184 0.25H4C1.92893 0.25 0.25 1.92893 0.25 4V118C0.25 120.071 1.92893 121.75 4 121.75H184C186.071 121.75 187.75 120.071 187.75 118V4C187.75 1.92893 186.071 0.25 184 0.25Z" fill="white"/>
<path fill-rule="evenodd" clip-rule="evenodd" d="M4 0.5C2.067 0.5 0.5 2.067 0.5 4V118C0.5 119.933 2.067 121.5 4 121.5H184C185.933 121.5 187.5 119.933 187.5 118V4C187.5 2.067 185.933 0.5 184 0.5H4ZM0 4C0 1.79086 1.79086 0 4 0H184C186.209 0 188 1.79086 188 4V118C188 120.209 186.209 122 184 122H4C1.79086 122 0 120.209 0 118V4Z" fill="#495057"/>
<path fill-rule="evenodd" clip-rule="evenodd" d="M63.706 51.4424C63.3925 56.6944 68.5244 55.9643 68.2552 52.0125C68.1478 50.4388 65.3044 48.5604 63.3019 46.6321C62.208 45.5787 60.9095 44.6997 59.8695 43.4206C57.3132 40.2771 58.0178 35.2073 60.8054 32.5555C63.3958 30.0915 68.5677 30.0346 71.5508 32.5765C73.1018 33.8977 73.9006 35.9644 73.9476 38.7763H68.255C68.4531 34.3412 64.0819 34.9138 64.0819 37.5814C64.0819 38.4435 64.3613 39.1594 64.9203 39.7293C69.1927 44.0854 73.9497 46.9488 73.9497 51.2617C73.9497 54.5428 73.1241 56.7881 71.4729 57.9977C68.31 60.3146 62.5289 60.7978 59.8109 57.476C58.6426 56.0481 58.0512 54.0367 58.0366 51.4424H63.706ZM75.9856 50.8445V38.4573C75.9856 35.6767 76.7871 33.7094 78.3904 32.5555C79.9938 31.4015 81.9353 30.8247 84.2148 30.8247C84.5154 30.8247 84.8223 30.8387 85.1354 30.8664C85.4486 30.8942 85.7553 30.9221 86.056 30.9498C87.6593 31.2001 89.1187 31.8812 90.4337 32.9935C91.7489 34.1058 92.4065 35.9269 92.4065 38.4573V50.8445C92.4065 53.5974 91.7489 55.7801 90.4337 57.3928C89.1187 59.0055 86.9578 59.8119 83.9518 59.8119C80.8957 59.8119 78.8038 58.9013 77.6765 57.0798C76.5491 55.2587 75.9856 53.1803 75.9856 50.8445ZM82.0354 38.1654V52.3042C82.0354 53.0828 82.2546 53.6738 82.693 54.0769C83.1315 54.4801 83.6136 54.6818 84.1397 54.6818H84.2524C84.7534 54.6538 85.2169 54.4453 85.6426 54.0562C86.0685 53.6667 86.2814 53.0828 86.2814 52.3042V38.1654C86.2814 37.3867 86.0685 36.8029 85.6426 36.4136C85.2169 36.0243 84.7534 35.8157 84.2524 35.788H84.1397C83.6136 35.788 83.1315 35.9824 82.693 36.3719C82.2546 36.7612 82.0354 37.359 82.0354 38.1654ZM95.1801 59.2697V31.492H103.528C107.68 31.492 110.207 32.7442 110.335 37.2926C110.384 39.0714 110.102 40.5458 109.637 41.7135C109.171 42.8813 108.377 43.7574 107.254 44.3413C108.137 44.6193 108.831 45.0502 109.332 45.6343C109.834 46.218 110.056 46.9555 110.084 47.8447L110.335 55.7661C110.368 56.7944 110.442 57.49 110.657 57.8515C110.872 58.2131 111.1 58.3939 111.338 58.3939V59.2697H106.251C105.51 59.2697 105.033 59.1375 104.817 58.8733C104.603 58.6093 104.495 57.9627 104.495 56.9342V50.3311C104.495 49.4135 104.34 48.7324 104.029 48.2876C103.719 47.8428 103.134 47.6203 102.274 47.6203H100.948V59.2697H95.1801ZM100.948 42.9215H102.274C102.823 42.9215 103.331 42.6574 103.796 42.1292C104.262 41.601 104.495 41.3212 104.495 40.1257V38.9255C104.495 37.2949 103.832 36.3742 103.223 36.1102C102.614 35.846 101.856 35.714 100.948 35.714V42.9215ZM113.33 50.8445V38.4573C113.33 35.6767 114.131 33.7094 115.735 32.5555C117.338 31.4015 119.28 30.8247 121.559 30.8247C121.859 30.8247 122.166 30.8387 122.48 30.8664C122.793 30.8942 123.099 30.9221 123.4 30.9498C125.003 31.2001 126.463 31.8812 127.778 32.9935C129.093 34.1058 129.751 35.9269 129.751 38.4573V50.8445C129.751 53.5974 129.093 55.7801 127.778 57.3928C126.463 59.0055 124.302 59.8119 121.296 59.8119C118.24 59.8119 116.148 58.9013 115.021 57.0798C113.893 55.2587 113.33 53.1803 113.33 50.8445ZM119.38 38.1654V52.3042C119.38 53.0828 119.599 53.6738 120.037 54.0769C120.475 54.4801 120.958 54.6818 121.483 54.6818H121.596C122.097 54.6538 122.561 54.4453 122.987 54.0562C123.413 53.6667 123.625 53.0828 123.625 52.3042V38.1654C123.625 37.3867 123.413 36.8029 122.987 36.4136C122.561 36.0243 122.097 35.8157 121.596 35.788H121.483C120.958 35.788 120.475 35.9824 120.037 36.3719C119.599 36.7612 119.38 37.359 119.38 38.1654Z" fill="#A88F40"/>
<path fill-rule="evenodd" clip-rule="evenodd" d="M73.95 80.9606V83.9746C73.95 86.065 73.3642 87.6463 72.1927 88.7192C71.0211 89.7917 69.7326 90.4927 68.3268 90.823C67.9074 90.9331 67.4881 91.0087 67.0688 91.0499C66.6494 91.0911 66.2549 91.1118 65.885 91.1118C63.1227 91.1118 61.0818 90.4243 59.7622 89.0489C58.4428 87.6739 57.783 85.4048 57.783 82.2421V69.9892C57.783 67.8165 58.3811 65.967 59.5773 64.4405C60.7736 62.9138 62.8761 62.1508 65.885 62.1508C68.3268 62.1508 70.2812 62.8177 71.7487 64.1516C73.2162 65.4855 73.95 67.5278 73.95 70.278V71.9051H67.6607V69.123C67.6607 68.5729 67.482 68.1397 67.1242 67.8232C66.7668 67.507 66.366 67.3215 65.9219 67.2664H65.552C65.0833 67.3215 64.6642 67.5208 64.2942 67.8646C63.9241 68.2085 63.7393 68.7241 63.7393 69.4117V83.9746C63.7393 84.6072 63.9241 85.1228 64.2942 85.5217C64.6642 85.9205 65.0833 86.1475 65.552 86.2024H65.885C65.9343 86.2024 65.9714 86.1889 65.996 86.161C66.4893 86.1062 66.9331 85.8449 67.3277 85.3773C67.7225 84.9098 67.9198 84.2496 67.9198 83.3971V80.9606H73.95ZM77.3189 90.5696V62.7917H85.6666C89.8192 62.7917 92.3462 64.0442 92.4738 68.5925C92.5237 70.3712 92.241 71.8457 91.7752 73.0136C91.3094 74.1813 90.5151 75.0573 89.3926 75.6412C90.2763 75.9192 90.969 76.3502 91.4706 76.934C91.9722 77.5181 92.1949 78.2552 92.2231 79.1448L92.4738 87.066C92.5063 88.0943 92.5813 88.79 92.7962 89.1514C93.0111 89.513 93.238 89.6936 93.4771 89.6936V90.5696H88.3895C87.649 90.5696 87.1715 90.4374 86.9564 90.1732C86.7416 89.9092 86.634 89.2629 86.634 88.2341V81.631C86.634 80.7137 86.4787 80.0323 86.1682 79.5873C85.8577 79.1425 85.2725 78.92 84.4126 78.92H83.0872V90.5696H77.3189ZM83.0872 74.2215H84.4126C84.9621 74.2215 85.4696 73.9573 85.9355 73.4289C86.401 72.9007 86.634 72.6211 86.634 71.4254V70.2252C86.634 68.5948 85.9713 67.6744 85.3621 67.4099C84.7532 67.146 83.9948 67.0137 83.0872 67.0137V74.2215ZM96.7213 90.5696V62.7917H110.662V68.0056H102.733V73.3442H109.376V79.1415H102.733V85.0641H110.662V90.5696H96.7213ZM113.886 90.5696V62.7917H120.672C123.894 62.7917 126.168 63.2021 127.496 64.0222C128.824 64.8426 129.487 66.5595 129.487 69.1733V83.8962C129.487 85.926 128.91 87.5457 127.754 88.7552C126.599 89.9648 124.668 90.5696 121.964 90.5696H113.886ZM119.824 86.2882C120.906 86.2882 121.785 86.1285 122.461 85.8088C123.137 85.4889 123.475 84.6757 123.475 83.3687V69.8152C123.475 68.7307 123.18 68.0286 122.591 67.7089C122.001 67.3892 121.361 67.2104 120.672 67.1875C120.525 67.1826 120.384 67.1875 120.248 67.1875H119.824V86.2882Z" fill="#A88F40"/>
<path fill-rule="evenodd" clip-rule="evenodd" d="M62.9963 24.4871H69.1823V31.2252C67.187 30.5069 64.8839 30.5147 62.9963 31.2201V24.4871Z" fill="#DF3838"/>
<path fill-rule="evenodd" clip-rule="evenodd" d="M69.1825 90.5711V97.5714H62.9966V90.8013C63.8509 91.0083 64.8135 91.1118 65.885 91.1118C66.2549 91.1118 66.6494 91.0911 67.0688 91.0499C67.4881 91.0087 67.9075 90.9331 68.3268 90.823C68.6168 90.7548 68.9021 90.6709 69.1825 90.5711Z" fill="#4AAB54"/>
<path fill-rule="evenodd" clip-rule="evenodd" d="M135.997 18.3755H51.3656V103.624H135.997V18.3755ZM137.362 17V105H50V17H137.362Z" fill="#A88F40"/>
</g>
<path d="M8 0.5H180C184.142 0.5 187.5 3.85786 187.5 8V114C187.5 118.142 184.142 121.5 180 121.5H8C3.85786 121.5 0.5 118.142 0.5 114V8C0.5 3.85786 3.85786 0.5 8 0.5Z" stroke="#495057"/>
<defs>
<clipPath id="clip0_47_4210">
<path d="M0 8C0 3.58172 3.58172 0 8 0H180C184.418 0 188 3.58172 188 8V114C188 118.418 184.418 122 180 122H8C3.58172 122 0 118.418 0 114V8Z" fill="white"/>
</clipPath>
</defs>
</svg>
