<svg width="188" height="122" viewBox="0 0 188 122" fill="none" xmlns="http://www.w3.org/2000/svg">
<g clip-path="url(#clip0_47_4220)">
<path d="M184 0.25H4C1.92893 0.25 0.25 1.92893 0.25 4V118C0.25 120.071 1.92893 121.75 4 121.75H184C186.071 121.75 187.75 120.071 187.75 118V4C187.75 1.92893 186.071 0.25 184 0.25Z" fill="#1434CB"/>
<path d="M184 0.25H4C1.92893 0.25 0.25 1.92893 0.25 4V118C0.25 120.071 1.92893 121.75 4 121.75H184C186.071 121.75 187.75 120.071 187.75 118V4C187.75 1.92893 186.071 0.25 184 0.25Z" stroke="#495057" stroke-width="0.5"/>
<path d="M90.2818 37.8518L80.3922 84.4186H68.4336L78.3247 37.8518H90.2818ZM140.596 67.9202L146.892 50.4328L150.515 67.9202H140.596ZM153.939 84.4186H165L155.348 37.8518H145.137C142.843 37.8518 140.908 39.196 140.046 41.2683L122.104 84.4186H134.663L137.156 77.465H152.499L153.939 84.4186ZM122.728 69.2142C122.779 56.9237 105.855 56.2472 105.971 50.757C106.007 49.0843 107.588 47.3097 111.043 46.8543C112.759 46.6287 117.478 46.4563 122.836 48.9398L124.934 39.0649C122.056 38.0125 118.353 37 113.747 37C101.927 37 93.6076 43.3302 93.5374 52.3946C93.4627 59.0976 99.476 62.8383 104.008 65.0668C108.666 67.3498 110.232 68.8119 110.212 70.8532C110.181 73.9793 106.495 75.3559 103.057 75.4104C97.0431 75.5062 93.5535 73.7759 90.772 72.4701L88.6049 82.6736C91.3982 83.9662 96.5559 85.0892 101.906 85.1467C114.468 85.1467 122.687 78.8947 122.728 69.2142ZM73.1934 37.8518L53.818 84.4186H41.1747L31.6406 47.2552C31.0612 44.9662 30.5578 44.129 28.7977 43.1636C25.9254 41.594 21.1774 40.1187 17 39.2048L17.2853 37.8518H37.6338C40.2266 37.8518 42.5603 39.591 43.1485 42.5992L48.1848 69.5474L60.629 37.8518H73.1934Z" fill="white"/>
</g>
<path d="M8 0.5H180C184.142 0.5 187.5 3.85786 187.5 8V114C187.5 118.142 184.142 121.5 180 121.5H8C3.85786 121.5 0.5 118.142 0.5 114V8C0.5 3.85786 3.85786 0.5 8 0.5Z" stroke="#495057"/>
<defs>
<clipPath id="clip0_47_4220">
<path d="M0 8C0 3.58172 3.58172 0 8 0H180C184.418 0 188 3.58172 188 8V114C188 118.418 184.418 122 180 122H8C3.58172 122 0 118.418 0 114V8Z" fill="white"/>
</clipPath>
</defs>
</svg>
