<svg width="52" height="75" viewBox="0 0 52 75" fill="none" xmlns="http://www.w3.org/2000/svg">
<rect x="0.5354" y="54.4493" width="51.3074" height="19.6645" rx="9.83227" fill="#FF9A0A"/>
<path d="M14.1461 68.2339C13.5861 68.2339 13.0495 68.1606 12.5361 68.0139C12.0228 67.8606 11.6095 67.6639 11.2961 67.4239L11.8461 66.2039C12.1461 66.4172 12.4995 66.5939 12.9061 66.7339C13.3195 66.8672 13.7361 66.9339 14.1561 66.9339C14.4761 66.9339 14.7328 66.9039 14.9261 66.8439C15.1261 66.7772 15.2728 66.6872 15.3661 66.5739C15.4595 66.4606 15.5061 66.3306 15.5061 66.1839C15.5061 65.9972 15.4328 65.8506 15.2861 65.7439C15.1395 65.6306 14.9461 65.5406 14.7061 65.4739C14.4661 65.4006 14.1995 65.3339 13.9061 65.2739C13.6195 65.2072 13.3295 65.1272 13.0361 65.0339C12.7495 64.9406 12.4861 64.8206 12.2461 64.6739C12.0061 64.5272 11.8095 64.3339 11.6561 64.0939C11.5095 63.8539 11.4361 63.5472 11.4361 63.1739C11.4361 62.7739 11.5428 62.4106 11.7561 62.0839C11.9761 61.7506 12.3028 61.4872 12.7361 61.2939C13.1761 61.0939 13.7261 60.9939 14.3861 60.9939C14.8261 60.9939 15.2595 61.0472 15.6861 61.1539C16.1128 61.2539 16.4895 61.4072 16.8161 61.6139L16.3161 62.8439C15.9895 62.6572 15.6628 62.5206 15.3361 62.4339C15.0095 62.3406 14.6895 62.2939 14.3761 62.2939C14.0628 62.2939 13.8061 62.3306 13.6061 62.4039C13.4061 62.4772 13.2628 62.5739 13.1761 62.6939C13.0895 62.8072 13.0461 62.9406 13.0461 63.0939C13.0461 63.2739 13.1195 63.4206 13.2661 63.5339C13.4128 63.6406 13.6061 63.7272 13.8461 63.7939C14.0861 63.8606 14.3495 63.9272 14.6361 63.9939C14.9295 64.0606 15.2195 64.1372 15.5061 64.2239C15.7995 64.3106 16.0661 64.4272 16.3061 64.5739C16.5461 64.7206 16.7395 64.9139 16.8861 65.1539C17.0395 65.3939 17.1161 65.6972 17.1161 66.0639C17.1161 66.4572 17.0061 66.8172 16.7861 67.1439C16.5661 67.4706 16.2361 67.7339 15.7961 67.9339C15.3628 68.1339 14.8128 68.2339 14.1461 68.2339Z" fill="white"/>
<path d="M18.2231 68.1139V61.1139H21.6431C22.5231 61.1139 23.1831 61.2806 23.6231 61.6139C24.0698 61.9472 24.2931 62.3872 24.2931 62.9339C24.2931 63.3006 24.2031 63.6206 24.0231 63.8939C23.8431 64.1606 23.5964 64.3672 23.2831 64.5139C22.9698 64.6606 22.6098 64.7339 22.2031 64.7339L22.3931 64.3239C22.8331 64.3239 23.2231 64.3972 23.5631 64.5439C23.9031 64.6839 24.1664 64.8939 24.3531 65.1739C24.5464 65.4539 24.6431 65.7972 24.6431 66.2039C24.6431 66.8039 24.4064 67.2739 23.9331 67.6139C23.4598 67.9472 22.7631 68.1139 21.8431 68.1139H18.2231ZM19.8331 66.8939H21.7231C22.1431 66.8939 22.4598 66.8272 22.6731 66.6939C22.8931 66.5539 23.0031 66.3339 23.0031 66.0339C23.0031 65.7406 22.8931 65.5239 22.6731 65.3839C22.4598 65.2372 22.1431 65.1639 21.7231 65.1639H19.7131V63.9839H21.4431C21.8364 63.9839 22.1364 63.9172 22.3431 63.7839C22.5564 63.6439 22.6631 63.4339 22.6631 63.1539C22.6631 62.8806 22.5564 62.6772 22.3431 62.5439C22.1364 62.4039 21.8364 62.3339 21.4431 62.3339H19.8331V66.8939Z" fill="white"/>
<path d="M29.2696 68.2339C28.7162 68.2339 28.2029 68.1439 27.7296 67.9639C27.2629 67.7839 26.8562 67.5306 26.5096 67.2039C26.1696 66.8772 25.9029 66.4939 25.7096 66.0539C25.5229 65.6139 25.4296 65.1339 25.4296 64.6139C25.4296 64.0939 25.5229 63.6139 25.7096 63.1739C25.9029 62.7339 26.1729 62.3506 26.5196 62.0239C26.8662 61.6972 27.2729 61.4439 27.7396 61.2639C28.2062 61.0839 28.7129 60.9939 29.2596 60.9939C29.8129 60.9939 30.3196 61.0839 30.7796 61.2639C31.2462 61.4439 31.6496 61.6972 31.9896 62.0239C32.3362 62.3506 32.6062 62.7339 32.7996 63.1739C32.9929 63.6072 33.0896 64.0872 33.0896 64.6139C33.0896 65.1339 32.9929 65.6172 32.7996 66.0639C32.6062 66.5039 32.3362 66.8872 31.9896 67.2139C31.6496 67.5339 31.2462 67.7839 30.7796 67.9639C30.3196 68.1439 29.8162 68.2339 29.2696 68.2339ZM29.2596 66.8539C29.5729 66.8539 29.8596 66.8006 30.1196 66.6939C30.3862 66.5872 30.6196 66.4339 30.8196 66.2339C31.0196 66.0339 31.1729 65.7972 31.2796 65.5239C31.3929 65.2506 31.4496 64.9472 31.4496 64.6139C31.4496 64.2806 31.3929 63.9772 31.2796 63.7039C31.1729 63.4306 31.0196 63.1939 30.8196 62.9939C30.6262 62.7939 30.3962 62.6406 30.1296 62.5339C29.8629 62.4272 29.5729 62.3739 29.2596 62.3739C28.9462 62.3739 28.6562 62.4272 28.3896 62.5339C28.1296 62.6406 27.8996 62.7939 27.6996 62.9939C27.4996 63.1939 27.3429 63.4306 27.2296 63.7039C27.1229 63.9772 27.0696 64.2806 27.0696 64.6139C27.0696 64.9406 27.1229 65.2439 27.2296 65.5239C27.3429 65.7972 27.4962 66.0339 27.6896 66.2339C27.8896 66.4339 28.1229 66.5872 28.3896 66.6939C28.6562 66.8006 28.9462 66.8539 29.2596 66.8539Z" fill="white"/>
<path d="M33.2532 68.1139L36.2632 63.9639V65.1439L33.3832 61.1139H35.2232L37.2132 63.9239L36.4432 63.9339L38.4032 61.1139H40.1632L37.3032 65.0739V63.9139L40.3332 68.1139H38.4632L36.4032 65.1439H37.1432L35.1132 68.1139H33.2532Z" fill="white"/>
<path d="M50.8199 2.72221C51.1604 6.17448 50.0545 9.73685 47.7879 12.4992C47.7518 12.5445 47.7396 12.6042 47.7559 12.6597C48.947 16.6095 47.4285 21.2433 44.0633 23.9275L42.8027 25.1897C42.7683 25.2242 42.7503 25.2721 42.7528 25.3216C42.9451 28.7395 41.1614 32.1069 38.208 33.8994L36.3629 35.0188C36.3252 35.0423 36.2966 35.0809 36.286 35.1255C36.2753 35.1692 36.2827 35.2162 36.3056 35.2549L36.3097 35.2616L36.385 35.386H36.3817L42.2706 45.6058C42.3271 45.7042 42.3574 45.8185 42.3574 45.9336C42.3574 46.2739 42.1004 46.5546 41.7844 46.5597L38.8514 46.5639C38.5395 46.5639 38.2538 46.3941 38.0885 46.1101L37.08 44.3587C37.0775 44.3545 37.0751 44.3495 37.0734 44.3444L34.5596 39.9896C34.5244 39.9282 34.4573 39.8988 34.3901 39.914C31.7224 40.5611 29.0006 40.8896 26.3017 40.8896C23.539 40.8896 20.7591 40.5476 18.0373 39.8719C17.9743 39.8568 17.9006 39.8896 17.8662 39.9493L14.384 46.1084C14.217 46.3933 13.9321 46.563 13.6202 46.563H13.5867L10.63 46.5588C10.3123 46.5546 10.0553 46.2731 10.0553 45.9327C10.0553 45.8176 10.0856 45.7042 10.1413 45.6058L11.6851 42.9326C11.6884 42.9267 11.6917 42.9217 11.6958 42.9175L16.0031 35.3852H15.9917L16.0703 35.2549C16.094 35.2162 16.1014 35.1684 16.0907 35.1247C16.0801 35.0793 16.0523 35.0406 16.0138 35.0179L14.1687 33.8985C11.2152 32.1052 9.43156 28.7386 9.62474 25.3208C9.6272 25.2712 9.60919 25.2233 9.57481 25.1889L8.31419 23.9266C4.949 21.2433 3.43053 16.6095 4.62157 12.6588C4.63794 12.6034 4.62648 12.5429 4.58964 12.4983C2.32299 9.736 1.21791 6.17364 1.55844 2.72137C1.65094 2.08016 1.91534 0.929686 2.65043 0.427981C2.74866 0.367474 2.83952 0.317892 2.9271 0.277553C3.12684 0.185112 3.33721 0.140572 3.55332 0.149816C3.58361 0.151497 3.61144 0.166624 3.62863 0.192675C4.92854 2.1121 7.43585 5.08704 12.0019 8.36619C14.3169 10.0293 16.1112 11.1495 17.6108 12.0697C17.619 12.0739 18.016 12.3176 18.016 12.3176C18.4482 12.5824 18.8403 12.8227 19.2095 13.0547C19.8701 13.5017 20.4546 13.9589 20.976 14.4102C22.2047 15.5128 24.7963 18.2642 25.1819 22.1509C25.1819 22.1509 25.6239 25.2401 23.6683 29.3252L20.1427 35.9507C20.1157 35.9986 20.1116 36.0583 20.1329 36.1096C20.1542 36.1608 20.1975 36.1978 20.2491 36.2079C22.2604 36.6004 24.297 36.7987 26.3017 36.7987C28.2385 36.7987 30.208 36.613 32.1546 36.2466C32.2061 36.2365 32.2503 36.2003 32.2716 36.1482C32.2929 36.097 32.2896 36.0373 32.2618 35.9894L32.0703 35.6306L32.0678 35.6264L30.9693 33.5674H30.9709L28.6682 29.2462C26.756 25.2015 27.1915 22.1517 27.1915 22.1517C27.5672 18.3667 30.0344 15.659 31.2983 14.5009C31.8443 14.0202 32.4648 13.532 33.1688 13.0555C33.5082 12.8415 33.8669 12.6218 34.2584 12.3821L34.7675 12.0706C36.2671 11.1504 38.0615 10.0293 40.3764 8.36703C44.9425 5.08787 47.4498 2.1121 48.7497 0.193516C48.7669 0.167464 48.7947 0.151497 48.825 0.150656C49.0411 0.142253 49.2515 0.185952 49.4512 0.278394C49.5388 0.318732 49.6297 0.368314 49.7279 0.428821C50.463 0.930527 50.7274 2.081 50.8199 2.72221Z" fill="#0030B9"/>
</svg>
