<svg width="156" height="77" viewBox="0 0 156 77" fill="none" xmlns="http://www.w3.org/2000/svg">
<path d="M102.121 2.57359C102.462 6.02586 101.356 9.58822 99.0892 12.3505C99.0531 12.3959 99.0409 12.4556 99.0572 12.5111C100.248 16.4608 98.7298 21.0947 95.3646 23.7788L94.104 25.0411C94.0696 25.0755 94.0516 25.1234 94.0541 25.173C94.2464 28.5908 92.4627 31.9582 89.5093 33.7508L87.6642 34.8701C87.6265 34.8937 87.5979 34.9323 87.5873 34.9769C87.5766 35.0206 87.584 35.0676 87.6069 35.1063L87.611 35.113L87.6863 35.2374H87.683L93.5719 45.4572C93.6284 45.5555 93.6587 45.6698 93.6587 45.785C93.6587 46.1253 93.4017 46.406 93.0857 46.411L90.1527 46.4152C89.8408 46.4152 89.5551 46.2455 89.3898 45.9614L88.3813 44.2101C88.3788 44.2059 88.3764 44.2009 88.3747 44.1958L85.8609 39.841C85.8257 39.7796 85.7586 39.7502 85.6914 39.7653C83.0237 40.4124 80.3019 40.741 77.603 40.741C74.8403 40.741 72.0604 40.399 69.3386 39.7233C69.2756 39.7082 69.2019 39.741 69.1675 39.8006L65.6853 45.9598C65.5183 46.2447 65.2334 46.4144 64.9216 46.4144H64.888L61.9313 46.4102C61.6137 46.406 61.3566 46.1245 61.3566 45.7841C61.3566 45.669 61.3869 45.5555 61.4426 45.4572L62.9864 42.784C62.9897 42.7781 62.993 42.7731 62.9971 42.7689L67.3044 35.2365H67.293L67.3716 35.1063C67.3953 35.0676 67.4027 35.0197 67.392 34.976C67.3814 34.9307 67.3536 34.892 67.3151 34.8693L65.47 33.7499C62.5165 31.9566 60.7329 28.59 60.926 25.1722C60.9285 25.1226 60.9105 25.0747 60.8761 25.0402L59.6155 23.778C56.2503 21.0947 54.7318 16.4608 55.9229 12.5102C55.9392 12.4548 55.9278 12.3942 55.8909 12.3497C53.6243 9.58738 52.5192 6.02502 52.8597 2.57275C52.9522 1.93154 53.2166 0.781066 53.9517 0.27936C54.05 0.218853 54.1408 0.169271 54.2284 0.128933C54.4281 0.0364913 54.6385 -0.00804878 54.8546 0.00119539C54.8849 0.00287621 54.9127 0.0180029 54.9299 0.0440546C56.2298 1.96348 58.7372 4.93841 63.3032 8.21757C65.6182 9.88067 67.4125 11.0009 68.9121 11.9211C68.9203 11.9253 69.3173 12.169 69.3173 12.169C69.7495 12.4337 70.1416 12.6741 70.5108 12.906C71.1714 13.3531 71.7559 13.8103 72.2773 14.2616C73.506 15.3641 76.0976 18.1155 76.4832 22.0023C76.4832 22.0023 76.9252 25.0915 74.9696 29.1766L71.444 35.8021C71.417 35.85 71.4129 35.9097 71.4342 35.961C71.4555 36.0122 71.4989 36.0492 71.5504 36.0593C73.5617 36.4517 75.5983 36.6501 77.603 36.6501C79.5398 36.6501 81.5093 36.4643 83.4559 36.0979C83.5074 36.0878 83.5517 36.0517 83.5729 35.9996C83.5942 35.9483 83.591 35.8887 83.5631 35.8408L83.3716 35.4819L83.3691 35.4777L82.2706 33.4188H82.2722L79.9695 29.0976C78.0573 25.0528 78.4928 22.0031 78.4928 22.0031C78.8685 18.2181 81.3358 15.5104 82.5996 14.3523C83.1456 13.8716 83.7661 13.3834 84.4701 12.9069C84.8095 12.6929 85.1682 12.4732 85.5597 12.2335L86.0688 11.922C87.5684 11.0017 89.3628 9.88067 91.6777 8.21841C96.2438 4.93925 98.7511 1.96348 100.051 0.044895C100.068 0.0188433 100.096 0.00287621 100.126 0.0020358C100.342 -0.00636796 100.553 0.0373317 100.753 0.129773C100.84 0.170111 100.931 0.219694 101.029 0.280201C101.764 0.781906 102.029 1.93238 102.121 2.57359Z" fill="#0030B9"/>
<path d="M45.6423 29.8262C48.1774 29.9708 51.3257 30.1506 53.9623 31.0834C58.4424 32.6692 59.4329 35.7374 59.4755 38.0308C59.5156 40.1831 58.7576 42.0697 57.285 43.4883C54.4035 46.2624 49.7802 46.4245 48.883 46.4287C48.7152 46.4388 48.3477 46.4548 47.8221 46.4548C45.8027 46.4548 40.6358 46.1926 36.2703 43.7639L35.4354 43.2597C35.171 43.1025 35.0056 42.8109 35.0056 42.4991C35.0056 42.3588 35.04 42.221 35.1087 42.089L36.1631 40.0528C36.3129 39.7662 36.6027 39.5881 36.9194 39.5881C37.066 39.5881 37.2117 39.6276 37.341 39.7015L38.4134 40.3074C42.851 42.7688 48.5549 42.4271 48.6697 42.4202L48.671 42.4201C48.725 42.4159 48.7848 42.4126 48.8486 42.4151C49.8563 42.4151 52.8065 42.1 54.293 40.6587C54.9716 40.0007 55.2778 39.188 55.2581 38.1006C55.2 34.9635 51.8913 34.2021 45.3942 33.8315L45.3623 33.8298L45.3143 33.827C44.6619 33.7895 44.0582 33.7547 43.4968 33.7088C36.4299 33.1314 35.3944 29.1212 35.4067 26.7824C35.4165 24.8428 36.3546 20.2493 44.8319 19.4921C46.5959 19.3341 48.4164 19.4341 50.2427 19.7896C50.4416 19.8291 50.5971 19.861 50.706 19.8854L51.613 20.1089C51.9977 20.2064 52.2662 20.5577 52.2662 20.9636C52.2662 21.0376 52.2572 21.1081 52.2392 21.1821L51.717 23.3999C51.6138 23.7839 51.2733 24.0503 50.8877 24.0503C50.8263 24.0503 50.7649 24.0427 50.6986 24.0276L49.6844 23.7923C49.5802 23.7682 49.4529 23.7405 49.3544 23.7191L49.353 23.7188L49.2776 23.7024C47.9032 23.4436 46.5402 23.3721 45.2264 23.4889C42.6774 23.7167 39.6371 24.4764 39.6249 26.8034C39.6199 27.6984 39.6126 29.364 43.8577 29.7111C44.3857 29.754 44.9964 29.7893 45.6423 29.8262Z" fill="#0030B9"/>
<path fill-rule="evenodd" clip-rule="evenodd" d="M128.846 45.4824L114.54 20.656C114.218 20.0761 113.51 19.7013 112.735 19.7013C111.989 19.7013 111.297 20.0685 110.927 20.6619L98.2697 42.7949C98.2657 42.7991 98.2624 42.8041 98.2591 42.81L96.7153 45.4832C96.6596 45.5816 96.6301 45.695 96.6301 45.8101C96.6301 46.1505 96.8872 46.432 97.2048 46.437L100.161 46.4413H100.195C100.507 46.4413 100.792 46.2715 100.959 45.9866L104.441 39.8275C104.475 39.7678 104.549 39.735 104.612 39.7502C107.333 40.4258 110.114 40.7679 112.877 40.7679C115.575 40.7679 118.297 40.4393 120.965 39.7922C121.032 39.7771 121.099 39.8065 121.134 39.8678L123.648 44.2227C123.65 44.2277 123.652 44.2327 123.655 44.2369L124.663 45.9883C124.829 46.2723 125.114 46.4421 125.426 46.4421L128.359 46.4379C128.675 46.4328 128.932 46.1522 128.932 45.811C128.933 45.695 128.903 45.5824 128.846 45.4824ZM118.729 36.1223C116.782 36.4887 114.812 36.6744 112.876 36.6744C110.871 36.6744 108.834 36.4761 106.823 36.0836C106.772 36.0735 106.728 36.0365 106.707 35.9853C106.686 35.934 106.689 35.8744 106.717 35.8265L112.601 25.5133C112.63 25.4638 112.682 25.4327 112.736 25.4318C112.791 25.4318 112.841 25.4621 112.871 25.5125L118.836 35.8643C118.864 35.9122 118.868 35.9718 118.846 36.0231C118.824 36.076 118.78 36.113 118.729 36.1223Z" fill="#0030B9"/>
<path fill-rule="evenodd" clip-rule="evenodd" d="M32.5827 45.4824L18.2763 20.6568C17.9546 20.077 17.2465 19.7022 16.4713 19.7022C15.7256 19.7022 15.0331 20.0694 14.6631 20.6627L2.00616 42.7957C2.00207 42.7999 1.99879 42.805 1.99552 42.8109L0.451674 45.4833C0.39601 45.5816 0.365723 45.695 0.365723 45.8102C0.365723 46.1505 0.622757 46.4321 0.940367 46.4371L3.89709 46.4413H3.93065C4.24253 46.4413 4.52739 46.2715 4.69439 45.9867L8.17663 39.8275C8.21101 39.7679 8.28469 39.7351 8.34772 39.7502C11.0687 40.4259 13.8494 40.7679 16.6121 40.7679C19.311 40.7679 22.0328 40.4393 24.7005 39.7922C24.7677 39.7771 24.8348 39.8065 24.87 39.8679L27.3838 44.2227C27.3846 44.2251 27.3856 44.2275 27.3866 44.2298C27.3878 44.2323 27.3891 44.2348 27.3904 44.237L28.3989 45.9883C28.5642 46.2724 28.8499 46.4421 29.1618 46.4421L32.0948 46.4379C32.4108 46.4329 32.6678 46.1522 32.6678 45.811C32.6686 45.695 32.6391 45.5824 32.5827 45.4824ZM22.4642 36.1223C20.5176 36.4887 18.5481 36.6744 16.6113 36.6744C14.6066 36.6744 12.57 36.4761 10.5587 36.0836C10.5071 36.0736 10.4638 36.0366 10.4425 35.9853C10.4212 35.9341 10.4245 35.8744 10.4523 35.8265L16.3371 25.5134C16.3657 25.4638 16.4173 25.4327 16.4713 25.4319C16.527 25.4319 16.5769 25.4621 16.6064 25.5125L22.5714 35.8643C22.5992 35.9122 22.6033 35.9719 22.5812 36.0231C22.5599 36.0761 22.5166 36.1131 22.4642 36.1223Z" fill="#0030B9"/>
<path d="M149.852 31.0834C147.215 30.1506 144.067 29.9708 141.532 29.8262C140.886 29.7893 140.275 29.754 139.747 29.7111C135.501 29.364 135.509 27.6984 135.514 26.8034C135.527 24.4764 138.567 23.7167 141.116 23.4889C142.43 23.3721 143.793 23.4436 145.166 23.7024C145.266 23.7242 145.44 23.7612 145.573 23.7923L146.587 24.0276C146.654 24.0427 146.715 24.0503 146.776 24.0503C147.162 24.0503 147.503 23.7839 147.606 23.3999L148.128 21.1821C148.146 21.1081 148.155 21.0376 148.155 20.9636C148.155 20.5577 147.886 20.2064 147.502 20.1089L146.595 19.8854C146.486 19.861 146.33 19.8291 146.131 19.7896C144.305 19.4341 142.485 19.3341 140.721 19.4921C132.243 20.2493 131.305 24.8428 131.295 26.7824C131.283 29.1212 132.319 33.1314 139.385 33.7088C139.95 33.7549 140.554 33.7897 141.209 33.8274L141.251 33.8298L141.283 33.8315C147.78 34.2021 151.089 34.9635 151.147 38.1006C151.167 39.188 150.86 40.0007 150.182 40.6587C148.695 42.1 145.745 42.4151 144.737 42.4151C144.674 42.4126 144.614 42.4159 144.56 42.4201L144.558 42.4202C144.444 42.4271 138.74 42.7688 134.302 40.3074L133.23 39.7015C133.1 39.6276 132.955 39.5881 132.808 39.5881C132.491 39.5881 132.202 39.7662 132.052 40.0528L130.997 42.089C130.929 42.221 130.894 42.3588 130.894 42.4991C130.894 42.8109 131.06 43.1025 131.324 43.2597L132.159 43.7639C136.525 46.1926 141.691 46.4548 143.711 46.4548C144.236 46.4548 144.604 46.4388 144.772 46.4287C145.669 46.4245 150.292 46.2624 153.174 43.4883C154.646 42.0697 155.404 40.1831 155.364 38.0308C155.323 35.7374 154.332 32.6692 149.852 31.0834Z" fill="#0030B9"/>
<rect x="0.365723" y="57.3354" width="155" height="19.6645" rx="9.83227" fill="#FF9A0A"/>
<path d="M29.0125 71.6589C28.3117 71.6589 27.6401 71.5679 26.9977 71.3859C26.3554 71.1957 25.8381 70.9517 25.446 70.6539L26.1343 69.1403C26.5097 69.405 26.9519 69.6242 27.4608 69.7979C27.978 69.9633 28.4994 70.046 29.025 70.046C29.4254 70.046 29.7466 70.0088 29.9885 69.9344C30.2388 69.8517 30.4223 69.74 30.5391 69.5994C30.6559 69.4588 30.7143 69.2975 30.7143 69.1155C30.7143 68.8839 30.6225 68.702 30.439 68.5697C30.2555 68.429 30.0135 68.3174 29.7132 68.2347C29.4129 68.1437 29.0792 68.061 28.7121 67.9865C28.3534 67.9038 27.9905 67.8046 27.6234 67.6888C27.2647 67.573 26.9352 67.4241 26.6348 67.2422C26.3345 67.0602 26.0884 66.8203 25.8965 66.5226C25.713 66.2248 25.6212 65.8444 25.6212 65.3812C25.6212 64.8849 25.7547 64.4342 26.0217 64.0289C26.297 63.6153 26.7058 63.2886 27.248 63.0488C27.7986 62.8006 28.4869 62.6766 29.3128 62.6766C29.8634 62.6766 30.4056 62.7427 30.9396 62.8751C31.4735 62.9991 31.9448 63.1894 32.3536 63.4458L31.7279 64.9718C31.3191 64.7402 30.9104 64.5706 30.5016 64.4631C30.0928 64.3473 29.6924 64.2894 29.3003 64.2894C28.9082 64.2894 28.587 64.3349 28.3367 64.4259C28.0864 64.5169 27.9071 64.6368 27.7986 64.7857C27.6902 64.9263 27.6359 65.0917 27.6359 65.2819C27.6359 65.5053 27.7277 65.6872 27.9112 65.8278C28.0948 65.9602 28.3367 66.0677 28.637 66.1504C28.9374 66.2331 29.2669 66.3158 29.6256 66.3985C29.9927 66.4812 30.3556 66.5763 30.7143 66.6839C31.0814 66.7914 31.4151 66.9361 31.7154 67.1181C32.0157 67.3001 32.2577 67.5399 32.4412 67.8377C32.6331 68.1354 32.729 68.5118 32.729 68.9667C32.729 69.4546 32.5914 69.9013 32.3161 70.3066C32.0408 70.7118 31.6278 71.0385 31.0772 71.2867C30.535 71.5348 29.8467 71.6589 29.0125 71.6589Z" fill="white"/>
<path d="M39.2198 71.51L43.1241 62.8255H45.1263L49.0431 71.51H46.9158L43.7122 63.8428H44.5131L41.2971 71.51H39.2198ZM41.172 69.649L41.71 68.123H46.215L46.7656 69.649H41.172Z" fill="white"/>
<path d="M56.2087 71.51V62.8255H57.8856L63.0537 69.0783H62.2403V62.8255H64.2425V71.51H62.5782L57.3975 65.2571H58.2109V71.51H56.2087Z" fill="white"/>
<path d="M72.5719 71.51V62.8255H76.5512C77.5023 62.8255 78.3407 63.0074 79.0665 63.3713C79.7923 63.727 80.3596 64.2274 80.7684 64.8725C81.1771 65.5177 81.3815 66.2827 81.3815 67.1677C81.3815 68.0444 81.1771 68.8095 80.7684 69.4629C80.3596 70.1081 79.7923 70.6126 79.0665 70.9765C78.3407 71.3322 77.5023 71.51 76.5512 71.51H72.5719ZM74.5991 69.8599H76.4511C77.0351 69.8599 77.5398 69.7524 77.9653 69.5374C78.3991 69.314 78.7328 68.9997 78.9664 68.5945C79.2083 68.1892 79.3293 67.7136 79.3293 67.1677C79.3293 66.6136 79.2083 66.138 78.9664 65.741C78.7328 65.3357 78.3991 65.0255 77.9653 64.8105C77.5398 64.5872 77.0351 64.4755 76.4511 64.4755H74.5991V69.8599Z" fill="white"/>
<path d="M89.1672 71.51V62.8255H93.4469C94.5481 62.8255 95.374 63.0322 95.9246 63.4458C96.4836 63.8593 96.763 64.4052 96.763 65.0834C96.763 65.5383 96.6504 65.9353 96.4252 66.2745C96.1999 66.6053 95.8912 66.8617 95.4991 67.0437C95.107 67.2256 94.6565 67.3166 94.1477 67.3166L94.3854 66.8079C94.936 66.8079 95.4241 66.8989 95.8495 67.0809C96.275 67.2546 96.6045 67.5151 96.8381 67.8625C97.08 68.2099 97.201 68.6358 97.201 69.1403C97.201 69.8847 96.9048 70.4678 96.3125 70.8897C95.7202 71.3032 94.8484 71.51 93.6972 71.51H89.1672ZM91.1819 69.9964H93.547C94.0726 69.9964 94.4688 69.9137 94.7358 69.7483C95.0111 69.5746 95.1488 69.3016 95.1488 68.9294C95.1488 68.5655 95.0111 68.2967 94.7358 68.123C94.4688 67.9411 94.0726 67.8501 93.547 67.8501H91.0317V66.3861H93.1966C93.6888 66.3861 94.0642 66.3034 94.3229 66.138C94.5898 65.9643 94.7233 65.7038 94.7233 65.3564C94.7233 65.0173 94.5898 64.765 94.3229 64.5996C94.0642 64.4259 93.6888 64.339 93.1966 64.339H91.1819V69.9964Z" fill="white"/>
<path d="M109.247 71.6589C108.555 71.6589 107.913 71.5472 107.32 71.3239C106.736 71.1006 106.227 70.7863 105.794 70.381C105.368 69.9757 105.034 69.5001 104.792 68.9543C104.559 68.4084 104.442 67.8129 104.442 67.1677C104.442 66.5226 104.559 65.9271 104.792 65.3812C105.034 64.8353 105.372 64.3597 105.806 63.9544C106.24 63.5492 106.749 63.2349 107.333 63.0115C107.917 62.7882 108.551 62.6766 109.235 62.6766C109.927 62.6766 110.561 62.7882 111.137 63.0115C111.721 63.2349 112.226 63.5492 112.651 63.9544C113.085 64.3597 113.423 64.8353 113.665 65.3812C113.907 65.9188 114.028 66.5143 114.028 67.1677C114.028 67.8129 113.907 68.4125 113.665 68.9667C113.423 69.5125 113.085 69.9881 112.651 70.3934C112.226 70.7904 111.721 71.1006 111.137 71.3239C110.561 71.5472 109.931 71.6589 109.247 71.6589ZM109.235 69.9468C109.627 69.9468 109.986 69.8806 110.311 69.7483C110.645 69.6159 110.937 69.4257 111.187 69.1776C111.437 68.9294 111.629 68.6358 111.763 68.2967C111.904 67.9576 111.975 67.5813 111.975 67.1677C111.975 66.7542 111.904 66.3778 111.763 66.0387C111.629 65.6996 111.437 65.406 111.187 65.1579C110.945 64.9097 110.657 64.7195 110.323 64.5872C109.99 64.4548 109.627 64.3887 109.235 64.3887C108.843 64.3887 108.48 64.4548 108.146 64.5872C107.821 64.7195 107.533 64.9097 107.283 65.1579C107.032 65.406 106.836 65.6996 106.695 66.0387C106.561 66.3778 106.494 66.7542 106.494 67.1677C106.494 67.573 106.561 67.9493 106.695 68.2967C106.836 68.6358 107.028 68.9294 107.27 69.1776C107.52 69.4257 107.812 69.6159 108.146 69.7483C108.48 69.8806 108.843 69.9468 109.235 69.9468Z" fill="white"/>
<path d="M120.489 71.51L124.256 66.3613V67.8253L120.652 62.8255H122.954L125.445 66.3117L124.481 66.3241L126.934 62.8255H129.136L125.557 67.7384V66.2993L129.349 71.51H127.009L124.431 67.8253H125.357L122.817 71.51H120.489Z" fill="white"/>
</svg>
